M48
; DRILL file {KiCad 6.0.2+dfsg-1} date Sun 19 Jan 2025 18:01:25
; FORMAT={2:4/ absolute / inch / suppress leading zeros}
; #@! TF.CreationDate,2025-01-19T18:01:25+11:00
; #@! TF.GenerationSoftware,Kicad,Pcbnew,6.0.2+dfsg-1
; #@! TF.FileFunction,Plated,1,2,PTH
FMAT,2
INCH,TZ
; #@! TA.AperFunction,Plated,PTH,ViaDrill
T1C0.0157
; #@! TA.AperFunction,Plated,PTH,ComponentDrill
T2C0.0394
; #@! TA.AperFunction,Plated,PTH,ComponentDrill
T3C0.0630
; #@! TA.AperFunction,Plated,PTH,ComponentDrill
T4C0.1260
%
G90
G05
T1
X49213Y-35827
X49213Y-41339
X50394Y-18898
X50394Y-52756
X51181Y-19291
X51575Y-48031
X55118Y-38976
X57874Y-42520
X59449Y-35827
X59843Y-51181
X62205Y-47638
X62598Y-38583
X66142Y-15354
X66142Y-16142
X67717Y-29921
X67717Y-34646
X68504Y-48425
X68898Y-47638
X69685Y-32283
X69685Y-38189
T2
X47539Y-37303
X47539Y-39075
X47933Y-42815
X47933Y-44587
X50098Y-37303
X50098Y-39075
X50492Y-42815
X50492Y-44587
X51406Y-15642
X51406Y-16642
X52406Y-15642
X52406Y-16642
X53406Y-15642
X53406Y-16642
X53445Y-40059
X53445Y-41831
X54406Y-15642
X54406Y-16642
X55406Y-15642
X55406Y-16642
X56004Y-40059
X56004Y-41831
X56406Y-15642
X56406Y-16642
X57406Y-15642
X57406Y-16642
X57776Y-36909
X57776Y-38681
X57776Y-43602
X57776Y-45374
X58406Y-15642
X58406Y-16642
X59406Y-15642
X59406Y-16642
X60335Y-36909
X60335Y-38681
X60335Y-43602
X60335Y-45374
X60406Y-15642
X60406Y-16642
X61713Y-40059
X61713Y-41831
X64272Y-40059
X64272Y-41831
X70758Y-18258
X70758Y-19258
X70758Y-20258
X70758Y-21258
X70758Y-22258
X70758Y-23258
X70758Y-24258
X70758Y-25258
X70758Y-26258
X70758Y-27258
X70758Y-28258
X70758Y-29258
X70758Y-30258
X70758Y-31258
X70758Y-32258
X70758Y-33258
X70758Y-34258
X70758Y-35258
X70758Y-36258
X70758Y-37258
X71758Y-18258
X71758Y-19258
X71758Y-20258
X71758Y-21258
X71758Y-22258
X71758Y-23258
X71758Y-24258
X71758Y-25258
X71758Y-26258
X71758Y-27258
X71758Y-28258
X71758Y-29258
X71758Y-30258
X71758Y-31258
X71758Y-32258
X71758Y-33258
X71758Y-34258
X71758Y-35258
X71758Y-36258
X71758Y-37258
T3
X53839Y-49921
X53839Y-52283
X55689Y-51102
T4
X47835Y-15740
X47835Y-33465
X63976Y-15740
X63976Y-33465
T0
M30
