%TF.GenerationSoftware,KiCad,Pcbnew,6.0.2+dfsg-1*%
%TF.CreationDate,2025-01-19T18:01:40+11:00*%
%TF.ProjectId,OLED_DEV_BOARD,4f4c4544-5f44-4455-965f-424f4152442e,rev?*%
%TF.SameCoordinates,Original*%
%TF.FileFunction,Soldermask,Top*%
%TF.FilePolarity,Negative*%
%FSLAX46Y46*%
G04 Gerber Fmt 4.6, Leading zero omitted, Abs format (unit mm)*
G04 Created by KiCad (PCBNEW 6.0.2+dfsg-1) date 2025-01-19 18:01:40*
%MOMM*%
%LPD*%
G01*
G04 APERTURE LIST*
G04 Aperture macros list*
%AMRoundRect*
0 Rectangle with rounded corners*
0 $1 Rounding radius*
0 $2 $3 $4 $5 $6 $7 $8 $9 X,Y pos of 4 corners*
0 Add a 4 corners polygon primitive as box body*
4,1,4,$2,$3,$4,$5,$6,$7,$8,$9,$2,$3,0*
0 Add four circle primitives for the rounded corners*
1,1,$1+$1,$2,$3*
1,1,$1+$1,$4,$5*
1,1,$1+$1,$6,$7*
1,1,$1+$1,$8,$9*
0 Add four rect primitives between the rounded corners*
20,1,$1+$1,$2,$3,$4,$5,0*
20,1,$1+$1,$4,$5,$6,$7,0*
20,1,$1+$1,$6,$7,$8,$9,0*
20,1,$1+$1,$8,$9,$2,$3,0*%
G04 Aperture macros list end*
%ADD10C,1.800000*%
%ADD11RoundRect,0.150000X-0.150000X0.650000X-0.150000X-0.650000X0.150000X-0.650000X0.150000X0.650000X0*%
%ADD12RoundRect,0.200000X-0.200000X-0.275000X0.200000X-0.275000X0.200000X0.275000X-0.200000X0.275000X0*%
%ADD13R,2.500000X1.800000*%
%ADD14R,1.500000X1.100000*%
%ADD15C,1.700000*%
%ADD16R,2.800000X2.200000*%
%ADD17R,2.800000X2.800000*%
%ADD18RoundRect,0.225000X-0.225000X-0.250000X0.225000X-0.250000X0.225000X0.250000X-0.225000X0.250000X0*%
%ADD19RoundRect,0.200000X0.200000X0.275000X-0.200000X0.275000X-0.200000X-0.275000X0.200000X-0.275000X0*%
%ADD20R,2.600000X2.600000*%
%ADD21C,2.600000*%
%ADD22R,1.700000X1.700000*%
%ADD23O,1.700000X1.700000*%
%ADD24C,5.500000*%
%ADD25R,1.800000X1.800000*%
%ADD26RoundRect,0.250000X-0.325000X-0.650000X0.325000X-0.650000X0.325000X0.650000X-0.325000X0.650000X0*%
%ADD27R,2.200000X1.200000*%
%ADD28R,6.400000X5.800000*%
%ADD29RoundRect,0.250000X-1.000000X1.750000X-1.000000X-1.750000X1.000000X-1.750000X1.000000X1.750000X0*%
%ADD30RoundRect,0.225000X-0.250000X0.225000X-0.250000X-0.225000X0.250000X-0.225000X0.250000X0.225000X0*%
%ADD31RoundRect,0.250000X-0.650000X0.325000X-0.650000X-0.325000X0.650000X-0.325000X0.650000X0.325000X0*%
G04 APERTURE END LIST*
D10*
%TO.C,SW7*%
X156750000Y-101750000D03*
X163250000Y-101750000D03*
X156750000Y-106250000D03*
X163250000Y-106250000D03*
%TD*%
%TO.C,SW6*%
X146750000Y-110750000D03*
X153250000Y-110750000D03*
X146750000Y-115250000D03*
X153250000Y-115250000D03*
%TD*%
%TO.C,SW5*%
X146750000Y-93750000D03*
X153250000Y-93750000D03*
X146750000Y-98250000D03*
X153250000Y-98250000D03*
%TD*%
%TO.C,SW4*%
X135750000Y-101750000D03*
X142250000Y-101750000D03*
X135750000Y-106250000D03*
X142250000Y-106250000D03*
%TD*%
%TO.C,SW3*%
X121750000Y-108750000D03*
X128250000Y-108750000D03*
X121750000Y-113250000D03*
X128250000Y-113250000D03*
%TD*%
%TO.C,SW2*%
X120750000Y-94750000D03*
X127250000Y-94750000D03*
X120750000Y-99250000D03*
X127250000Y-99250000D03*
%TD*%
D11*
%TO.C,U2*%
X175905000Y-85400000D03*
X174635000Y-85400000D03*
X173365000Y-85400000D03*
X172095000Y-85400000D03*
X172095000Y-92600000D03*
X173365000Y-92600000D03*
X174635000Y-92600000D03*
X175905000Y-92600000D03*
%TD*%
D12*
%TO.C,R3*%
X169575000Y-41250000D03*
X171225000Y-41250000D03*
%TD*%
D13*
%TO.C,D1*%
X162450000Y-130490000D03*
X166450000Y-130490000D03*
%TD*%
D14*
%TO.C,SW1*%
X173050000Y-38730000D03*
X173050000Y-41270000D03*
X181950000Y-41270000D03*
X181950000Y-38730000D03*
%TD*%
D15*
%TO.C,J3*%
X123500000Y-127500000D03*
X123500000Y-134500000D03*
D16*
X119800000Y-133600000D03*
X127200000Y-135600000D03*
D17*
X127200000Y-126200000D03*
%TD*%
D12*
%TO.C,R5*%
X126175000Y-105000000D03*
X127825000Y-105000000D03*
%TD*%
%TO.C,R8*%
X144175000Y-108000000D03*
X145825000Y-108000000D03*
%TD*%
D18*
%TO.C,C8*%
X171225000Y-123000000D03*
X172775000Y-123000000D03*
%TD*%
D19*
%TO.C,R1*%
X128825000Y-118500000D03*
X127175000Y-118500000D03*
%TD*%
D20*
%TO.C,J1*%
X136750000Y-126800000D03*
D21*
X136750000Y-132800000D03*
X141450000Y-129800000D03*
%TD*%
D18*
%TO.C,C4*%
X175450000Y-83287335D03*
X177000000Y-83287335D03*
%TD*%
D12*
%TO.C,R6*%
X141175000Y-99000000D03*
X142825000Y-99000000D03*
%TD*%
D19*
%TO.C,R9*%
X157825000Y-98000000D03*
X156175000Y-98000000D03*
%TD*%
D18*
%TO.C,C5*%
X175225000Y-95000000D03*
X176775000Y-95000000D03*
%TD*%
D22*
%TO.C,J4*%
X179725000Y-46375000D03*
D23*
X182265000Y-46375000D03*
X179725000Y-48915000D03*
X182265000Y-48915000D03*
X179725000Y-51455000D03*
X182265000Y-51455000D03*
X179725000Y-53995000D03*
X182265000Y-53995000D03*
X179725000Y-56535000D03*
X182265000Y-56535000D03*
X179725000Y-59075000D03*
X182265000Y-59075000D03*
X179725000Y-61615000D03*
X182265000Y-61615000D03*
X179725000Y-64155000D03*
X182265000Y-64155000D03*
X179725000Y-66695000D03*
X182265000Y-66695000D03*
X179725000Y-69235000D03*
X182265000Y-69235000D03*
X179725000Y-71775000D03*
X182265000Y-71775000D03*
X179725000Y-74315000D03*
X182265000Y-74315000D03*
X179725000Y-76855000D03*
X182265000Y-76855000D03*
X179725000Y-79395000D03*
X182265000Y-79395000D03*
X179725000Y-81935000D03*
X182265000Y-81935000D03*
X179725000Y-84475000D03*
X182265000Y-84475000D03*
X179725000Y-87015000D03*
X182265000Y-87015000D03*
X179725000Y-89555000D03*
X182265000Y-89555000D03*
X179725000Y-92095000D03*
X182265000Y-92095000D03*
X179725000Y-94635000D03*
X182265000Y-94635000D03*
%TD*%
D24*
%TO.C,J2*%
X121500000Y-39980000D03*
X162500000Y-39980000D03*
X121500000Y-85000000D03*
X162500000Y-85000000D03*
D25*
X130570000Y-39730000D03*
D10*
X130570000Y-42270000D03*
X133110000Y-39730000D03*
X133110000Y-42270000D03*
X135650000Y-39730000D03*
X135650000Y-42270000D03*
X138190000Y-39730000D03*
X138190000Y-42270000D03*
X140730000Y-39730000D03*
X140730000Y-42270000D03*
X143270000Y-39730000D03*
X143270000Y-42270000D03*
X145810000Y-39730000D03*
X145810000Y-42270000D03*
X148350000Y-39730000D03*
X148350000Y-42270000D03*
X150890000Y-39730000D03*
X150890000Y-42270000D03*
X153430000Y-39730000D03*
X153430000Y-42270000D03*
%TD*%
D12*
%TO.C,R2*%
X169575000Y-38700000D03*
X171225000Y-38700000D03*
%TD*%
D26*
%TO.C,C7*%
X171050000Y-120790000D03*
X174000000Y-120790000D03*
%TD*%
D12*
%TO.C,R4*%
X126175000Y-91000000D03*
X127825000Y-91000000D03*
%TD*%
D27*
%TO.C,U3*%
X160300000Y-120720000D03*
D28*
X166600000Y-123000000D03*
D27*
X160300000Y-125280000D03*
%TD*%
D11*
%TO.C,U1*%
X175785000Y-74120000D03*
X174515000Y-74120000D03*
X173245000Y-74120000D03*
X171975000Y-74120000D03*
X171975000Y-81320000D03*
X173245000Y-81320000D03*
X174515000Y-81320000D03*
X175785000Y-81320000D03*
%TD*%
D29*
%TO.C,C1*%
X151500000Y-125000000D03*
X151500000Y-133000000D03*
%TD*%
D12*
%TO.C,R7*%
X152175000Y-91000000D03*
X153825000Y-91000000D03*
%TD*%
D30*
%TO.C,C6*%
X128000000Y-45225000D03*
X128000000Y-46775000D03*
%TD*%
D18*
%TO.C,C2*%
X127225000Y-121500000D03*
X128775000Y-121500000D03*
%TD*%
D31*
%TO.C,C3*%
X130000000Y-45000000D03*
X130000000Y-47950000D03*
%TD*%
M02*
