%TF.GenerationSoftware,KiCad,Pcbnew,6.0.2+dfsg-1*%
%TF.CreationDate,2025-01-19T18:01:40+11:00*%
%TF.ProjectId,OLED_DEV_BOARD,4f4c4544-5f44-4455-965f-424f4152442e,rev?*%
%TF.SameCoordinates,Original*%
%TF.FileFunction,Legend,Top*%
%TF.FilePolarity,Positive*%
%FSLAX46Y46*%
G04 Gerber Fmt 4.6, Leading zero omitted, Abs format (unit mm)*
G04 Created by KiCad (PCBNEW 6.0.2+dfsg-1) date 2025-01-19 18:01:40*
%MOMM*%
%LPD*%
G01*
G04 APERTURE LIST*
%ADD10C,0.150000*%
%ADD11C,0.120000*%
%ADD12C,0.500000*%
%ADD13C,0.508000*%
G04 APERTURE END LIST*
D10*
X164880952Y-33452380D02*
X164880952Y-34166666D01*
X164833333Y-34309523D01*
X164738095Y-34404761D01*
X164595238Y-34452380D01*
X164500000Y-34452380D01*
X165928571Y-34452380D02*
X165595238Y-33976190D01*
X165357142Y-34452380D02*
X165357142Y-33452380D01*
X165738095Y-33452380D01*
X165833333Y-33500000D01*
X165880952Y-33547619D01*
X165928571Y-33642857D01*
X165928571Y-33785714D01*
X165880952Y-33880952D01*
X165833333Y-33928571D01*
X165738095Y-33976190D01*
X165357142Y-33976190D01*
X166309523Y-34404761D02*
X166452380Y-34452380D01*
X166690476Y-34452380D01*
X166785714Y-34404761D01*
X166833333Y-34357142D01*
X166880952Y-34261904D01*
X166880952Y-34166666D01*
X166833333Y-34071428D01*
X166785714Y-34023809D01*
X166690476Y-33976190D01*
X166500000Y-33928571D01*
X166404761Y-33880952D01*
X166357142Y-33833333D01*
X166309523Y-33738095D01*
X166309523Y-33642857D01*
X166357142Y-33547619D01*
X166404761Y-33500000D01*
X166500000Y-33452380D01*
X166738095Y-33452380D01*
X166880952Y-33500000D01*
X168023809Y-33547619D02*
X168071428Y-33500000D01*
X168166666Y-33452380D01*
X168404761Y-33452380D01*
X168500000Y-33500000D01*
X168547619Y-33547619D01*
X168595238Y-33642857D01*
X168595238Y-33738095D01*
X168547619Y-33880952D01*
X167976190Y-34452380D01*
X168595238Y-34452380D01*
X169214285Y-33452380D02*
X169309523Y-33452380D01*
X169404761Y-33500000D01*
X169452380Y-33547619D01*
X169500000Y-33642857D01*
X169547619Y-33833333D01*
X169547619Y-34071428D01*
X169500000Y-34261904D01*
X169452380Y-34357142D01*
X169404761Y-34404761D01*
X169309523Y-34452380D01*
X169214285Y-34452380D01*
X169119047Y-34404761D01*
X169071428Y-34357142D01*
X169023809Y-34261904D01*
X168976190Y-34071428D01*
X168976190Y-33833333D01*
X169023809Y-33642857D01*
X169071428Y-33547619D01*
X169119047Y-33500000D01*
X169214285Y-33452380D01*
X169928571Y-33547619D02*
X169976190Y-33500000D01*
X170071428Y-33452380D01*
X170309523Y-33452380D01*
X170404761Y-33500000D01*
X170452380Y-33547619D01*
X170500000Y-33642857D01*
X170500000Y-33738095D01*
X170452380Y-33880952D01*
X169880952Y-34452380D01*
X170500000Y-34452380D01*
X171404761Y-33452380D02*
X170928571Y-33452380D01*
X170880952Y-33928571D01*
X170928571Y-33880952D01*
X171023809Y-33833333D01*
X171261904Y-33833333D01*
X171357142Y-33880952D01*
X171404761Y-33928571D01*
X171452380Y-34023809D01*
X171452380Y-34261904D01*
X171404761Y-34357142D01*
X171357142Y-34404761D01*
X171261904Y-34452380D01*
X171023809Y-34452380D01*
X170928571Y-34404761D01*
X170880952Y-34357142D01*
X161000000Y-31452380D02*
X161190476Y-31452380D01*
X161285714Y-31500000D01*
X161380952Y-31595238D01*
X161428571Y-31785714D01*
X161428571Y-32119047D01*
X161380952Y-32309523D01*
X161285714Y-32404761D01*
X161190476Y-32452380D01*
X161000000Y-32452380D01*
X160904761Y-32404761D01*
X160809523Y-32309523D01*
X160761904Y-32119047D01*
X160761904Y-31785714D01*
X160809523Y-31595238D01*
X160904761Y-31500000D01*
X161000000Y-31452380D01*
X162333333Y-32452380D02*
X161857142Y-32452380D01*
X161857142Y-31452380D01*
X162666666Y-31928571D02*
X163000000Y-31928571D01*
X163142857Y-32452380D02*
X162666666Y-32452380D01*
X162666666Y-31452380D01*
X163142857Y-31452380D01*
X163571428Y-32452380D02*
X163571428Y-31452380D01*
X163809523Y-31452380D01*
X163952380Y-31500000D01*
X164047619Y-31595238D01*
X164095238Y-31690476D01*
X164142857Y-31880952D01*
X164142857Y-32023809D01*
X164095238Y-32214285D01*
X164047619Y-32309523D01*
X163952380Y-32404761D01*
X163809523Y-32452380D01*
X163571428Y-32452380D01*
X165333333Y-32452380D02*
X165333333Y-31452380D01*
X165571428Y-31452380D01*
X165714285Y-31500000D01*
X165809523Y-31595238D01*
X165857142Y-31690476D01*
X165904761Y-31880952D01*
X165904761Y-32023809D01*
X165857142Y-32214285D01*
X165809523Y-32309523D01*
X165714285Y-32404761D01*
X165571428Y-32452380D01*
X165333333Y-32452380D01*
X166333333Y-31928571D02*
X166666666Y-31928571D01*
X166809523Y-32452380D02*
X166333333Y-32452380D01*
X166333333Y-31452380D01*
X166809523Y-31452380D01*
X167095238Y-31452380D02*
X167428571Y-32452380D01*
X167761904Y-31452380D01*
X169190476Y-31928571D02*
X169333333Y-31976190D01*
X169380952Y-32023809D01*
X169428571Y-32119047D01*
X169428571Y-32261904D01*
X169380952Y-32357142D01*
X169333333Y-32404761D01*
X169238095Y-32452380D01*
X168857142Y-32452380D01*
X168857142Y-31452380D01*
X169190476Y-31452380D01*
X169285714Y-31500000D01*
X169333333Y-31547619D01*
X169380952Y-31642857D01*
X169380952Y-31738095D01*
X169333333Y-31833333D01*
X169285714Y-31880952D01*
X169190476Y-31928571D01*
X168857142Y-31928571D01*
X170047619Y-31452380D02*
X170238095Y-31452380D01*
X170333333Y-31500000D01*
X170428571Y-31595238D01*
X170476190Y-31785714D01*
X170476190Y-32119047D01*
X170428571Y-32309523D01*
X170333333Y-32404761D01*
X170238095Y-32452380D01*
X170047619Y-32452380D01*
X169952380Y-32404761D01*
X169857142Y-32309523D01*
X169809523Y-32119047D01*
X169809523Y-31785714D01*
X169857142Y-31595238D01*
X169952380Y-31500000D01*
X170047619Y-31452380D01*
X170857142Y-32166666D02*
X171333333Y-32166666D01*
X170761904Y-32452380D02*
X171095238Y-31452380D01*
X171428571Y-32452380D01*
X172333333Y-32452380D02*
X172000000Y-31976190D01*
X171761904Y-32452380D02*
X171761904Y-31452380D01*
X172142857Y-31452380D01*
X172238095Y-31500000D01*
X172285714Y-31547619D01*
X172333333Y-31642857D01*
X172333333Y-31785714D01*
X172285714Y-31880952D01*
X172238095Y-31928571D01*
X172142857Y-31976190D01*
X171761904Y-31976190D01*
X172761904Y-32452380D02*
X172761904Y-31452380D01*
X173000000Y-31452380D01*
X173142857Y-31500000D01*
X173238095Y-31595238D01*
X173285714Y-31690476D01*
X173333333Y-31880952D01*
X173333333Y-32023809D01*
X173285714Y-32214285D01*
X173238095Y-32309523D01*
X173142857Y-32404761D01*
X173000000Y-32452380D01*
X172761904Y-32452380D01*
X174428571Y-31785714D02*
X174666666Y-32452380D01*
X174904761Y-31785714D01*
X175809523Y-32452380D02*
X175238095Y-32452380D01*
X175523809Y-32452380D02*
X175523809Y-31452380D01*
X175428571Y-31595238D01*
X175333333Y-31690476D01*
X175238095Y-31738095D01*
X176238095Y-32357142D02*
X176285714Y-32404761D01*
X176238095Y-32452380D01*
X176190476Y-32404761D01*
X176238095Y-32357142D01*
X176238095Y-32452380D01*
X176904761Y-31452380D02*
X177000000Y-31452380D01*
X177095238Y-31500000D01*
X177142857Y-31547619D01*
X177190476Y-31642857D01*
X177238095Y-31833333D01*
X177238095Y-32071428D01*
X177190476Y-32261904D01*
X177142857Y-32357142D01*
X177095238Y-32404761D01*
X177000000Y-32452380D01*
X176904761Y-32452380D01*
X176809523Y-32404761D01*
X176761904Y-32357142D01*
X176714285Y-32261904D01*
X176666666Y-32071428D01*
X176666666Y-31833333D01*
X176714285Y-31642857D01*
X176761904Y-31547619D01*
X176809523Y-31500000D01*
X176904761Y-31452380D01*
%TO.C,SW7*%
X158666666Y-100404761D02*
X158809523Y-100452380D01*
X159047619Y-100452380D01*
X159142857Y-100404761D01*
X159190476Y-100357142D01*
X159238095Y-100261904D01*
X159238095Y-100166666D01*
X159190476Y-100071428D01*
X159142857Y-100023809D01*
X159047619Y-99976190D01*
X158857142Y-99928571D01*
X158761904Y-99880952D01*
X158714285Y-99833333D01*
X158666666Y-99738095D01*
X158666666Y-99642857D01*
X158714285Y-99547619D01*
X158761904Y-99500000D01*
X158857142Y-99452380D01*
X159095238Y-99452380D01*
X159238095Y-99500000D01*
X159571428Y-99452380D02*
X159809523Y-100452380D01*
X160000000Y-99738095D01*
X160190476Y-100452380D01*
X160428571Y-99452380D01*
X160714285Y-99452380D02*
X161380952Y-99452380D01*
X160952380Y-100452380D01*
%TO.C,SW6*%
X148666666Y-108704761D02*
X148809523Y-108752380D01*
X149047619Y-108752380D01*
X149142857Y-108704761D01*
X149190476Y-108657142D01*
X149238095Y-108561904D01*
X149238095Y-108466666D01*
X149190476Y-108371428D01*
X149142857Y-108323809D01*
X149047619Y-108276190D01*
X148857142Y-108228571D01*
X148761904Y-108180952D01*
X148714285Y-108133333D01*
X148666666Y-108038095D01*
X148666666Y-107942857D01*
X148714285Y-107847619D01*
X148761904Y-107800000D01*
X148857142Y-107752380D01*
X149095238Y-107752380D01*
X149238095Y-107800000D01*
X149571428Y-107752380D02*
X149809523Y-108752380D01*
X150000000Y-108038095D01*
X150190476Y-108752380D01*
X150428571Y-107752380D01*
X151238095Y-107752380D02*
X151047619Y-107752380D01*
X150952380Y-107800000D01*
X150904761Y-107847619D01*
X150809523Y-107990476D01*
X150761904Y-108180952D01*
X150761904Y-108561904D01*
X150809523Y-108657142D01*
X150857142Y-108704761D01*
X150952380Y-108752380D01*
X151142857Y-108752380D01*
X151238095Y-108704761D01*
X151285714Y-108657142D01*
X151333333Y-108561904D01*
X151333333Y-108323809D01*
X151285714Y-108228571D01*
X151238095Y-108180952D01*
X151142857Y-108133333D01*
X150952380Y-108133333D01*
X150857142Y-108180952D01*
X150809523Y-108228571D01*
X150761904Y-108323809D01*
%TO.C,SW5*%
X148666666Y-92404761D02*
X148809523Y-92452380D01*
X149047619Y-92452380D01*
X149142857Y-92404761D01*
X149190476Y-92357142D01*
X149238095Y-92261904D01*
X149238095Y-92166666D01*
X149190476Y-92071428D01*
X149142857Y-92023809D01*
X149047619Y-91976190D01*
X148857142Y-91928571D01*
X148761904Y-91880952D01*
X148714285Y-91833333D01*
X148666666Y-91738095D01*
X148666666Y-91642857D01*
X148714285Y-91547619D01*
X148761904Y-91500000D01*
X148857142Y-91452380D01*
X149095238Y-91452380D01*
X149238095Y-91500000D01*
X149571428Y-91452380D02*
X149809523Y-92452380D01*
X150000000Y-91738095D01*
X150190476Y-92452380D01*
X150428571Y-91452380D01*
X151285714Y-91452380D02*
X150809523Y-91452380D01*
X150761904Y-91928571D01*
X150809523Y-91880952D01*
X150904761Y-91833333D01*
X151142857Y-91833333D01*
X151238095Y-91880952D01*
X151285714Y-91928571D01*
X151333333Y-92023809D01*
X151333333Y-92261904D01*
X151285714Y-92357142D01*
X151238095Y-92404761D01*
X151142857Y-92452380D01*
X150904761Y-92452380D01*
X150809523Y-92404761D01*
X150761904Y-92357142D01*
%TO.C,SW4*%
X137666666Y-100404761D02*
X137809523Y-100452380D01*
X138047619Y-100452380D01*
X138142857Y-100404761D01*
X138190476Y-100357142D01*
X138238095Y-100261904D01*
X138238095Y-100166666D01*
X138190476Y-100071428D01*
X138142857Y-100023809D01*
X138047619Y-99976190D01*
X137857142Y-99928571D01*
X137761904Y-99880952D01*
X137714285Y-99833333D01*
X137666666Y-99738095D01*
X137666666Y-99642857D01*
X137714285Y-99547619D01*
X137761904Y-99500000D01*
X137857142Y-99452380D01*
X138095238Y-99452380D01*
X138238095Y-99500000D01*
X138571428Y-99452380D02*
X138809523Y-100452380D01*
X139000000Y-99738095D01*
X139190476Y-100452380D01*
X139428571Y-99452380D01*
X140238095Y-99785714D02*
X140238095Y-100452380D01*
X140000000Y-99404761D02*
X139761904Y-100119047D01*
X140380952Y-100119047D01*
%TO.C,SW3*%
X123666666Y-107404761D02*
X123809523Y-107452380D01*
X124047619Y-107452380D01*
X124142857Y-107404761D01*
X124190476Y-107357142D01*
X124238095Y-107261904D01*
X124238095Y-107166666D01*
X124190476Y-107071428D01*
X124142857Y-107023809D01*
X124047619Y-106976190D01*
X123857142Y-106928571D01*
X123761904Y-106880952D01*
X123714285Y-106833333D01*
X123666666Y-106738095D01*
X123666666Y-106642857D01*
X123714285Y-106547619D01*
X123761904Y-106500000D01*
X123857142Y-106452380D01*
X124095238Y-106452380D01*
X124238095Y-106500000D01*
X124571428Y-106452380D02*
X124809523Y-107452380D01*
X125000000Y-106738095D01*
X125190476Y-107452380D01*
X125428571Y-106452380D01*
X125714285Y-106452380D02*
X126333333Y-106452380D01*
X126000000Y-106833333D01*
X126142857Y-106833333D01*
X126238095Y-106880952D01*
X126285714Y-106928571D01*
X126333333Y-107023809D01*
X126333333Y-107261904D01*
X126285714Y-107357142D01*
X126238095Y-107404761D01*
X126142857Y-107452380D01*
X125857142Y-107452380D01*
X125761904Y-107404761D01*
X125714285Y-107357142D01*
%TO.C,SW2*%
X122666666Y-93404761D02*
X122809523Y-93452380D01*
X123047619Y-93452380D01*
X123142857Y-93404761D01*
X123190476Y-93357142D01*
X123238095Y-93261904D01*
X123238095Y-93166666D01*
X123190476Y-93071428D01*
X123142857Y-93023809D01*
X123047619Y-92976190D01*
X122857142Y-92928571D01*
X122761904Y-92880952D01*
X122714285Y-92833333D01*
X122666666Y-92738095D01*
X122666666Y-92642857D01*
X122714285Y-92547619D01*
X122761904Y-92500000D01*
X122857142Y-92452380D01*
X123095238Y-92452380D01*
X123238095Y-92500000D01*
X123571428Y-92452380D02*
X123809523Y-93452380D01*
X124000000Y-92738095D01*
X124190476Y-93452380D01*
X124428571Y-92452380D01*
X124761904Y-92547619D02*
X124809523Y-92500000D01*
X124904761Y-92452380D01*
X125142857Y-92452380D01*
X125238095Y-92500000D01*
X125285714Y-92547619D01*
X125333333Y-92642857D01*
X125333333Y-92738095D01*
X125285714Y-92880952D01*
X124714285Y-93452380D01*
X125333333Y-93452380D01*
%TO.C,U2*%
X169952380Y-89761904D02*
X170761904Y-89761904D01*
X170857142Y-89714285D01*
X170904761Y-89666666D01*
X170952380Y-89571428D01*
X170952380Y-89380952D01*
X170904761Y-89285714D01*
X170857142Y-89238095D01*
X170761904Y-89190476D01*
X169952380Y-89190476D01*
X170047619Y-88761904D02*
X170000000Y-88714285D01*
X169952380Y-88619047D01*
X169952380Y-88380952D01*
X170000000Y-88285714D01*
X170047619Y-88238095D01*
X170142857Y-88190476D01*
X170238095Y-88190476D01*
X170380952Y-88238095D01*
X170952380Y-88809523D01*
X170952380Y-88190476D01*
%TO.C,R3*%
X167683333Y-41702380D02*
X167350000Y-41226190D01*
X167111904Y-41702380D02*
X167111904Y-40702380D01*
X167492857Y-40702380D01*
X167588095Y-40750000D01*
X167635714Y-40797619D01*
X167683333Y-40892857D01*
X167683333Y-41035714D01*
X167635714Y-41130952D01*
X167588095Y-41178571D01*
X167492857Y-41226190D01*
X167111904Y-41226190D01*
X168016666Y-40702380D02*
X168635714Y-40702380D01*
X168302380Y-41083333D01*
X168445238Y-41083333D01*
X168540476Y-41130952D01*
X168588095Y-41178571D01*
X168635714Y-41273809D01*
X168635714Y-41511904D01*
X168588095Y-41607142D01*
X168540476Y-41654761D01*
X168445238Y-41702380D01*
X168159523Y-41702380D01*
X168064285Y-41654761D01*
X168016666Y-41607142D01*
%TO.C,D1*%
X163711904Y-128442380D02*
X163711904Y-127442380D01*
X163950000Y-127442380D01*
X164092857Y-127490000D01*
X164188095Y-127585238D01*
X164235714Y-127680476D01*
X164283333Y-127870952D01*
X164283333Y-128013809D01*
X164235714Y-128204285D01*
X164188095Y-128299523D01*
X164092857Y-128394761D01*
X163950000Y-128442380D01*
X163711904Y-128442380D01*
X165235714Y-128442380D02*
X164664285Y-128442380D01*
X164950000Y-128442380D02*
X164950000Y-127442380D01*
X164854761Y-127585238D01*
X164759523Y-127680476D01*
X164664285Y-127728095D01*
%TO.C,SW1*%
X176166666Y-36334761D02*
X176309523Y-36382380D01*
X176547619Y-36382380D01*
X176642857Y-36334761D01*
X176690476Y-36287142D01*
X176738095Y-36191904D01*
X176738095Y-36096666D01*
X176690476Y-36001428D01*
X176642857Y-35953809D01*
X176547619Y-35906190D01*
X176357142Y-35858571D01*
X176261904Y-35810952D01*
X176214285Y-35763333D01*
X176166666Y-35668095D01*
X176166666Y-35572857D01*
X176214285Y-35477619D01*
X176261904Y-35430000D01*
X176357142Y-35382380D01*
X176595238Y-35382380D01*
X176738095Y-35430000D01*
X177071428Y-35382380D02*
X177309523Y-36382380D01*
X177500000Y-35668095D01*
X177690476Y-36382380D01*
X177928571Y-35382380D01*
X178833333Y-36382380D02*
X178261904Y-36382380D01*
X178547619Y-36382380D02*
X178547619Y-35382380D01*
X178452380Y-35525238D01*
X178357142Y-35620476D01*
X178261904Y-35668095D01*
%TO.C,J3*%
X123166666Y-141352380D02*
X123166666Y-142066666D01*
X123119047Y-142209523D01*
X123023809Y-142304761D01*
X122880952Y-142352380D01*
X122785714Y-142352380D01*
X123547619Y-141352380D02*
X124166666Y-141352380D01*
X123833333Y-141733333D01*
X123976190Y-141733333D01*
X124071428Y-141780952D01*
X124119047Y-141828571D01*
X124166666Y-141923809D01*
X124166666Y-142161904D01*
X124119047Y-142257142D01*
X124071428Y-142304761D01*
X123976190Y-142352380D01*
X123690476Y-142352380D01*
X123595238Y-142304761D01*
X123547619Y-142257142D01*
%TO.C,R5*%
X126833333Y-104022380D02*
X126500000Y-103546190D01*
X126261904Y-104022380D02*
X126261904Y-103022380D01*
X126642857Y-103022380D01*
X126738095Y-103070000D01*
X126785714Y-103117619D01*
X126833333Y-103212857D01*
X126833333Y-103355714D01*
X126785714Y-103450952D01*
X126738095Y-103498571D01*
X126642857Y-103546190D01*
X126261904Y-103546190D01*
X127738095Y-103022380D02*
X127261904Y-103022380D01*
X127214285Y-103498571D01*
X127261904Y-103450952D01*
X127357142Y-103403333D01*
X127595238Y-103403333D01*
X127690476Y-103450952D01*
X127738095Y-103498571D01*
X127785714Y-103593809D01*
X127785714Y-103831904D01*
X127738095Y-103927142D01*
X127690476Y-103974761D01*
X127595238Y-104022380D01*
X127357142Y-104022380D01*
X127261904Y-103974761D01*
X127214285Y-103927142D01*
%TO.C,R8*%
X144596075Y-109952380D02*
X144262742Y-109476190D01*
X144024646Y-109952380D02*
X144024646Y-108952380D01*
X144405599Y-108952380D01*
X144500837Y-109000000D01*
X144548456Y-109047619D01*
X144596075Y-109142857D01*
X144596075Y-109285714D01*
X144548456Y-109380952D01*
X144500837Y-109428571D01*
X144405599Y-109476190D01*
X144024646Y-109476190D01*
X145167503Y-109380952D02*
X145072265Y-109333333D01*
X145024646Y-109285714D01*
X144977027Y-109190476D01*
X144977027Y-109142857D01*
X145024646Y-109047619D01*
X145072265Y-109000000D01*
X145167503Y-108952380D01*
X145357980Y-108952380D01*
X145453218Y-109000000D01*
X145500837Y-109047619D01*
X145548456Y-109142857D01*
X145548456Y-109190476D01*
X145500837Y-109285714D01*
X145453218Y-109333333D01*
X145357980Y-109380952D01*
X145167503Y-109380952D01*
X145072265Y-109428571D01*
X145024646Y-109476190D01*
X144977027Y-109571428D01*
X144977027Y-109761904D01*
X145024646Y-109857142D01*
X145072265Y-109904761D01*
X145167503Y-109952380D01*
X145357980Y-109952380D01*
X145453218Y-109904761D01*
X145500837Y-109857142D01*
X145548456Y-109761904D01*
X145548456Y-109571428D01*
X145500837Y-109476190D01*
X145453218Y-109428571D01*
X145357980Y-109380952D01*
%TO.C,C8*%
X174848333Y-123357142D02*
X174800714Y-123404761D01*
X174657857Y-123452380D01*
X174562619Y-123452380D01*
X174419761Y-123404761D01*
X174324523Y-123309523D01*
X174276904Y-123214285D01*
X174229285Y-123023809D01*
X174229285Y-122880952D01*
X174276904Y-122690476D01*
X174324523Y-122595238D01*
X174419761Y-122500000D01*
X174562619Y-122452380D01*
X174657857Y-122452380D01*
X174800714Y-122500000D01*
X174848333Y-122547619D01*
X175419761Y-122880952D02*
X175324523Y-122833333D01*
X175276904Y-122785714D01*
X175229285Y-122690476D01*
X175229285Y-122642857D01*
X175276904Y-122547619D01*
X175324523Y-122500000D01*
X175419761Y-122452380D01*
X175610238Y-122452380D01*
X175705476Y-122500000D01*
X175753095Y-122547619D01*
X175800714Y-122642857D01*
X175800714Y-122690476D01*
X175753095Y-122785714D01*
X175705476Y-122833333D01*
X175610238Y-122880952D01*
X175419761Y-122880952D01*
X175324523Y-122928571D01*
X175276904Y-122976190D01*
X175229285Y-123071428D01*
X175229285Y-123261904D01*
X175276904Y-123357142D01*
X175324523Y-123404761D01*
X175419761Y-123452380D01*
X175610238Y-123452380D01*
X175705476Y-123404761D01*
X175753095Y-123357142D01*
X175800714Y-123261904D01*
X175800714Y-123071428D01*
X175753095Y-122976190D01*
X175705476Y-122928571D01*
X175610238Y-122880952D01*
%TO.C,R1*%
X128053333Y-117512380D02*
X127720000Y-117036190D01*
X127481904Y-117512380D02*
X127481904Y-116512380D01*
X127862857Y-116512380D01*
X127958095Y-116560000D01*
X128005714Y-116607619D01*
X128053333Y-116702857D01*
X128053333Y-116845714D01*
X128005714Y-116940952D01*
X127958095Y-116988571D01*
X127862857Y-117036190D01*
X127481904Y-117036190D01*
X129005714Y-117512380D02*
X128434285Y-117512380D01*
X128720000Y-117512380D02*
X128720000Y-116512380D01*
X128624761Y-116655238D01*
X128529523Y-116750476D01*
X128434285Y-116798095D01*
%TO.C,J1*%
X141952380Y-135583333D02*
X142666666Y-135583333D01*
X142809523Y-135630952D01*
X142904761Y-135726190D01*
X142952380Y-135869047D01*
X142952380Y-135964285D01*
X142952380Y-134583333D02*
X142952380Y-135154761D01*
X142952380Y-134869047D02*
X141952380Y-134869047D01*
X142095238Y-134964285D01*
X142190476Y-135059523D01*
X142238095Y-135154761D01*
%TO.C,C4*%
X172833333Y-83644477D02*
X172785714Y-83692096D01*
X172642857Y-83739715D01*
X172547619Y-83739715D01*
X172404761Y-83692096D01*
X172309523Y-83596858D01*
X172261904Y-83501620D01*
X172214285Y-83311144D01*
X172214285Y-83168287D01*
X172261904Y-82977811D01*
X172309523Y-82882573D01*
X172404761Y-82787335D01*
X172547619Y-82739715D01*
X172642857Y-82739715D01*
X172785714Y-82787335D01*
X172833333Y-82834954D01*
X173690476Y-83073049D02*
X173690476Y-83739715D01*
X173452380Y-82692096D02*
X173214285Y-83406382D01*
X173833333Y-83406382D01*
%TO.C,R6*%
X141833333Y-98022380D02*
X141500000Y-97546190D01*
X141261904Y-98022380D02*
X141261904Y-97022380D01*
X141642857Y-97022380D01*
X141738095Y-97070000D01*
X141785714Y-97117619D01*
X141833333Y-97212857D01*
X141833333Y-97355714D01*
X141785714Y-97450952D01*
X141738095Y-97498571D01*
X141642857Y-97546190D01*
X141261904Y-97546190D01*
X142690476Y-97022380D02*
X142500000Y-97022380D01*
X142404761Y-97070000D01*
X142357142Y-97117619D01*
X142261904Y-97260476D01*
X142214285Y-97450952D01*
X142214285Y-97831904D01*
X142261904Y-97927142D01*
X142309523Y-97974761D01*
X142404761Y-98022380D01*
X142595238Y-98022380D01*
X142690476Y-97974761D01*
X142738095Y-97927142D01*
X142785714Y-97831904D01*
X142785714Y-97593809D01*
X142738095Y-97498571D01*
X142690476Y-97450952D01*
X142595238Y-97403333D01*
X142404761Y-97403333D01*
X142309523Y-97450952D01*
X142261904Y-97498571D01*
X142214285Y-97593809D01*
%TO.C,R9*%
X156833333Y-99882380D02*
X156500000Y-99406190D01*
X156261904Y-99882380D02*
X156261904Y-98882380D01*
X156642857Y-98882380D01*
X156738095Y-98930000D01*
X156785714Y-98977619D01*
X156833333Y-99072857D01*
X156833333Y-99215714D01*
X156785714Y-99310952D01*
X156738095Y-99358571D01*
X156642857Y-99406190D01*
X156261904Y-99406190D01*
X157309523Y-99882380D02*
X157500000Y-99882380D01*
X157595238Y-99834761D01*
X157642857Y-99787142D01*
X157738095Y-99644285D01*
X157785714Y-99453809D01*
X157785714Y-99072857D01*
X157738095Y-98977619D01*
X157690476Y-98930000D01*
X157595238Y-98882380D01*
X157404761Y-98882380D01*
X157309523Y-98930000D01*
X157261904Y-98977619D01*
X157214285Y-99072857D01*
X157214285Y-99310952D01*
X157261904Y-99406190D01*
X157309523Y-99453809D01*
X157404761Y-99501428D01*
X157595238Y-99501428D01*
X157690476Y-99453809D01*
X157738095Y-99406190D01*
X157785714Y-99310952D01*
%TO.C,C5*%
X172833333Y-95357142D02*
X172785714Y-95404761D01*
X172642857Y-95452380D01*
X172547619Y-95452380D01*
X172404761Y-95404761D01*
X172309523Y-95309523D01*
X172261904Y-95214285D01*
X172214285Y-95023809D01*
X172214285Y-94880952D01*
X172261904Y-94690476D01*
X172309523Y-94595238D01*
X172404761Y-94500000D01*
X172547619Y-94452380D01*
X172642857Y-94452380D01*
X172785714Y-94500000D01*
X172833333Y-94547619D01*
X173738095Y-94452380D02*
X173261904Y-94452380D01*
X173214285Y-94928571D01*
X173261904Y-94880952D01*
X173357142Y-94833333D01*
X173595238Y-94833333D01*
X173690476Y-94880952D01*
X173738095Y-94928571D01*
X173785714Y-95023809D01*
X173785714Y-95261904D01*
X173738095Y-95357142D01*
X173690476Y-95404761D01*
X173595238Y-95452380D01*
X173357142Y-95452380D01*
X173261904Y-95404761D01*
X173214285Y-95357142D01*
%TO.C,J4*%
X178161666Y-43497380D02*
X178161666Y-44211666D01*
X178114047Y-44354523D01*
X178018809Y-44449761D01*
X177875952Y-44497380D01*
X177780714Y-44497380D01*
X179066428Y-43830714D02*
X179066428Y-44497380D01*
X178828333Y-43449761D02*
X178590238Y-44164047D01*
X179209285Y-44164047D01*
%TO.C,J2*%
X127522380Y-41333333D02*
X128236666Y-41333333D01*
X128379523Y-41380952D01*
X128474761Y-41476190D01*
X128522380Y-41619047D01*
X128522380Y-41714285D01*
X127617619Y-40904761D02*
X127570000Y-40857142D01*
X127522380Y-40761904D01*
X127522380Y-40523809D01*
X127570000Y-40428571D01*
X127617619Y-40380952D01*
X127712857Y-40333333D01*
X127808095Y-40333333D01*
X127950952Y-40380952D01*
X128522380Y-40952380D01*
X128522380Y-40333333D01*
%TO.C,R2*%
X167683333Y-39102380D02*
X167350000Y-38626190D01*
X167111904Y-39102380D02*
X167111904Y-38102380D01*
X167492857Y-38102380D01*
X167588095Y-38150000D01*
X167635714Y-38197619D01*
X167683333Y-38292857D01*
X167683333Y-38435714D01*
X167635714Y-38530952D01*
X167588095Y-38578571D01*
X167492857Y-38626190D01*
X167111904Y-38626190D01*
X168064285Y-38197619D02*
X168111904Y-38150000D01*
X168207142Y-38102380D01*
X168445238Y-38102380D01*
X168540476Y-38150000D01*
X168588095Y-38197619D01*
X168635714Y-38292857D01*
X168635714Y-38388095D01*
X168588095Y-38530952D01*
X168016666Y-39102380D01*
X168635714Y-39102380D01*
%TO.C,C7*%
X175833333Y-121357142D02*
X175785714Y-121404761D01*
X175642857Y-121452380D01*
X175547619Y-121452380D01*
X175404761Y-121404761D01*
X175309523Y-121309523D01*
X175261904Y-121214285D01*
X175214285Y-121023809D01*
X175214285Y-120880952D01*
X175261904Y-120690476D01*
X175309523Y-120595238D01*
X175404761Y-120500000D01*
X175547619Y-120452380D01*
X175642857Y-120452380D01*
X175785714Y-120500000D01*
X175833333Y-120547619D01*
X176166666Y-120452380D02*
X176833333Y-120452380D01*
X176404761Y-121452380D01*
%TO.C,R4*%
X126833333Y-90022380D02*
X126500000Y-89546190D01*
X126261904Y-90022380D02*
X126261904Y-89022380D01*
X126642857Y-89022380D01*
X126738095Y-89070000D01*
X126785714Y-89117619D01*
X126833333Y-89212857D01*
X126833333Y-89355714D01*
X126785714Y-89450952D01*
X126738095Y-89498571D01*
X126642857Y-89546190D01*
X126261904Y-89546190D01*
X127690476Y-89355714D02*
X127690476Y-90022380D01*
X127452380Y-88974761D02*
X127214285Y-89689047D01*
X127833333Y-89689047D01*
%TO.C,U3*%
X163738095Y-117952380D02*
X163738095Y-118761904D01*
X163785714Y-118857142D01*
X163833333Y-118904761D01*
X163928571Y-118952380D01*
X164119047Y-118952380D01*
X164214285Y-118904761D01*
X164261904Y-118857142D01*
X164309523Y-118761904D01*
X164309523Y-117952380D01*
X164690476Y-117952380D02*
X165309523Y-117952380D01*
X164976190Y-118333333D01*
X165119047Y-118333333D01*
X165214285Y-118380952D01*
X165261904Y-118428571D01*
X165309523Y-118523809D01*
X165309523Y-118761904D01*
X165261904Y-118857142D01*
X165214285Y-118904761D01*
X165119047Y-118952380D01*
X164833333Y-118952380D01*
X164738095Y-118904761D01*
X164690476Y-118857142D01*
%TO.C,U1*%
X169332380Y-78481904D02*
X170141904Y-78481904D01*
X170237142Y-78434285D01*
X170284761Y-78386666D01*
X170332380Y-78291428D01*
X170332380Y-78100952D01*
X170284761Y-78005714D01*
X170237142Y-77958095D01*
X170141904Y-77910476D01*
X169332380Y-77910476D01*
X170332380Y-76910476D02*
X170332380Y-77481904D01*
X170332380Y-77196190D02*
X169332380Y-77196190D01*
X169475238Y-77291428D01*
X169570476Y-77386666D01*
X169618095Y-77481904D01*
%TO.C,C1*%
X158057142Y-129166666D02*
X158104761Y-129214285D01*
X158152380Y-129357142D01*
X158152380Y-129452380D01*
X158104761Y-129595238D01*
X158009523Y-129690476D01*
X157914285Y-129738095D01*
X157723809Y-129785714D01*
X157580952Y-129785714D01*
X157390476Y-129738095D01*
X157295238Y-129690476D01*
X157200000Y-129595238D01*
X157152380Y-129452380D01*
X157152380Y-129357142D01*
X157200000Y-129214285D01*
X157247619Y-129166666D01*
X158152380Y-128214285D02*
X158152380Y-128785714D01*
X158152380Y-128500000D02*
X157152380Y-128500000D01*
X157295238Y-128595238D01*
X157390476Y-128690476D01*
X157438095Y-128785714D01*
%TO.C,R7*%
X152833333Y-90022380D02*
X152500000Y-89546190D01*
X152261904Y-90022380D02*
X152261904Y-89022380D01*
X152642857Y-89022380D01*
X152738095Y-89070000D01*
X152785714Y-89117619D01*
X152833333Y-89212857D01*
X152833333Y-89355714D01*
X152785714Y-89450952D01*
X152738095Y-89498571D01*
X152642857Y-89546190D01*
X152261904Y-89546190D01*
X153166666Y-89022380D02*
X153833333Y-89022380D01*
X153404761Y-90022380D01*
%TO.C,C6*%
X127803333Y-48677142D02*
X127755714Y-48724761D01*
X127612857Y-48772380D01*
X127517619Y-48772380D01*
X127374761Y-48724761D01*
X127279523Y-48629523D01*
X127231904Y-48534285D01*
X127184285Y-48343809D01*
X127184285Y-48200952D01*
X127231904Y-48010476D01*
X127279523Y-47915238D01*
X127374761Y-47820000D01*
X127517619Y-47772380D01*
X127612857Y-47772380D01*
X127755714Y-47820000D01*
X127803333Y-47867619D01*
X128660476Y-47772380D02*
X128470000Y-47772380D01*
X128374761Y-47820000D01*
X128327142Y-47867619D01*
X128231904Y-48010476D01*
X128184285Y-48200952D01*
X128184285Y-48581904D01*
X128231904Y-48677142D01*
X128279523Y-48724761D01*
X128374761Y-48772380D01*
X128565238Y-48772380D01*
X128660476Y-48724761D01*
X128708095Y-48677142D01*
X128755714Y-48581904D01*
X128755714Y-48343809D01*
X128708095Y-48248571D01*
X128660476Y-48200952D01*
X128565238Y-48153333D01*
X128374761Y-48153333D01*
X128279523Y-48200952D01*
X128231904Y-48248571D01*
X128184285Y-48343809D01*
%TO.C,C2*%
X127833333Y-120427142D02*
X127785714Y-120474761D01*
X127642857Y-120522380D01*
X127547619Y-120522380D01*
X127404761Y-120474761D01*
X127309523Y-120379523D01*
X127261904Y-120284285D01*
X127214285Y-120093809D01*
X127214285Y-119950952D01*
X127261904Y-119760476D01*
X127309523Y-119665238D01*
X127404761Y-119570000D01*
X127547619Y-119522380D01*
X127642857Y-119522380D01*
X127785714Y-119570000D01*
X127833333Y-119617619D01*
X128214285Y-119617619D02*
X128261904Y-119570000D01*
X128357142Y-119522380D01*
X128595238Y-119522380D01*
X128690476Y-119570000D01*
X128738095Y-119617619D01*
X128785714Y-119712857D01*
X128785714Y-119808095D01*
X128738095Y-119950952D01*
X128166666Y-120522380D01*
X128785714Y-120522380D01*
%TO.C,C3*%
X129703333Y-49832142D02*
X129655714Y-49879761D01*
X129512857Y-49927380D01*
X129417619Y-49927380D01*
X129274761Y-49879761D01*
X129179523Y-49784523D01*
X129131904Y-49689285D01*
X129084285Y-49498809D01*
X129084285Y-49355952D01*
X129131904Y-49165476D01*
X129179523Y-49070238D01*
X129274761Y-48975000D01*
X129417619Y-48927380D01*
X129512857Y-48927380D01*
X129655714Y-48975000D01*
X129703333Y-49022619D01*
X130036666Y-48927380D02*
X130655714Y-48927380D01*
X130322380Y-49308333D01*
X130465238Y-49308333D01*
X130560476Y-49355952D01*
X130608095Y-49403571D01*
X130655714Y-49498809D01*
X130655714Y-49736904D01*
X130608095Y-49832142D01*
X130560476Y-49879761D01*
X130465238Y-49927380D01*
X130179523Y-49927380D01*
X130084285Y-49879761D01*
X130036666Y-49832142D01*
D11*
%TO.C,SW7*%
X157990000Y-106990000D02*
X161990000Y-106990000D01*
X158000000Y-101000000D02*
X162000000Y-101000000D01*
%TO.C,SW6*%
X147990000Y-115990000D02*
X151990000Y-115990000D01*
X148000000Y-110000000D02*
X152000000Y-110000000D01*
%TO.C,SW5*%
X147990000Y-98990000D02*
X151990000Y-98990000D01*
X148000000Y-93000000D02*
X152000000Y-93000000D01*
%TO.C,SW4*%
X136990000Y-106990000D02*
X140990000Y-106990000D01*
X137000000Y-101000000D02*
X141000000Y-101000000D01*
%TO.C,SW3*%
X122990000Y-113990000D02*
X126990000Y-113990000D01*
X123000000Y-108000000D02*
X127000000Y-108000000D01*
%TO.C,SW2*%
X121990000Y-99990000D02*
X125990000Y-99990000D01*
X122000000Y-94000000D02*
X126000000Y-94000000D01*
%TO.C,U2*%
X171275000Y-91725000D02*
X171535000Y-91725000D01*
X176725000Y-91725000D02*
X176465000Y-91725000D01*
X171275000Y-89000000D02*
X171275000Y-86275000D01*
X176725000Y-86275000D02*
X176465000Y-86275000D01*
X176725000Y-89000000D02*
X176725000Y-91725000D01*
X171275000Y-86275000D02*
X171535000Y-86275000D01*
X176465000Y-86275000D02*
X176465000Y-84600000D01*
X176725000Y-89000000D02*
X176725000Y-86275000D01*
X171275000Y-89000000D02*
X171275000Y-91725000D01*
%TO.C,R3*%
X170162742Y-41772500D02*
X170637258Y-41772500D01*
X170162742Y-40727500D02*
X170637258Y-40727500D01*
%TO.C,D1*%
X161050000Y-128840000D02*
X161050000Y-132140000D01*
X161050000Y-132140000D02*
X166450000Y-132140000D01*
X161050000Y-128840000D02*
X166450000Y-128840000D01*
%TO.C,SW1*%
X174340000Y-43071000D02*
X180660000Y-43071000D01*
X180660000Y-41331000D02*
X180660000Y-43071000D01*
X174340000Y-36930000D02*
X180660000Y-36930000D01*
X174340000Y-41331000D02*
X174340000Y-43071000D01*
X172300000Y-37879000D02*
X174340000Y-37879000D01*
X180660000Y-36930000D02*
X180660000Y-38669000D01*
X174340000Y-36930000D02*
X174340000Y-37879000D01*
%TO.C,J3*%
X120400000Y-123400000D02*
X126600000Y-123400000D01*
X126600000Y-134300000D02*
X128600000Y-134300000D01*
X126600000Y-138100000D02*
X126100000Y-138100000D01*
X126600000Y-136900000D02*
X126600000Y-138100000D01*
X126100000Y-138100000D02*
X126100000Y-140600000D01*
X120900000Y-138100000D02*
X120400000Y-138100000D01*
X120400000Y-132300000D02*
X120400000Y-123400000D01*
X120900000Y-140600000D02*
X120900000Y-138100000D01*
X126600000Y-123400000D02*
X126600000Y-124600000D01*
X120400000Y-138100000D02*
X120400000Y-134900000D01*
X126600000Y-127800000D02*
X126600000Y-134300000D01*
X126600000Y-136900000D02*
X128600000Y-136900000D01*
X126100000Y-140600000D02*
X120900000Y-140600000D01*
%TO.C,R5*%
X126762742Y-105522500D02*
X127237258Y-105522500D01*
X126762742Y-104477500D02*
X127237258Y-104477500D01*
%TO.C,R8*%
X144762742Y-107477500D02*
X145237258Y-107477500D01*
X144762742Y-108522500D02*
X145237258Y-108522500D01*
%TO.C,C8*%
X171859420Y-122490000D02*
X172140580Y-122490000D01*
X171859420Y-123510000D02*
X172140580Y-123510000D01*
%TO.C,R1*%
X128237258Y-117977500D02*
X127762742Y-117977500D01*
X128237258Y-119022500D02*
X127762742Y-119022500D01*
%TO.C,J1*%
X141350000Y-131600000D02*
X141350000Y-140600000D01*
X131910000Y-125760000D02*
X133650000Y-125760000D01*
X141350000Y-140600000D02*
X132150000Y-140600000D01*
X132150000Y-126000000D02*
X134950000Y-126000000D01*
X132150000Y-140600000D02*
X132150000Y-126000000D01*
X138550000Y-126000000D02*
X141350000Y-126000000D01*
X131910000Y-127500000D02*
X131910000Y-125760000D01*
X141350000Y-126000000D02*
X141350000Y-128000000D01*
%TO.C,C4*%
X176084420Y-82777335D02*
X176365580Y-82777335D01*
X176084420Y-83797335D02*
X176365580Y-83797335D01*
%TO.C,R6*%
X141762742Y-98477500D02*
X142237258Y-98477500D01*
X141762742Y-99522500D02*
X142237258Y-99522500D01*
%TO.C,R9*%
X157237258Y-97477500D02*
X156762742Y-97477500D01*
X157237258Y-98522500D02*
X156762742Y-98522500D01*
%TO.C,C5*%
X175859420Y-95510000D02*
X176140580Y-95510000D01*
X175859420Y-94490000D02*
X176140580Y-94490000D01*
%TO.C,J4*%
X180995000Y-47645000D02*
X180995000Y-45045000D01*
X180995000Y-45045000D02*
X183595000Y-45045000D01*
X183595000Y-45045000D02*
X183595000Y-95965000D01*
X178395000Y-45045000D02*
X179725000Y-45045000D01*
X178395000Y-47645000D02*
X180995000Y-47645000D01*
X178395000Y-47645000D02*
X178395000Y-95965000D01*
X178395000Y-46375000D02*
X178395000Y-45045000D01*
X178395000Y-95965000D02*
X183595000Y-95965000D01*
%TO.C,J2*%
X154930000Y-43770000D02*
X154930000Y-38230001D01*
D12*
X165990000Y-36530000D02*
X165990000Y-88530000D01*
D11*
X129430000Y-41923333D02*
X129070000Y-41923333D01*
X129070000Y-43769999D02*
X154930000Y-43770000D01*
D13*
X118000000Y-36480000D02*
X166000000Y-36480000D01*
D11*
X129070000Y-38230000D02*
X129070000Y-40076667D01*
D13*
X118000000Y-88500000D02*
X166000000Y-88500000D01*
D11*
X129070000Y-41923333D02*
X129070000Y-43769999D01*
X129430000Y-40076667D02*
X129430000Y-41923333D01*
X129070000Y-40076667D02*
X129430000Y-40076667D01*
X154930000Y-38230001D02*
X129070000Y-38230000D01*
D12*
X118000000Y-36480000D02*
X118000000Y-88480000D01*
D11*
%TO.C,R2*%
X170162742Y-39222500D02*
X170637258Y-39222500D01*
X170162742Y-38177500D02*
X170637258Y-38177500D01*
%TO.C,C7*%
X171813748Y-119880000D02*
X173236252Y-119880000D01*
X171813748Y-121700000D02*
X173236252Y-121700000D01*
%TO.C,R4*%
X126762742Y-90477500D02*
X127237258Y-90477500D01*
X126762742Y-91522500D02*
X127237258Y-91522500D01*
%TO.C,U3*%
X162030000Y-119820000D02*
X159200000Y-119820000D01*
X163530000Y-126450000D02*
X162030000Y-126450000D01*
X162030000Y-119550000D02*
X162030000Y-119820000D01*
X163530000Y-119550000D02*
X162030000Y-119550000D01*
X162030000Y-126450000D02*
X162030000Y-126180000D01*
X162030000Y-126180000D02*
X160930000Y-126180000D01*
%TO.C,U1*%
X176605000Y-77720000D02*
X176605000Y-80445000D01*
X176605000Y-80445000D02*
X176345000Y-80445000D01*
X171155000Y-74995000D02*
X171415000Y-74995000D01*
X176605000Y-74995000D02*
X176345000Y-74995000D01*
X171155000Y-77720000D02*
X171155000Y-74995000D01*
X171155000Y-77720000D02*
X171155000Y-80445000D01*
X171155000Y-80445000D02*
X171415000Y-80445000D01*
X176345000Y-74995000D02*
X176345000Y-73320000D01*
X176605000Y-77720000D02*
X176605000Y-74995000D01*
%TO.C,C1*%
X147304437Y-123740000D02*
X149990000Y-123740000D01*
X154260000Y-122250000D02*
X154260000Y-123500000D01*
X155695563Y-123740000D02*
X153010000Y-123740000D01*
X156760000Y-134260000D02*
X153010000Y-134260000D01*
X146240000Y-124804437D02*
X146240000Y-134260000D01*
X146240000Y-134260000D02*
X149990000Y-134260000D01*
X154885000Y-122875000D02*
X153635000Y-122875000D01*
X147304437Y-123740000D02*
X146240000Y-124804437D01*
X156760000Y-124804437D02*
X156760000Y-134260000D01*
X155695563Y-123740000D02*
X156760000Y-124804437D01*
%TO.C,R7*%
X152762742Y-91522500D02*
X153237258Y-91522500D01*
X152762742Y-90477500D02*
X153237258Y-90477500D01*
%TO.C,C6*%
X128510000Y-45859420D02*
X128510000Y-46140580D01*
X127490000Y-45859420D02*
X127490000Y-46140580D01*
%TO.C,C2*%
X127859420Y-122010000D02*
X128140580Y-122010000D01*
X127859420Y-120990000D02*
X128140580Y-120990000D01*
%TO.C,C3*%
X130910000Y-45763748D02*
X130910000Y-47186252D01*
X129090000Y-45763748D02*
X129090000Y-47186252D01*
%TD*%
M02*
