%TF.GenerationSoftware,KiCad,Pcbnew,6.0.2+dfsg-1*%
%TF.CreationDate,2025-01-19T18:01:40+11:00*%
%TF.ProjectId,OLED_DEV_BOARD,4f4c4544-5f44-4455-965f-424f4152442e,rev?*%
%TF.SameCoordinates,Original*%
%TF.FileFunction,Soldermask,Bot*%
%TF.FilePolarity,Negative*%
%FSLAX46Y46*%
G04 Gerber Fmt 4.6, Leading zero omitted, Abs format (unit mm)*
G04 Created by KiCad (PCBNEW 6.0.2+dfsg-1) date 2025-01-19 18:01:40*
%MOMM*%
%LPD*%
G01*
G04 APERTURE LIST*
%ADD10C,1.800000*%
%ADD11C,1.700000*%
%ADD12R,2.600000X2.600000*%
%ADD13C,2.600000*%
%ADD14R,1.700000X1.700000*%
%ADD15O,1.700000X1.700000*%
%ADD16C,5.500000*%
%ADD17R,1.800000X1.800000*%
G04 APERTURE END LIST*
D10*
%TO.C,SW7*%
X156750000Y-101750000D03*
X163250000Y-101750000D03*
X156750000Y-106250000D03*
X163250000Y-106250000D03*
%TD*%
%TO.C,SW6*%
X146750000Y-110750000D03*
X153250000Y-110750000D03*
X146750000Y-115250000D03*
X153250000Y-115250000D03*
%TD*%
%TO.C,SW5*%
X146750000Y-93750000D03*
X153250000Y-93750000D03*
X146750000Y-98250000D03*
X153250000Y-98250000D03*
%TD*%
%TO.C,SW4*%
X135750000Y-101750000D03*
X142250000Y-101750000D03*
X135750000Y-106250000D03*
X142250000Y-106250000D03*
%TD*%
%TO.C,SW3*%
X121750000Y-108750000D03*
X128250000Y-108750000D03*
X121750000Y-113250000D03*
X128250000Y-113250000D03*
%TD*%
%TO.C,SW2*%
X120750000Y-94750000D03*
X127250000Y-94750000D03*
X120750000Y-99250000D03*
X127250000Y-99250000D03*
%TD*%
D11*
%TO.C,J3*%
X123500000Y-127500000D03*
X123500000Y-134500000D03*
%TD*%
D12*
%TO.C,J1*%
X136750000Y-126800000D03*
D13*
X136750000Y-132800000D03*
X141450000Y-129800000D03*
%TD*%
D14*
%TO.C,J4*%
X179725000Y-46375000D03*
D15*
X182265000Y-46375000D03*
X179725000Y-48915000D03*
X182265000Y-48915000D03*
X179725000Y-51455000D03*
X182265000Y-51455000D03*
X179725000Y-53995000D03*
X182265000Y-53995000D03*
X179725000Y-56535000D03*
X182265000Y-56535000D03*
X179725000Y-59075000D03*
X182265000Y-59075000D03*
X179725000Y-61615000D03*
X182265000Y-61615000D03*
X179725000Y-64155000D03*
X182265000Y-64155000D03*
X179725000Y-66695000D03*
X182265000Y-66695000D03*
X179725000Y-69235000D03*
X182265000Y-69235000D03*
X179725000Y-71775000D03*
X182265000Y-71775000D03*
X179725000Y-74315000D03*
X182265000Y-74315000D03*
X179725000Y-76855000D03*
X182265000Y-76855000D03*
X179725000Y-79395000D03*
X182265000Y-79395000D03*
X179725000Y-81935000D03*
X182265000Y-81935000D03*
X179725000Y-84475000D03*
X182265000Y-84475000D03*
X179725000Y-87015000D03*
X182265000Y-87015000D03*
X179725000Y-89555000D03*
X182265000Y-89555000D03*
X179725000Y-92095000D03*
X182265000Y-92095000D03*
X179725000Y-94635000D03*
X182265000Y-94635000D03*
%TD*%
D16*
%TO.C,J2*%
X121500000Y-39980000D03*
X162500000Y-39980000D03*
X121500000Y-85000000D03*
X162500000Y-85000000D03*
D17*
X130570000Y-39730000D03*
D10*
X130570000Y-42270000D03*
X133110000Y-39730000D03*
X133110000Y-42270000D03*
X135650000Y-39730000D03*
X135650000Y-42270000D03*
X138190000Y-39730000D03*
X138190000Y-42270000D03*
X140730000Y-39730000D03*
X140730000Y-42270000D03*
X143270000Y-39730000D03*
X143270000Y-42270000D03*
X145810000Y-39730000D03*
X145810000Y-42270000D03*
X148350000Y-39730000D03*
X148350000Y-42270000D03*
X150890000Y-39730000D03*
X150890000Y-42270000D03*
X153430000Y-39730000D03*
X153430000Y-42270000D03*
%TD*%
M02*
