%TF.GenerationSoftware,KiCad,Pcbnew,6.0.2+dfsg-1*%
%TF.CreationDate,2025-01-19T18:01:40+11:00*%
%TF.ProjectId,OLED_DEV_BOARD,4f4c4544-5f44-4455-965f-424f4152442e,rev?*%
%TF.SameCoordinates,Original*%
%TF.FileFunction,Copper,L2,Bot*%
%TF.FilePolarity,Positive*%
%FSLAX46Y46*%
G04 Gerber Fmt 4.6, Leading zero omitted, Abs format (unit mm)*
G04 Created by KiCad (PCBNEW 6.0.2+dfsg-1) date 2025-01-19 18:01:40*
%MOMM*%
%LPD*%
G01*
G04 APERTURE LIST*
%TA.AperFunction,ComponentPad*%
%ADD10C,1.800000*%
%TD*%
%TA.AperFunction,ComponentPad*%
%ADD11R,2.600000X2.600000*%
%TD*%
%TA.AperFunction,ComponentPad*%
%ADD12C,2.600000*%
%TD*%
%TA.AperFunction,ComponentPad*%
%ADD13R,1.700000X1.700000*%
%TD*%
%TA.AperFunction,ComponentPad*%
%ADD14O,1.700000X1.700000*%
%TD*%
%TA.AperFunction,ComponentPad*%
%ADD15C,5.500000*%
%TD*%
%TA.AperFunction,ComponentPad*%
%ADD16R,1.800000X1.800000*%
%TD*%
%TA.AperFunction,ViaPad*%
%ADD17C,0.800000*%
%TD*%
G04 APERTURE END LIST*
D10*
%TO.P,SW7,1,1*%
%TO.N,/RIGHT_BUTTON*%
X156750000Y-101750000D03*
%TO.P,SW7,2,2*%
X163250000Y-101750000D03*
%TO.P,SW7,3,K*%
%TO.N,+3V3*%
X156750000Y-106250000D03*
%TO.P,SW7,4,A*%
X163250000Y-106250000D03*
%TD*%
%TO.P,SW6,1,1*%
%TO.N,/DOWN_BUTTON*%
X146750000Y-110750000D03*
%TO.P,SW6,2,2*%
X153250000Y-110750000D03*
%TO.P,SW6,3,K*%
%TO.N,+3V3*%
X146750000Y-115250000D03*
%TO.P,SW6,4,A*%
X153250000Y-115250000D03*
%TD*%
%TO.P,SW5,1,1*%
%TO.N,/UP_BUTTON*%
X146750000Y-93750000D03*
%TO.P,SW5,2,2*%
X153250000Y-93750000D03*
%TO.P,SW5,3,K*%
%TO.N,+3V3*%
X146750000Y-98250000D03*
%TO.P,SW5,4,A*%
X153250000Y-98250000D03*
%TD*%
%TO.P,SW4,1,1*%
%TO.N,/LEFT_BUTTON*%
X135750000Y-101750000D03*
%TO.P,SW4,2,2*%
X142250000Y-101750000D03*
%TO.P,SW4,3,K*%
%TO.N,+3V3*%
X135750000Y-106250000D03*
%TO.P,SW4,4,A*%
X142250000Y-106250000D03*
%TD*%
%TO.P,SW3,1,1*%
%TO.N,/B_BUTTON*%
X121750000Y-108750000D03*
%TO.P,SW3,2,2*%
X128250000Y-108750000D03*
%TO.P,SW3,3,K*%
%TO.N,+3V3*%
X121750000Y-113250000D03*
%TO.P,SW3,4,A*%
X128250000Y-113250000D03*
%TD*%
%TO.P,SW2,1,1*%
%TO.N,/A_BUTTON*%
X120750000Y-94750000D03*
%TO.P,SW2,2,2*%
X127250000Y-94750000D03*
%TO.P,SW2,3,K*%
%TO.N,+3V3*%
X120750000Y-99250000D03*
%TO.P,SW2,4,A*%
X127250000Y-99250000D03*
%TD*%
D11*
%TO.P,J1,1*%
%TO.N,Net-(C1-Pad1)*%
X136750000Y-126800000D03*
D12*
%TO.P,J1,2*%
%TO.N,GND*%
X136750000Y-132800000D03*
%TO.P,J1,3*%
%TO.N,N/C*%
X141450000Y-129800000D03*
%TD*%
D13*
%TO.P,J4,1,Pin_1*%
%TO.N,GND*%
X179725000Y-46375000D03*
D14*
%TO.P,J4,2,Pin_2*%
X182265000Y-46375000D03*
%TO.P,J4,3,Pin_3*%
%TO.N,/BS2*%
X179725000Y-48915000D03*
%TO.P,J4,4,Pin_4*%
%TO.N,/BS1*%
X182265000Y-48915000D03*
%TO.P,J4,5,Pin_5*%
%TO.N,/RES#*%
X179725000Y-51455000D03*
%TO.P,J4,6,Pin_6*%
%TO.N,/CS#*%
X182265000Y-51455000D03*
%TO.P,J4,7,Pin_7*%
%TO.N,/DB7*%
X179725000Y-53995000D03*
%TO.P,J4,8,Pin_8*%
%TO.N,/DB6*%
X182265000Y-53995000D03*
%TO.P,J4,9,Pin_9*%
%TO.N,/DB5*%
X179725000Y-56535000D03*
%TO.P,J4,10,Pin_10*%
%TO.N,/DB4*%
X182265000Y-56535000D03*
%TO.P,J4,11,Pin_11*%
%TO.N,/DB3*%
X179725000Y-59075000D03*
%TO.P,J4,12,Pin_12*%
%TO.N,/DB2*%
X182265000Y-59075000D03*
%TO.P,J4,13,Pin_13*%
%TO.N,/DB1*%
X179725000Y-61615000D03*
%TO.P,J4,14,Pin_14*%
%TO.N,/DB0*%
X182265000Y-61615000D03*
%TO.P,J4,15,Pin_15*%
%TO.N,/E*%
X179725000Y-64155000D03*
%TO.P,J4,16,Pin_16*%
%TO.N,/R{slash}W#*%
X182265000Y-64155000D03*
%TO.P,J4,17,Pin_17*%
%TO.N,/PWM*%
X179725000Y-66695000D03*
%TO.P,J4,18,Pin_18*%
%TO.N,/D{slash}C#*%
X182265000Y-66695000D03*
%TO.P,J4,19,Pin_19*%
%TO.N,/B_BUTTON*%
X179725000Y-69235000D03*
%TO.P,J4,20,Pin_20*%
%TO.N,/A_BUTTON*%
X182265000Y-69235000D03*
%TO.P,J4,21,Pin_21*%
%TO.N,/DOWN_BUTTON*%
X179725000Y-71775000D03*
%TO.P,J4,22,Pin_22*%
%TO.N,/LEFT_BUTTON*%
X182265000Y-71775000D03*
%TO.P,J4,23,Pin_23*%
%TO.N,/RIGHT_BUTTON*%
X179725000Y-74315000D03*
%TO.P,J4,24,Pin_24*%
%TO.N,/UP_BUTTON*%
X182265000Y-74315000D03*
%TO.P,J4,25,Pin_25*%
%TO.N,/PSRAM_D1*%
X179725000Y-76855000D03*
%TO.P,J4,26,Pin_26*%
%TO.N,/PSRAM_CSb*%
X182265000Y-76855000D03*
%TO.P,J4,27,Pin_27*%
%TO.N,/PSRAM_D0*%
X179725000Y-79395000D03*
%TO.P,J4,28,Pin_28*%
%TO.N,/PSRAM_D2*%
X182265000Y-79395000D03*
%TO.P,J4,29,Pin_29*%
%TO.N,/PSRAM_D3*%
X179725000Y-81935000D03*
%TO.P,J4,30,Pin_30*%
%TO.N,/PSRAM_CLK*%
X182265000Y-81935000D03*
%TO.P,J4,31,Pin_31*%
%TO.N,/FLASH_CSb*%
X179725000Y-84475000D03*
%TO.P,J4,32,Pin_32*%
%TO.N,/FLASH_D1*%
X182265000Y-84475000D03*
%TO.P,J4,33,Pin_33*%
%TO.N,/FLASH_D2*%
X179725000Y-87015000D03*
%TO.P,J4,34,Pin_34*%
%TO.N,/FLASH_D0*%
X182265000Y-87015000D03*
%TO.P,J4,35,Pin_35*%
%TO.N,/FLASH_CLK*%
X179725000Y-89555000D03*
%TO.P,J4,36,Pin_36*%
%TO.N,/FLASH_D3*%
X182265000Y-89555000D03*
%TO.P,J4,37,Pin_37*%
%TO.N,GND*%
X179725000Y-92095000D03*
%TO.P,J4,38,Pin_38*%
X182265000Y-92095000D03*
%TO.P,J4,39,Pin_39*%
X179725000Y-94635000D03*
%TO.P,J4,40,Pin_40*%
X182265000Y-94635000D03*
%TD*%
D15*
%TO.P,J2,0*%
%TO.N,N/C*%
X121500000Y-39980000D03*
X162500000Y-39980000D03*
X121500000Y-85000000D03*
X162500000Y-85000000D03*
D16*
%TO.P,J2,1,Pin_1*%
%TO.N,GND*%
X130570000Y-39730000D03*
D10*
%TO.P,J2,2,Pin_2*%
%TO.N,+3V3*%
X130570000Y-42270000D03*
%TO.P,J2,3,Pin_3*%
%TO.N,unconnected-(J2-Pad3)*%
X133110000Y-39730000D03*
%TO.P,J2,4,Pin_4*%
%TO.N,/D{slash}C#*%
X133110000Y-42270000D03*
%TO.P,J2,5,Pin_5*%
%TO.N,/R{slash}W#*%
X135650000Y-39730000D03*
%TO.P,J2,6,Pin_6*%
%TO.N,/E*%
X135650000Y-42270000D03*
%TO.P,J2,7,Pin_7*%
%TO.N,/DB0*%
X138190000Y-39730000D03*
%TO.P,J2,8,Pin_8*%
%TO.N,/DB1*%
X138190000Y-42270000D03*
%TO.P,J2,9,Pin_9*%
%TO.N,/DB2*%
X140730000Y-39730000D03*
%TO.P,J2,10,Pin_10*%
%TO.N,/DB3*%
X140730000Y-42270000D03*
%TO.P,J2,11,Pin_11*%
%TO.N,/DB4*%
X143270000Y-39730000D03*
%TO.P,J2,12,Pin_12*%
%TO.N,/DB5*%
X143270000Y-42270000D03*
%TO.P,J2,13,Pin_13*%
%TO.N,/DB6*%
X145810000Y-39730000D03*
%TO.P,J2,14,Pin_14*%
%TO.N,/DB7*%
X145810000Y-42270000D03*
%TO.P,J2,15,Pin_15*%
%TO.N,GND*%
X148350000Y-39730000D03*
%TO.P,J2,16,Pin_16*%
%TO.N,/RES#*%
X148350000Y-42270000D03*
%TO.P,J2,17,Pin_17*%
%TO.N,/CS#*%
X150890000Y-39730000D03*
%TO.P,J2,18,Pin_18*%
%TO.N,GND*%
X150890000Y-42270000D03*
%TO.P,J2,19,Pin_19*%
%TO.N,/BS1*%
X153430000Y-39730000D03*
%TO.P,J2,20,Pin_20*%
%TO.N,/BS2*%
X153430000Y-42270000D03*
%TD*%
D17*
%TO.N,GND*%
X177000000Y-97000000D03*
X172000000Y-76000000D03*
X177000000Y-82000000D03*
X172000000Y-88000000D03*
X125000000Y-91000000D03*
X125000000Y-105000000D03*
X147000000Y-108000000D03*
X140000000Y-99000000D03*
X151000000Y-91000000D03*
X159000000Y-98000000D03*
X128000000Y-134000000D03*
X130000000Y-49000000D03*
X128000000Y-48000000D03*
X168000000Y-41000000D03*
X168000000Y-39000000D03*
X175000000Y-121000000D03*
X174000000Y-123000000D03*
X158000000Y-121000000D03*
X152000000Y-130000000D03*
X131000000Y-122000000D03*
%TD*%
%TA.AperFunction,Conductor*%
%TO.N,GND*%
G36*
X184434121Y-30528002D02*
G01*
X184480614Y-30581658D01*
X184492000Y-30634000D01*
X184492000Y-139366000D01*
X184471998Y-139434121D01*
X184418342Y-139480614D01*
X184366000Y-139492000D01*
X115634000Y-139492000D01*
X115565879Y-139471998D01*
X115519386Y-139418342D01*
X115508000Y-139366000D01*
X115508000Y-134435774D01*
X122138102Y-134435774D01*
X122138302Y-134441103D01*
X122138302Y-134441105D01*
X122140980Y-134512445D01*
X122146751Y-134666158D01*
X122194093Y-134891791D01*
X122278776Y-135106221D01*
X122398377Y-135303317D01*
X122401874Y-135307347D01*
X122488438Y-135407103D01*
X122549477Y-135477445D01*
X122553608Y-135480832D01*
X122723627Y-135620240D01*
X122723633Y-135620244D01*
X122727755Y-135623624D01*
X122732391Y-135626263D01*
X122732394Y-135626265D01*
X122841422Y-135688327D01*
X122928114Y-135737675D01*
X123144825Y-135816337D01*
X123150074Y-135817286D01*
X123150077Y-135817287D01*
X123367608Y-135856623D01*
X123367615Y-135856624D01*
X123371692Y-135857361D01*
X123389414Y-135858197D01*
X123394356Y-135858430D01*
X123394363Y-135858430D01*
X123395844Y-135858500D01*
X123557890Y-135858500D01*
X123624809Y-135852822D01*
X123724409Y-135844371D01*
X123724413Y-135844370D01*
X123729720Y-135843920D01*
X123734875Y-135842582D01*
X123734881Y-135842581D01*
X123947703Y-135787343D01*
X123947707Y-135787342D01*
X123952872Y-135786001D01*
X123957738Y-135783809D01*
X123957741Y-135783808D01*
X124158202Y-135693507D01*
X124163075Y-135691312D01*
X124354319Y-135562559D01*
X124521135Y-135403424D01*
X124658754Y-135218458D01*
X124763240Y-135012949D01*
X124799321Y-134896752D01*
X124830024Y-134797871D01*
X124831607Y-134792773D01*
X124832308Y-134787484D01*
X124861198Y-134569511D01*
X124861198Y-134569506D01*
X124861898Y-134564226D01*
X124853249Y-134333842D01*
X124834589Y-134244906D01*
X135669839Y-134244906D01*
X135678553Y-134256427D01*
X135785452Y-134334809D01*
X135793351Y-134339745D01*
X136022905Y-134460519D01*
X136031454Y-134464236D01*
X136276327Y-134549749D01*
X136285336Y-134552163D01*
X136540166Y-134600544D01*
X136549423Y-134601598D01*
X136808607Y-134611783D01*
X136817921Y-134611457D01*
X137075753Y-134583220D01*
X137084930Y-134581519D01*
X137335758Y-134515481D01*
X137344574Y-134512445D01*
X137582880Y-134410062D01*
X137591167Y-134405748D01*
X137811718Y-134269266D01*
X137819268Y-134263780D01*
X137824559Y-134259301D01*
X137832997Y-134246497D01*
X137826935Y-134236145D01*
X136762812Y-133172022D01*
X136748868Y-133164408D01*
X136747035Y-133164539D01*
X136740420Y-133168790D01*
X135676497Y-134232713D01*
X135669839Y-134244906D01*
X124834589Y-134244906D01*
X124805907Y-134108209D01*
X124721224Y-133893779D01*
X124708854Y-133873393D01*
X124604390Y-133701243D01*
X124601623Y-133696683D01*
X124514755Y-133596576D01*
X124454023Y-133526588D01*
X124454021Y-133526586D01*
X124450523Y-133522555D01*
X124408970Y-133488484D01*
X124276373Y-133379760D01*
X124276367Y-133379756D01*
X124272245Y-133376376D01*
X124267609Y-133373737D01*
X124267606Y-133373735D01*
X124076529Y-133264968D01*
X124071886Y-133262325D01*
X123855175Y-133183663D01*
X123849926Y-133182714D01*
X123849923Y-133182713D01*
X123632392Y-133143377D01*
X123632385Y-133143376D01*
X123628308Y-133142639D01*
X123610586Y-133141803D01*
X123605644Y-133141570D01*
X123605637Y-133141570D01*
X123604156Y-133141500D01*
X123442110Y-133141500D01*
X123375191Y-133147178D01*
X123275591Y-133155629D01*
X123275587Y-133155630D01*
X123270280Y-133156080D01*
X123265125Y-133157418D01*
X123265119Y-133157419D01*
X123052297Y-133212657D01*
X123052293Y-133212658D01*
X123047128Y-133213999D01*
X123042262Y-133216191D01*
X123042259Y-133216192D01*
X122933980Y-133264968D01*
X122836925Y-133308688D01*
X122645681Y-133437441D01*
X122478865Y-133596576D01*
X122341246Y-133781542D01*
X122236760Y-133987051D01*
X122235178Y-133992145D01*
X122235177Y-133992148D01*
X122173115Y-134192020D01*
X122168393Y-134207227D01*
X122167692Y-134212516D01*
X122141510Y-134410062D01*
X122138102Y-134435774D01*
X115508000Y-134435774D01*
X115508000Y-132757211D01*
X134937775Y-132757211D01*
X134950220Y-133016288D01*
X134951356Y-133025543D01*
X135001961Y-133279945D01*
X135004449Y-133288917D01*
X135092095Y-133533033D01*
X135095895Y-133541568D01*
X135218658Y-133770042D01*
X135223666Y-133777904D01*
X135293720Y-133871716D01*
X135304979Y-133880165D01*
X135317397Y-133873393D01*
X136377978Y-132812812D01*
X136384356Y-132801132D01*
X137114408Y-132801132D01*
X137114539Y-132802965D01*
X137118790Y-132809580D01*
X138186094Y-133876884D01*
X138198474Y-133883644D01*
X138206815Y-133877400D01*
X138340832Y-133669048D01*
X138345275Y-133660864D01*
X138451807Y-133424370D01*
X138454997Y-133415605D01*
X138525402Y-133165972D01*
X138527262Y-133156830D01*
X138560187Y-132898019D01*
X138560668Y-132891733D01*
X138562987Y-132803160D01*
X138562836Y-132796851D01*
X138543501Y-132536663D01*
X138542125Y-132527457D01*
X138484878Y-132274467D01*
X138482154Y-132265556D01*
X138388143Y-132023806D01*
X138384132Y-132015397D01*
X138255422Y-131790202D01*
X138250211Y-131782476D01*
X138206996Y-131727658D01*
X138195071Y-131719187D01*
X138183537Y-131725673D01*
X137122022Y-132787188D01*
X137114408Y-132801132D01*
X136384356Y-132801132D01*
X136385592Y-132798868D01*
X136385461Y-132797035D01*
X136381210Y-132790420D01*
X135315816Y-131725026D01*
X135302507Y-131717758D01*
X135292472Y-131724878D01*
X135276937Y-131743556D01*
X135271531Y-131751135D01*
X135136965Y-131972891D01*
X135132736Y-131981192D01*
X135032432Y-132220389D01*
X135029471Y-132229239D01*
X134965628Y-132480625D01*
X134964006Y-132489822D01*
X134938020Y-132747885D01*
X134937775Y-132757211D01*
X115508000Y-132757211D01*
X115508000Y-131352689D01*
X135667102Y-131352689D01*
X135671675Y-131362465D01*
X136737188Y-132427978D01*
X136751132Y-132435592D01*
X136752965Y-132435461D01*
X136759580Y-132431210D01*
X137824349Y-131366441D01*
X137830733Y-131354751D01*
X137821321Y-131342641D01*
X137674045Y-131240471D01*
X137666010Y-131235738D01*
X137433376Y-131121016D01*
X137424743Y-131117528D01*
X137177703Y-131038450D01*
X137168643Y-131036274D01*
X136912630Y-130994580D01*
X136903343Y-130993768D01*
X136643992Y-130990373D01*
X136634681Y-130990943D01*
X136377682Y-131025919D01*
X136368546Y-131027860D01*
X136119543Y-131100439D01*
X136110800Y-131103707D01*
X135875252Y-131212296D01*
X135867097Y-131216816D01*
X135676240Y-131341947D01*
X135667102Y-131352689D01*
X115508000Y-131352689D01*
X115508000Y-129752526D01*
X139637050Y-129752526D01*
X139649947Y-130021019D01*
X139702388Y-130284656D01*
X139793220Y-130537646D01*
X139920450Y-130774431D01*
X139923241Y-130778168D01*
X139923245Y-130778175D01*
X140004887Y-130887506D01*
X140081281Y-130989810D01*
X140084590Y-130993090D01*
X140084595Y-130993096D01*
X140213637Y-131121016D01*
X140272180Y-131179050D01*
X140275942Y-131181808D01*
X140275945Y-131181811D01*
X140388299Y-131264192D01*
X140488954Y-131337995D01*
X140493089Y-131340171D01*
X140493093Y-131340173D01*
X140722698Y-131460975D01*
X140726840Y-131463154D01*
X140980613Y-131551775D01*
X140985206Y-131552647D01*
X141240109Y-131601042D01*
X141240112Y-131601042D01*
X141244698Y-131601913D01*
X141372370Y-131606929D01*
X141508625Y-131612283D01*
X141508630Y-131612283D01*
X141513293Y-131612466D01*
X141617607Y-131601042D01*
X141775844Y-131583713D01*
X141775850Y-131583712D01*
X141780497Y-131583203D01*
X141785021Y-131582012D01*
X142035918Y-131515956D01*
X142035920Y-131515955D01*
X142040441Y-131514765D01*
X142044738Y-131512919D01*
X142283120Y-131410502D01*
X142283122Y-131410501D01*
X142287414Y-131408657D01*
X142406071Y-131335230D01*
X142512017Y-131269669D01*
X142512021Y-131269666D01*
X142515990Y-131267210D01*
X142721149Y-131093530D01*
X142898382Y-130891434D01*
X143043797Y-130665361D01*
X143154199Y-130420278D01*
X143191209Y-130289051D01*
X143225893Y-130166072D01*
X143225894Y-130166069D01*
X143227163Y-130161568D01*
X143245043Y-130021019D01*
X143260688Y-129898045D01*
X143260688Y-129898041D01*
X143261086Y-129894915D01*
X143263571Y-129800000D01*
X143243650Y-129531937D01*
X143184327Y-129269763D01*
X143086902Y-129019238D01*
X142953518Y-128785864D01*
X142916966Y-128739497D01*
X142806184Y-128598971D01*
X142787105Y-128574769D01*
X142591317Y-128390591D01*
X142370457Y-128237374D01*
X142366264Y-128235306D01*
X142133564Y-128120551D01*
X142133561Y-128120550D01*
X142129376Y-128118486D01*
X142081745Y-128103239D01*
X142027621Y-128085914D01*
X141873370Y-128036538D01*
X141868763Y-128035788D01*
X141868760Y-128035787D01*
X141612674Y-127994081D01*
X141612675Y-127994081D01*
X141608063Y-127993330D01*
X141477719Y-127991624D01*
X141343961Y-127989873D01*
X141343958Y-127989873D01*
X141339284Y-127989812D01*
X141072937Y-128026060D01*
X140814874Y-128101278D01*
X140570763Y-128213815D01*
X140566854Y-128216378D01*
X140349881Y-128358631D01*
X140349876Y-128358635D01*
X140345968Y-128361197D01*
X140145426Y-128540188D01*
X139973544Y-128746854D01*
X139834096Y-128976656D01*
X139730148Y-129224545D01*
X139663981Y-129485077D01*
X139637050Y-129752526D01*
X115508000Y-129752526D01*
X115508000Y-127435774D01*
X122138102Y-127435774D01*
X122146751Y-127666158D01*
X122194093Y-127891791D01*
X122196051Y-127896750D01*
X122196052Y-127896752D01*
X122251257Y-128036538D01*
X122278776Y-128106221D01*
X122281543Y-128110780D01*
X122281544Y-128110783D01*
X122342878Y-128211858D01*
X122398377Y-128303317D01*
X122401874Y-128307347D01*
X122537169Y-128463261D01*
X122549477Y-128477445D01*
X122553608Y-128480832D01*
X122723627Y-128620240D01*
X122723633Y-128620244D01*
X122727755Y-128623624D01*
X122732391Y-128626263D01*
X122732394Y-128626265D01*
X122841422Y-128688327D01*
X122928114Y-128737675D01*
X123144825Y-128816337D01*
X123150074Y-128817286D01*
X123150077Y-128817287D01*
X123367608Y-128856623D01*
X123367615Y-128856624D01*
X123371692Y-128857361D01*
X123389414Y-128858197D01*
X123394356Y-128858430D01*
X123394363Y-128858430D01*
X123395844Y-128858500D01*
X123557890Y-128858500D01*
X123624809Y-128852822D01*
X123724409Y-128844371D01*
X123724413Y-128844370D01*
X123729720Y-128843920D01*
X123734875Y-128842582D01*
X123734881Y-128842581D01*
X123947703Y-128787343D01*
X123947707Y-128787342D01*
X123952872Y-128786001D01*
X123957738Y-128783809D01*
X123957741Y-128783808D01*
X124158202Y-128693507D01*
X124163075Y-128691312D01*
X124354319Y-128562559D01*
X124363536Y-128553767D01*
X124517278Y-128407103D01*
X124521135Y-128403424D01*
X124658754Y-128218458D01*
X124692782Y-128151531D01*
X124694509Y-128148134D01*
X134941500Y-128148134D01*
X134948255Y-128210316D01*
X134999385Y-128346705D01*
X135086739Y-128463261D01*
X135203295Y-128550615D01*
X135339684Y-128601745D01*
X135401866Y-128608500D01*
X138098134Y-128608500D01*
X138160316Y-128601745D01*
X138296705Y-128550615D01*
X138413261Y-128463261D01*
X138500615Y-128346705D01*
X138551745Y-128210316D01*
X138558500Y-128148134D01*
X138558500Y-125451866D01*
X138551745Y-125389684D01*
X138500615Y-125253295D01*
X138413261Y-125136739D01*
X138296705Y-125049385D01*
X138160316Y-124998255D01*
X138098134Y-124991500D01*
X135401866Y-124991500D01*
X135339684Y-124998255D01*
X135203295Y-125049385D01*
X135086739Y-125136739D01*
X134999385Y-125253295D01*
X134948255Y-125389684D01*
X134941500Y-125451866D01*
X134941500Y-128148134D01*
X124694509Y-128148134D01*
X124750522Y-128037963D01*
X124763240Y-128012949D01*
X124770229Y-127990443D01*
X124830024Y-127797871D01*
X124831607Y-127792773D01*
X124832308Y-127787484D01*
X124861198Y-127569511D01*
X124861198Y-127569506D01*
X124861898Y-127564226D01*
X124853249Y-127333842D01*
X124805907Y-127108209D01*
X124721224Y-126893779D01*
X124601623Y-126696683D01*
X124514755Y-126596576D01*
X124454023Y-126526588D01*
X124454021Y-126526586D01*
X124450523Y-126522555D01*
X124408970Y-126488484D01*
X124276373Y-126379760D01*
X124276367Y-126379756D01*
X124272245Y-126376376D01*
X124267609Y-126373737D01*
X124267606Y-126373735D01*
X124076529Y-126264968D01*
X124071886Y-126262325D01*
X123855175Y-126183663D01*
X123849926Y-126182714D01*
X123849923Y-126182713D01*
X123632392Y-126143377D01*
X123632385Y-126143376D01*
X123628308Y-126142639D01*
X123610586Y-126141803D01*
X123605644Y-126141570D01*
X123605637Y-126141570D01*
X123604156Y-126141500D01*
X123442110Y-126141500D01*
X123375191Y-126147178D01*
X123275591Y-126155629D01*
X123275587Y-126155630D01*
X123270280Y-126156080D01*
X123265125Y-126157418D01*
X123265119Y-126157419D01*
X123052297Y-126212657D01*
X123052293Y-126212658D01*
X123047128Y-126213999D01*
X123042262Y-126216191D01*
X123042259Y-126216192D01*
X122933980Y-126264968D01*
X122836925Y-126308688D01*
X122645681Y-126437441D01*
X122478865Y-126596576D01*
X122341246Y-126781542D01*
X122236760Y-126987051D01*
X122235178Y-126992145D01*
X122235177Y-126992148D01*
X122173115Y-127192020D01*
X122168393Y-127207227D01*
X122167692Y-127212516D01*
X122152304Y-127328623D01*
X122138102Y-127435774D01*
X115508000Y-127435774D01*
X115508000Y-115215469D01*
X145337095Y-115215469D01*
X145337392Y-115220622D01*
X145337392Y-115220625D01*
X145343067Y-115319041D01*
X145350427Y-115446697D01*
X145351564Y-115451743D01*
X145351565Y-115451749D01*
X145383741Y-115594523D01*
X145401346Y-115672642D01*
X145403288Y-115677424D01*
X145403289Y-115677428D01*
X145486540Y-115882450D01*
X145488484Y-115887237D01*
X145609501Y-116084719D01*
X145761147Y-116259784D01*
X145939349Y-116407730D01*
X146139322Y-116524584D01*
X146355694Y-116607209D01*
X146360760Y-116608240D01*
X146360761Y-116608240D01*
X146413846Y-116619040D01*
X146582656Y-116653385D01*
X146713324Y-116658176D01*
X146808949Y-116661683D01*
X146808953Y-116661683D01*
X146814113Y-116661872D01*
X146819233Y-116661216D01*
X146819235Y-116661216D01*
X146892270Y-116651860D01*
X147043847Y-116632442D01*
X147048795Y-116630957D01*
X147048802Y-116630956D01*
X147260747Y-116567369D01*
X147265690Y-116565886D01*
X147346236Y-116526427D01*
X147469049Y-116466262D01*
X147469052Y-116466260D01*
X147473684Y-116463991D01*
X147662243Y-116329494D01*
X147826303Y-116166005D01*
X147961458Y-115977917D01*
X148008641Y-115882450D01*
X148061784Y-115774922D01*
X148061785Y-115774920D01*
X148064078Y-115770280D01*
X148131408Y-115548671D01*
X148161640Y-115319041D01*
X148163327Y-115250000D01*
X148160488Y-115215469D01*
X151837095Y-115215469D01*
X151837392Y-115220622D01*
X151837392Y-115220625D01*
X151843067Y-115319041D01*
X151850427Y-115446697D01*
X151851564Y-115451743D01*
X151851565Y-115451749D01*
X151883741Y-115594523D01*
X151901346Y-115672642D01*
X151903288Y-115677424D01*
X151903289Y-115677428D01*
X151986540Y-115882450D01*
X151988484Y-115887237D01*
X152109501Y-116084719D01*
X152261147Y-116259784D01*
X152439349Y-116407730D01*
X152639322Y-116524584D01*
X152855694Y-116607209D01*
X152860760Y-116608240D01*
X152860761Y-116608240D01*
X152913846Y-116619040D01*
X153082656Y-116653385D01*
X153213324Y-116658176D01*
X153308949Y-116661683D01*
X153308953Y-116661683D01*
X153314113Y-116661872D01*
X153319233Y-116661216D01*
X153319235Y-116661216D01*
X153392270Y-116651860D01*
X153543847Y-116632442D01*
X153548795Y-116630957D01*
X153548802Y-116630956D01*
X153760747Y-116567369D01*
X153765690Y-116565886D01*
X153846236Y-116526427D01*
X153969049Y-116466262D01*
X153969052Y-116466260D01*
X153973684Y-116463991D01*
X154162243Y-116329494D01*
X154326303Y-116166005D01*
X154461458Y-115977917D01*
X154508641Y-115882450D01*
X154561784Y-115774922D01*
X154561785Y-115774920D01*
X154564078Y-115770280D01*
X154631408Y-115548671D01*
X154661640Y-115319041D01*
X154663327Y-115250000D01*
X154657032Y-115173434D01*
X154644773Y-115024318D01*
X154644772Y-115024312D01*
X154644349Y-115019167D01*
X154587925Y-114794533D01*
X154585866Y-114789797D01*
X154497630Y-114586868D01*
X154497628Y-114586865D01*
X154495570Y-114582131D01*
X154369764Y-114387665D01*
X154213887Y-114216358D01*
X154209836Y-114213159D01*
X154209832Y-114213155D01*
X154036177Y-114076011D01*
X154036172Y-114076008D01*
X154032123Y-114072810D01*
X154027607Y-114070317D01*
X154027604Y-114070315D01*
X153833879Y-113963373D01*
X153833875Y-113963371D01*
X153829355Y-113960876D01*
X153824486Y-113959152D01*
X153824482Y-113959150D01*
X153615903Y-113885288D01*
X153615899Y-113885287D01*
X153611028Y-113883562D01*
X153605935Y-113882655D01*
X153605932Y-113882654D01*
X153388095Y-113843851D01*
X153388089Y-113843850D01*
X153383006Y-113842945D01*
X153310096Y-113842054D01*
X153156581Y-113840179D01*
X153156579Y-113840179D01*
X153151411Y-113840116D01*
X152922464Y-113875150D01*
X152702314Y-113947106D01*
X152697726Y-113949494D01*
X152697722Y-113949496D01*
X152643126Y-113977917D01*
X152496872Y-114054052D01*
X152492739Y-114057155D01*
X152492736Y-114057157D01*
X152342906Y-114169653D01*
X152311655Y-114193117D01*
X152151639Y-114360564D01*
X152148725Y-114364836D01*
X152148724Y-114364837D01*
X152117684Y-114410340D01*
X152021119Y-114551899D01*
X151923602Y-114761981D01*
X151861707Y-114985169D01*
X151837095Y-115215469D01*
X148160488Y-115215469D01*
X148157032Y-115173434D01*
X148144773Y-115024318D01*
X148144772Y-115024312D01*
X148144349Y-115019167D01*
X148087925Y-114794533D01*
X148085866Y-114789797D01*
X147997630Y-114586868D01*
X147997628Y-114586865D01*
X147995570Y-114582131D01*
X147869764Y-114387665D01*
X147713887Y-114216358D01*
X147709836Y-114213159D01*
X147709832Y-114213155D01*
X147536177Y-114076011D01*
X147536172Y-114076008D01*
X147532123Y-114072810D01*
X147527607Y-114070317D01*
X147527604Y-114070315D01*
X147333879Y-113963373D01*
X147333875Y-113963371D01*
X147329355Y-113960876D01*
X147324486Y-113959152D01*
X147324482Y-113959150D01*
X147115903Y-113885288D01*
X147115899Y-113885287D01*
X147111028Y-113883562D01*
X147105935Y-113882655D01*
X147105932Y-113882654D01*
X146888095Y-113843851D01*
X146888089Y-113843850D01*
X146883006Y-113842945D01*
X146810096Y-113842054D01*
X146656581Y-113840179D01*
X146656579Y-113840179D01*
X146651411Y-113840116D01*
X146422464Y-113875150D01*
X146202314Y-113947106D01*
X146197726Y-113949494D01*
X146197722Y-113949496D01*
X146143126Y-113977917D01*
X145996872Y-114054052D01*
X145992739Y-114057155D01*
X145992736Y-114057157D01*
X145842906Y-114169653D01*
X145811655Y-114193117D01*
X145651639Y-114360564D01*
X145648725Y-114364836D01*
X145648724Y-114364837D01*
X145617684Y-114410340D01*
X145521119Y-114551899D01*
X145423602Y-114761981D01*
X145361707Y-114985169D01*
X145337095Y-115215469D01*
X115508000Y-115215469D01*
X115508000Y-113215469D01*
X120337095Y-113215469D01*
X120337392Y-113220622D01*
X120337392Y-113220625D01*
X120343067Y-113319041D01*
X120350427Y-113446697D01*
X120351564Y-113451743D01*
X120351565Y-113451749D01*
X120383741Y-113594523D01*
X120401346Y-113672642D01*
X120403288Y-113677424D01*
X120403289Y-113677428D01*
X120486540Y-113882450D01*
X120488484Y-113887237D01*
X120609501Y-114084719D01*
X120761147Y-114259784D01*
X120939349Y-114407730D01*
X121139322Y-114524584D01*
X121355694Y-114607209D01*
X121360760Y-114608240D01*
X121360761Y-114608240D01*
X121413846Y-114619040D01*
X121582656Y-114653385D01*
X121713324Y-114658176D01*
X121808949Y-114661683D01*
X121808953Y-114661683D01*
X121814113Y-114661872D01*
X121819233Y-114661216D01*
X121819235Y-114661216D01*
X121892270Y-114651860D01*
X122043847Y-114632442D01*
X122048795Y-114630957D01*
X122048802Y-114630956D01*
X122260747Y-114567369D01*
X122265690Y-114565886D01*
X122294241Y-114551899D01*
X122469049Y-114466262D01*
X122469052Y-114466260D01*
X122473684Y-114463991D01*
X122662243Y-114329494D01*
X122826303Y-114166005D01*
X122961458Y-113977917D01*
X122975505Y-113949496D01*
X123061784Y-113774922D01*
X123061785Y-113774920D01*
X123064078Y-113770280D01*
X123131408Y-113548671D01*
X123161640Y-113319041D01*
X123163327Y-113250000D01*
X123160488Y-113215469D01*
X126837095Y-113215469D01*
X126837392Y-113220622D01*
X126837392Y-113220625D01*
X126843067Y-113319041D01*
X126850427Y-113446697D01*
X126851564Y-113451743D01*
X126851565Y-113451749D01*
X126883741Y-113594523D01*
X126901346Y-113672642D01*
X126903288Y-113677424D01*
X126903289Y-113677428D01*
X126986540Y-113882450D01*
X126988484Y-113887237D01*
X127109501Y-114084719D01*
X127261147Y-114259784D01*
X127439349Y-114407730D01*
X127639322Y-114524584D01*
X127855694Y-114607209D01*
X127860760Y-114608240D01*
X127860761Y-114608240D01*
X127913846Y-114619040D01*
X128082656Y-114653385D01*
X128213324Y-114658176D01*
X128308949Y-114661683D01*
X128308953Y-114661683D01*
X128314113Y-114661872D01*
X128319233Y-114661216D01*
X128319235Y-114661216D01*
X128392270Y-114651860D01*
X128543847Y-114632442D01*
X128548795Y-114630957D01*
X128548802Y-114630956D01*
X128760747Y-114567369D01*
X128765690Y-114565886D01*
X128794241Y-114551899D01*
X128969049Y-114466262D01*
X128969052Y-114466260D01*
X128973684Y-114463991D01*
X129162243Y-114329494D01*
X129326303Y-114166005D01*
X129461458Y-113977917D01*
X129475505Y-113949496D01*
X129561784Y-113774922D01*
X129561785Y-113774920D01*
X129564078Y-113770280D01*
X129631408Y-113548671D01*
X129661640Y-113319041D01*
X129663327Y-113250000D01*
X129657032Y-113173434D01*
X129644773Y-113024318D01*
X129644772Y-113024312D01*
X129644349Y-113019167D01*
X129587925Y-112794533D01*
X129585866Y-112789797D01*
X129497630Y-112586868D01*
X129497628Y-112586865D01*
X129495570Y-112582131D01*
X129369764Y-112387665D01*
X129213887Y-112216358D01*
X129209836Y-112213159D01*
X129209832Y-112213155D01*
X129036177Y-112076011D01*
X129036172Y-112076008D01*
X129032123Y-112072810D01*
X129027607Y-112070317D01*
X129027604Y-112070315D01*
X128833879Y-111963373D01*
X128833875Y-111963371D01*
X128829355Y-111960876D01*
X128824486Y-111959152D01*
X128824482Y-111959150D01*
X128615903Y-111885288D01*
X128615899Y-111885287D01*
X128611028Y-111883562D01*
X128605935Y-111882655D01*
X128605932Y-111882654D01*
X128388095Y-111843851D01*
X128388089Y-111843850D01*
X128383006Y-111842945D01*
X128310096Y-111842054D01*
X128156581Y-111840179D01*
X128156579Y-111840179D01*
X128151411Y-111840116D01*
X127922464Y-111875150D01*
X127702314Y-111947106D01*
X127697726Y-111949494D01*
X127697722Y-111949496D01*
X127549939Y-112026427D01*
X127496872Y-112054052D01*
X127492739Y-112057155D01*
X127492736Y-112057157D01*
X127364573Y-112153385D01*
X127311655Y-112193117D01*
X127151639Y-112360564D01*
X127148725Y-112364836D01*
X127148724Y-112364837D01*
X127133152Y-112387665D01*
X127021119Y-112551899D01*
X126923602Y-112761981D01*
X126861707Y-112985169D01*
X126837095Y-113215469D01*
X123160488Y-113215469D01*
X123157032Y-113173434D01*
X123144773Y-113024318D01*
X123144772Y-113024312D01*
X123144349Y-113019167D01*
X123087925Y-112794533D01*
X123085866Y-112789797D01*
X122997630Y-112586868D01*
X122997628Y-112586865D01*
X122995570Y-112582131D01*
X122869764Y-112387665D01*
X122713887Y-112216358D01*
X122709836Y-112213159D01*
X122709832Y-112213155D01*
X122536177Y-112076011D01*
X122536172Y-112076008D01*
X122532123Y-112072810D01*
X122527607Y-112070317D01*
X122527604Y-112070315D01*
X122333879Y-111963373D01*
X122333875Y-111963371D01*
X122329355Y-111960876D01*
X122324486Y-111959152D01*
X122324482Y-111959150D01*
X122115903Y-111885288D01*
X122115899Y-111885287D01*
X122111028Y-111883562D01*
X122105935Y-111882655D01*
X122105932Y-111882654D01*
X121888095Y-111843851D01*
X121888089Y-111843850D01*
X121883006Y-111842945D01*
X121810096Y-111842054D01*
X121656581Y-111840179D01*
X121656579Y-111840179D01*
X121651411Y-111840116D01*
X121422464Y-111875150D01*
X121202314Y-111947106D01*
X121197726Y-111949494D01*
X121197722Y-111949496D01*
X121049939Y-112026427D01*
X120996872Y-112054052D01*
X120992739Y-112057155D01*
X120992736Y-112057157D01*
X120864573Y-112153385D01*
X120811655Y-112193117D01*
X120651639Y-112360564D01*
X120648725Y-112364836D01*
X120648724Y-112364837D01*
X120633152Y-112387665D01*
X120521119Y-112551899D01*
X120423602Y-112761981D01*
X120361707Y-112985169D01*
X120337095Y-113215469D01*
X115508000Y-113215469D01*
X115508000Y-110715469D01*
X145337095Y-110715469D01*
X145337392Y-110720622D01*
X145337392Y-110720625D01*
X145343067Y-110819041D01*
X145350427Y-110946697D01*
X145351564Y-110951743D01*
X145351565Y-110951749D01*
X145383741Y-111094523D01*
X145401346Y-111172642D01*
X145403288Y-111177424D01*
X145403289Y-111177428D01*
X145486540Y-111382450D01*
X145488484Y-111387237D01*
X145609501Y-111584719D01*
X145761147Y-111759784D01*
X145939349Y-111907730D01*
X146139322Y-112024584D01*
X146355694Y-112107209D01*
X146360760Y-112108240D01*
X146360761Y-112108240D01*
X146413846Y-112119040D01*
X146582656Y-112153385D01*
X146713324Y-112158176D01*
X146808949Y-112161683D01*
X146808953Y-112161683D01*
X146814113Y-112161872D01*
X146819233Y-112161216D01*
X146819235Y-112161216D01*
X146892270Y-112151860D01*
X147043847Y-112132442D01*
X147048795Y-112130957D01*
X147048802Y-112130956D01*
X147260747Y-112067369D01*
X147265690Y-112065886D01*
X147270324Y-112063616D01*
X147469049Y-111966262D01*
X147469052Y-111966260D01*
X147473684Y-111963991D01*
X147662243Y-111829494D01*
X147826303Y-111666005D01*
X147961458Y-111477917D01*
X148008641Y-111382450D01*
X148061784Y-111274922D01*
X148061785Y-111274920D01*
X148064078Y-111270280D01*
X148131408Y-111048671D01*
X148161640Y-110819041D01*
X148163327Y-110750000D01*
X148160488Y-110715469D01*
X151837095Y-110715469D01*
X151837392Y-110720622D01*
X151837392Y-110720625D01*
X151843067Y-110819041D01*
X151850427Y-110946697D01*
X151851564Y-110951743D01*
X151851565Y-110951749D01*
X151883741Y-111094523D01*
X151901346Y-111172642D01*
X151903288Y-111177424D01*
X151903289Y-111177428D01*
X151986540Y-111382450D01*
X151988484Y-111387237D01*
X152109501Y-111584719D01*
X152261147Y-111759784D01*
X152439349Y-111907730D01*
X152639322Y-112024584D01*
X152855694Y-112107209D01*
X152860760Y-112108240D01*
X152860761Y-112108240D01*
X152913846Y-112119040D01*
X153082656Y-112153385D01*
X153213324Y-112158176D01*
X153308949Y-112161683D01*
X153308953Y-112161683D01*
X153314113Y-112161872D01*
X153319233Y-112161216D01*
X153319235Y-112161216D01*
X153392270Y-112151860D01*
X153543847Y-112132442D01*
X153548795Y-112130957D01*
X153548802Y-112130956D01*
X153760747Y-112067369D01*
X153765690Y-112065886D01*
X153770324Y-112063616D01*
X153969049Y-111966262D01*
X153969052Y-111966260D01*
X153973684Y-111963991D01*
X154162243Y-111829494D01*
X154326303Y-111666005D01*
X154461458Y-111477917D01*
X154508641Y-111382450D01*
X154561784Y-111274922D01*
X154561785Y-111274920D01*
X154564078Y-111270280D01*
X154631408Y-111048671D01*
X154661640Y-110819041D01*
X154663327Y-110750000D01*
X154657032Y-110673434D01*
X154644773Y-110524318D01*
X154644772Y-110524312D01*
X154644349Y-110519167D01*
X154587925Y-110294533D01*
X154585866Y-110289797D01*
X154497630Y-110086868D01*
X154497628Y-110086865D01*
X154495570Y-110082131D01*
X154369764Y-109887665D01*
X154213887Y-109716358D01*
X154209836Y-109713159D01*
X154209832Y-109713155D01*
X154036177Y-109576011D01*
X154036172Y-109576008D01*
X154032123Y-109572810D01*
X154027607Y-109570317D01*
X154027604Y-109570315D01*
X153833879Y-109463373D01*
X153833875Y-109463371D01*
X153829355Y-109460876D01*
X153824486Y-109459152D01*
X153824482Y-109459150D01*
X153615903Y-109385288D01*
X153615899Y-109385287D01*
X153611028Y-109383562D01*
X153605935Y-109382655D01*
X153605932Y-109382654D01*
X153388095Y-109343851D01*
X153388089Y-109343850D01*
X153383006Y-109342945D01*
X153310096Y-109342054D01*
X153156581Y-109340179D01*
X153156579Y-109340179D01*
X153151411Y-109340116D01*
X152922464Y-109375150D01*
X152702314Y-109447106D01*
X152697726Y-109449494D01*
X152697722Y-109449496D01*
X152643126Y-109477917D01*
X152496872Y-109554052D01*
X152492739Y-109557155D01*
X152492736Y-109557157D01*
X152342906Y-109669653D01*
X152311655Y-109693117D01*
X152151639Y-109860564D01*
X152148725Y-109864836D01*
X152148724Y-109864837D01*
X152117684Y-109910340D01*
X152021119Y-110051899D01*
X151923602Y-110261981D01*
X151861707Y-110485169D01*
X151837095Y-110715469D01*
X148160488Y-110715469D01*
X148157032Y-110673434D01*
X148144773Y-110524318D01*
X148144772Y-110524312D01*
X148144349Y-110519167D01*
X148087925Y-110294533D01*
X148085866Y-110289797D01*
X147997630Y-110086868D01*
X147997628Y-110086865D01*
X147995570Y-110082131D01*
X147869764Y-109887665D01*
X147713887Y-109716358D01*
X147709836Y-109713159D01*
X147709832Y-109713155D01*
X147536177Y-109576011D01*
X147536172Y-109576008D01*
X147532123Y-109572810D01*
X147527607Y-109570317D01*
X147527604Y-109570315D01*
X147333879Y-109463373D01*
X147333875Y-109463371D01*
X147329355Y-109460876D01*
X147324486Y-109459152D01*
X147324482Y-109459150D01*
X147115903Y-109385288D01*
X147115899Y-109385287D01*
X147111028Y-109383562D01*
X147105935Y-109382655D01*
X147105932Y-109382654D01*
X146888095Y-109343851D01*
X146888089Y-109343850D01*
X146883006Y-109342945D01*
X146810096Y-109342054D01*
X146656581Y-109340179D01*
X146656579Y-109340179D01*
X146651411Y-109340116D01*
X146422464Y-109375150D01*
X146202314Y-109447106D01*
X146197726Y-109449494D01*
X146197722Y-109449496D01*
X146143126Y-109477917D01*
X145996872Y-109554052D01*
X145992739Y-109557155D01*
X145992736Y-109557157D01*
X145842906Y-109669653D01*
X145811655Y-109693117D01*
X145651639Y-109860564D01*
X145648725Y-109864836D01*
X145648724Y-109864837D01*
X145617684Y-109910340D01*
X145521119Y-110051899D01*
X145423602Y-110261981D01*
X145361707Y-110485169D01*
X145337095Y-110715469D01*
X115508000Y-110715469D01*
X115508000Y-108715469D01*
X120337095Y-108715469D01*
X120337392Y-108720622D01*
X120337392Y-108720625D01*
X120343067Y-108819041D01*
X120350427Y-108946697D01*
X120351564Y-108951743D01*
X120351565Y-108951749D01*
X120383741Y-109094523D01*
X120401346Y-109172642D01*
X120403288Y-109177424D01*
X120403289Y-109177428D01*
X120486540Y-109382450D01*
X120488484Y-109387237D01*
X120609501Y-109584719D01*
X120761147Y-109759784D01*
X120939349Y-109907730D01*
X121139322Y-110024584D01*
X121355694Y-110107209D01*
X121360760Y-110108240D01*
X121360761Y-110108240D01*
X121413846Y-110119040D01*
X121582656Y-110153385D01*
X121713324Y-110158176D01*
X121808949Y-110161683D01*
X121808953Y-110161683D01*
X121814113Y-110161872D01*
X121819233Y-110161216D01*
X121819235Y-110161216D01*
X121892270Y-110151860D01*
X122043847Y-110132442D01*
X122048795Y-110130957D01*
X122048802Y-110130956D01*
X122260747Y-110067369D01*
X122265690Y-110065886D01*
X122294241Y-110051899D01*
X122469049Y-109966262D01*
X122469052Y-109966260D01*
X122473684Y-109963991D01*
X122662243Y-109829494D01*
X122826303Y-109666005D01*
X122961458Y-109477917D01*
X122975505Y-109449496D01*
X123061784Y-109274922D01*
X123061785Y-109274920D01*
X123064078Y-109270280D01*
X123131408Y-109048671D01*
X123161640Y-108819041D01*
X123163327Y-108750000D01*
X123160488Y-108715469D01*
X126837095Y-108715469D01*
X126837392Y-108720622D01*
X126837392Y-108720625D01*
X126843067Y-108819041D01*
X126850427Y-108946697D01*
X126851564Y-108951743D01*
X126851565Y-108951749D01*
X126883741Y-109094523D01*
X126901346Y-109172642D01*
X126903288Y-109177424D01*
X126903289Y-109177428D01*
X126986540Y-109382450D01*
X126988484Y-109387237D01*
X127109501Y-109584719D01*
X127261147Y-109759784D01*
X127439349Y-109907730D01*
X127639322Y-110024584D01*
X127855694Y-110107209D01*
X127860760Y-110108240D01*
X127860761Y-110108240D01*
X127913846Y-110119040D01*
X128082656Y-110153385D01*
X128213324Y-110158176D01*
X128308949Y-110161683D01*
X128308953Y-110161683D01*
X128314113Y-110161872D01*
X128319233Y-110161216D01*
X128319235Y-110161216D01*
X128392270Y-110151860D01*
X128543847Y-110132442D01*
X128548795Y-110130957D01*
X128548802Y-110130956D01*
X128760747Y-110067369D01*
X128765690Y-110065886D01*
X128794241Y-110051899D01*
X128969049Y-109966262D01*
X128969052Y-109966260D01*
X128973684Y-109963991D01*
X129162243Y-109829494D01*
X129326303Y-109666005D01*
X129461458Y-109477917D01*
X129475505Y-109449496D01*
X129561784Y-109274922D01*
X129561785Y-109274920D01*
X129564078Y-109270280D01*
X129631408Y-109048671D01*
X129661640Y-108819041D01*
X129663327Y-108750000D01*
X129657032Y-108673434D01*
X129644773Y-108524318D01*
X129644772Y-108524312D01*
X129644349Y-108519167D01*
X129587925Y-108294533D01*
X129585866Y-108289797D01*
X129497630Y-108086868D01*
X129497628Y-108086865D01*
X129495570Y-108082131D01*
X129369764Y-107887665D01*
X129213887Y-107716358D01*
X129209836Y-107713159D01*
X129209832Y-107713155D01*
X129036177Y-107576011D01*
X129036172Y-107576008D01*
X129032123Y-107572810D01*
X129027607Y-107570317D01*
X129027604Y-107570315D01*
X128833879Y-107463373D01*
X128833875Y-107463371D01*
X128829355Y-107460876D01*
X128824486Y-107459152D01*
X128824482Y-107459150D01*
X128615903Y-107385288D01*
X128615899Y-107385287D01*
X128611028Y-107383562D01*
X128605935Y-107382655D01*
X128605932Y-107382654D01*
X128388095Y-107343851D01*
X128388089Y-107343850D01*
X128383006Y-107342945D01*
X128310096Y-107342054D01*
X128156581Y-107340179D01*
X128156579Y-107340179D01*
X128151411Y-107340116D01*
X127922464Y-107375150D01*
X127702314Y-107447106D01*
X127697726Y-107449494D01*
X127697722Y-107449496D01*
X127549939Y-107526427D01*
X127496872Y-107554052D01*
X127492739Y-107557155D01*
X127492736Y-107557157D01*
X127364573Y-107653385D01*
X127311655Y-107693117D01*
X127151639Y-107860564D01*
X127148725Y-107864836D01*
X127148724Y-107864837D01*
X127133152Y-107887665D01*
X127021119Y-108051899D01*
X126923602Y-108261981D01*
X126861707Y-108485169D01*
X126837095Y-108715469D01*
X123160488Y-108715469D01*
X123157032Y-108673434D01*
X123144773Y-108524318D01*
X123144772Y-108524312D01*
X123144349Y-108519167D01*
X123087925Y-108294533D01*
X123085866Y-108289797D01*
X122997630Y-108086868D01*
X122997628Y-108086865D01*
X122995570Y-108082131D01*
X122869764Y-107887665D01*
X122713887Y-107716358D01*
X122709836Y-107713159D01*
X122709832Y-107713155D01*
X122536177Y-107576011D01*
X122536172Y-107576008D01*
X122532123Y-107572810D01*
X122527607Y-107570317D01*
X122527604Y-107570315D01*
X122333879Y-107463373D01*
X122333875Y-107463371D01*
X122329355Y-107460876D01*
X122324486Y-107459152D01*
X122324482Y-107459150D01*
X122115903Y-107385288D01*
X122115899Y-107385287D01*
X122111028Y-107383562D01*
X122105935Y-107382655D01*
X122105932Y-107382654D01*
X121888095Y-107343851D01*
X121888089Y-107343850D01*
X121883006Y-107342945D01*
X121810096Y-107342054D01*
X121656581Y-107340179D01*
X121656579Y-107340179D01*
X121651411Y-107340116D01*
X121422464Y-107375150D01*
X121202314Y-107447106D01*
X121197726Y-107449494D01*
X121197722Y-107449496D01*
X121049939Y-107526427D01*
X120996872Y-107554052D01*
X120992739Y-107557155D01*
X120992736Y-107557157D01*
X120864573Y-107653385D01*
X120811655Y-107693117D01*
X120651639Y-107860564D01*
X120648725Y-107864836D01*
X120648724Y-107864837D01*
X120633152Y-107887665D01*
X120521119Y-108051899D01*
X120423602Y-108261981D01*
X120361707Y-108485169D01*
X120337095Y-108715469D01*
X115508000Y-108715469D01*
X115508000Y-106215469D01*
X134337095Y-106215469D01*
X134337392Y-106220622D01*
X134337392Y-106220625D01*
X134343067Y-106319041D01*
X134350427Y-106446697D01*
X134351564Y-106451743D01*
X134351565Y-106451749D01*
X134383741Y-106594523D01*
X134401346Y-106672642D01*
X134403288Y-106677424D01*
X134403289Y-106677428D01*
X134486540Y-106882450D01*
X134488484Y-106887237D01*
X134609501Y-107084719D01*
X134761147Y-107259784D01*
X134939349Y-107407730D01*
X135139322Y-107524584D01*
X135355694Y-107607209D01*
X135360760Y-107608240D01*
X135360761Y-107608240D01*
X135413846Y-107619040D01*
X135582656Y-107653385D01*
X135713324Y-107658176D01*
X135808949Y-107661683D01*
X135808953Y-107661683D01*
X135814113Y-107661872D01*
X135819233Y-107661216D01*
X135819235Y-107661216D01*
X135892270Y-107651860D01*
X136043847Y-107632442D01*
X136048795Y-107630957D01*
X136048802Y-107630956D01*
X136260747Y-107567369D01*
X136265690Y-107565886D01*
X136270324Y-107563616D01*
X136469049Y-107466262D01*
X136469052Y-107466260D01*
X136473684Y-107463991D01*
X136662243Y-107329494D01*
X136826303Y-107166005D01*
X136961458Y-106977917D01*
X137008641Y-106882450D01*
X137061784Y-106774922D01*
X137061785Y-106774920D01*
X137064078Y-106770280D01*
X137131408Y-106548671D01*
X137161640Y-106319041D01*
X137163327Y-106250000D01*
X137160488Y-106215469D01*
X140837095Y-106215469D01*
X140837392Y-106220622D01*
X140837392Y-106220625D01*
X140843067Y-106319041D01*
X140850427Y-106446697D01*
X140851564Y-106451743D01*
X140851565Y-106451749D01*
X140883741Y-106594523D01*
X140901346Y-106672642D01*
X140903288Y-106677424D01*
X140903289Y-106677428D01*
X140986540Y-106882450D01*
X140988484Y-106887237D01*
X141109501Y-107084719D01*
X141261147Y-107259784D01*
X141439349Y-107407730D01*
X141639322Y-107524584D01*
X141855694Y-107607209D01*
X141860760Y-107608240D01*
X141860761Y-107608240D01*
X141913846Y-107619040D01*
X142082656Y-107653385D01*
X142213324Y-107658176D01*
X142308949Y-107661683D01*
X142308953Y-107661683D01*
X142314113Y-107661872D01*
X142319233Y-107661216D01*
X142319235Y-107661216D01*
X142392270Y-107651860D01*
X142543847Y-107632442D01*
X142548795Y-107630957D01*
X142548802Y-107630956D01*
X142760747Y-107567369D01*
X142765690Y-107565886D01*
X142770324Y-107563616D01*
X142969049Y-107466262D01*
X142969052Y-107466260D01*
X142973684Y-107463991D01*
X143162243Y-107329494D01*
X143326303Y-107166005D01*
X143461458Y-106977917D01*
X143508641Y-106882450D01*
X143561784Y-106774922D01*
X143561785Y-106774920D01*
X143564078Y-106770280D01*
X143631408Y-106548671D01*
X143661640Y-106319041D01*
X143663327Y-106250000D01*
X143660488Y-106215469D01*
X155337095Y-106215469D01*
X155337392Y-106220622D01*
X155337392Y-106220625D01*
X155343067Y-106319041D01*
X155350427Y-106446697D01*
X155351564Y-106451743D01*
X155351565Y-106451749D01*
X155383741Y-106594523D01*
X155401346Y-106672642D01*
X155403288Y-106677424D01*
X155403289Y-106677428D01*
X155486540Y-106882450D01*
X155488484Y-106887237D01*
X155609501Y-107084719D01*
X155761147Y-107259784D01*
X155939349Y-107407730D01*
X156139322Y-107524584D01*
X156355694Y-107607209D01*
X156360760Y-107608240D01*
X156360761Y-107608240D01*
X156413846Y-107619040D01*
X156582656Y-107653385D01*
X156713324Y-107658176D01*
X156808949Y-107661683D01*
X156808953Y-107661683D01*
X156814113Y-107661872D01*
X156819233Y-107661216D01*
X156819235Y-107661216D01*
X156892270Y-107651860D01*
X157043847Y-107632442D01*
X157048795Y-107630957D01*
X157048802Y-107630956D01*
X157260747Y-107567369D01*
X157265690Y-107565886D01*
X157270324Y-107563616D01*
X157469049Y-107466262D01*
X157469052Y-107466260D01*
X157473684Y-107463991D01*
X157662243Y-107329494D01*
X157826303Y-107166005D01*
X157961458Y-106977917D01*
X158008641Y-106882450D01*
X158061784Y-106774922D01*
X158061785Y-106774920D01*
X158064078Y-106770280D01*
X158131408Y-106548671D01*
X158161640Y-106319041D01*
X158163327Y-106250000D01*
X158160488Y-106215469D01*
X161837095Y-106215469D01*
X161837392Y-106220622D01*
X161837392Y-106220625D01*
X161843067Y-106319041D01*
X161850427Y-106446697D01*
X161851564Y-106451743D01*
X161851565Y-106451749D01*
X161883741Y-106594523D01*
X161901346Y-106672642D01*
X161903288Y-106677424D01*
X161903289Y-106677428D01*
X161986540Y-106882450D01*
X161988484Y-106887237D01*
X162109501Y-107084719D01*
X162261147Y-107259784D01*
X162439349Y-107407730D01*
X162639322Y-107524584D01*
X162855694Y-107607209D01*
X162860760Y-107608240D01*
X162860761Y-107608240D01*
X162913846Y-107619040D01*
X163082656Y-107653385D01*
X163213324Y-107658176D01*
X163308949Y-107661683D01*
X163308953Y-107661683D01*
X163314113Y-107661872D01*
X163319233Y-107661216D01*
X163319235Y-107661216D01*
X163392270Y-107651860D01*
X163543847Y-107632442D01*
X163548795Y-107630957D01*
X163548802Y-107630956D01*
X163760747Y-107567369D01*
X163765690Y-107565886D01*
X163770324Y-107563616D01*
X163969049Y-107466262D01*
X163969052Y-107466260D01*
X163973684Y-107463991D01*
X164162243Y-107329494D01*
X164326303Y-107166005D01*
X164461458Y-106977917D01*
X164508641Y-106882450D01*
X164561784Y-106774922D01*
X164561785Y-106774920D01*
X164564078Y-106770280D01*
X164631408Y-106548671D01*
X164661640Y-106319041D01*
X164663327Y-106250000D01*
X164657032Y-106173434D01*
X164644773Y-106024318D01*
X164644772Y-106024312D01*
X164644349Y-106019167D01*
X164587925Y-105794533D01*
X164585866Y-105789797D01*
X164497630Y-105586868D01*
X164497628Y-105586865D01*
X164495570Y-105582131D01*
X164369764Y-105387665D01*
X164213887Y-105216358D01*
X164209836Y-105213159D01*
X164209832Y-105213155D01*
X164036177Y-105076011D01*
X164036172Y-105076008D01*
X164032123Y-105072810D01*
X164027607Y-105070317D01*
X164027604Y-105070315D01*
X163833879Y-104963373D01*
X163833875Y-104963371D01*
X163829355Y-104960876D01*
X163824486Y-104959152D01*
X163824482Y-104959150D01*
X163615903Y-104885288D01*
X163615899Y-104885287D01*
X163611028Y-104883562D01*
X163605935Y-104882655D01*
X163605932Y-104882654D01*
X163388095Y-104843851D01*
X163388089Y-104843850D01*
X163383006Y-104842945D01*
X163310096Y-104842054D01*
X163156581Y-104840179D01*
X163156579Y-104840179D01*
X163151411Y-104840116D01*
X162922464Y-104875150D01*
X162702314Y-104947106D01*
X162697726Y-104949494D01*
X162697722Y-104949496D01*
X162671065Y-104963373D01*
X162496872Y-105054052D01*
X162492739Y-105057155D01*
X162492736Y-105057157D01*
X162467625Y-105076011D01*
X162311655Y-105193117D01*
X162151639Y-105360564D01*
X162148725Y-105364836D01*
X162148724Y-105364837D01*
X162133152Y-105387665D01*
X162021119Y-105551899D01*
X161923602Y-105761981D01*
X161861707Y-105985169D01*
X161837095Y-106215469D01*
X158160488Y-106215469D01*
X158157032Y-106173434D01*
X158144773Y-106024318D01*
X158144772Y-106024312D01*
X158144349Y-106019167D01*
X158087925Y-105794533D01*
X158085866Y-105789797D01*
X157997630Y-105586868D01*
X157997628Y-105586865D01*
X157995570Y-105582131D01*
X157869764Y-105387665D01*
X157713887Y-105216358D01*
X157709836Y-105213159D01*
X157709832Y-105213155D01*
X157536177Y-105076011D01*
X157536172Y-105076008D01*
X157532123Y-105072810D01*
X157527607Y-105070317D01*
X157527604Y-105070315D01*
X157333879Y-104963373D01*
X157333875Y-104963371D01*
X157329355Y-104960876D01*
X157324486Y-104959152D01*
X157324482Y-104959150D01*
X157115903Y-104885288D01*
X157115899Y-104885287D01*
X157111028Y-104883562D01*
X157105935Y-104882655D01*
X157105932Y-104882654D01*
X156888095Y-104843851D01*
X156888089Y-104843850D01*
X156883006Y-104842945D01*
X156810096Y-104842054D01*
X156656581Y-104840179D01*
X156656579Y-104840179D01*
X156651411Y-104840116D01*
X156422464Y-104875150D01*
X156202314Y-104947106D01*
X156197726Y-104949494D01*
X156197722Y-104949496D01*
X156171065Y-104963373D01*
X155996872Y-105054052D01*
X155992739Y-105057155D01*
X155992736Y-105057157D01*
X155967625Y-105076011D01*
X155811655Y-105193117D01*
X155651639Y-105360564D01*
X155648725Y-105364836D01*
X155648724Y-105364837D01*
X155633152Y-105387665D01*
X155521119Y-105551899D01*
X155423602Y-105761981D01*
X155361707Y-105985169D01*
X155337095Y-106215469D01*
X143660488Y-106215469D01*
X143657032Y-106173434D01*
X143644773Y-106024318D01*
X143644772Y-106024312D01*
X143644349Y-106019167D01*
X143587925Y-105794533D01*
X143585866Y-105789797D01*
X143497630Y-105586868D01*
X143497628Y-105586865D01*
X143495570Y-105582131D01*
X143369764Y-105387665D01*
X143213887Y-105216358D01*
X143209836Y-105213159D01*
X143209832Y-105213155D01*
X143036177Y-105076011D01*
X143036172Y-105076008D01*
X143032123Y-105072810D01*
X143027607Y-105070317D01*
X143027604Y-105070315D01*
X142833879Y-104963373D01*
X142833875Y-104963371D01*
X142829355Y-104960876D01*
X142824486Y-104959152D01*
X142824482Y-104959150D01*
X142615903Y-104885288D01*
X142615899Y-104885287D01*
X142611028Y-104883562D01*
X142605935Y-104882655D01*
X142605932Y-104882654D01*
X142388095Y-104843851D01*
X142388089Y-104843850D01*
X142383006Y-104842945D01*
X142310096Y-104842054D01*
X142156581Y-104840179D01*
X142156579Y-104840179D01*
X142151411Y-104840116D01*
X141922464Y-104875150D01*
X141702314Y-104947106D01*
X141697726Y-104949494D01*
X141697722Y-104949496D01*
X141671065Y-104963373D01*
X141496872Y-105054052D01*
X141492739Y-105057155D01*
X141492736Y-105057157D01*
X141467625Y-105076011D01*
X141311655Y-105193117D01*
X141151639Y-105360564D01*
X141148725Y-105364836D01*
X141148724Y-105364837D01*
X141133152Y-105387665D01*
X141021119Y-105551899D01*
X140923602Y-105761981D01*
X140861707Y-105985169D01*
X140837095Y-106215469D01*
X137160488Y-106215469D01*
X137157032Y-106173434D01*
X137144773Y-106024318D01*
X137144772Y-106024312D01*
X137144349Y-106019167D01*
X137087925Y-105794533D01*
X137085866Y-105789797D01*
X136997630Y-105586868D01*
X136997628Y-105586865D01*
X136995570Y-105582131D01*
X136869764Y-105387665D01*
X136713887Y-105216358D01*
X136709836Y-105213159D01*
X136709832Y-105213155D01*
X136536177Y-105076011D01*
X136536172Y-105076008D01*
X136532123Y-105072810D01*
X136527607Y-105070317D01*
X136527604Y-105070315D01*
X136333879Y-104963373D01*
X136333875Y-104963371D01*
X136329355Y-104960876D01*
X136324486Y-104959152D01*
X136324482Y-104959150D01*
X136115903Y-104885288D01*
X136115899Y-104885287D01*
X136111028Y-104883562D01*
X136105935Y-104882655D01*
X136105932Y-104882654D01*
X135888095Y-104843851D01*
X135888089Y-104843850D01*
X135883006Y-104842945D01*
X135810096Y-104842054D01*
X135656581Y-104840179D01*
X135656579Y-104840179D01*
X135651411Y-104840116D01*
X135422464Y-104875150D01*
X135202314Y-104947106D01*
X135197726Y-104949494D01*
X135197722Y-104949496D01*
X135171065Y-104963373D01*
X134996872Y-105054052D01*
X134992739Y-105057155D01*
X134992736Y-105057157D01*
X134967625Y-105076011D01*
X134811655Y-105193117D01*
X134651639Y-105360564D01*
X134648725Y-105364836D01*
X134648724Y-105364837D01*
X134633152Y-105387665D01*
X134521119Y-105551899D01*
X134423602Y-105761981D01*
X134361707Y-105985169D01*
X134337095Y-106215469D01*
X115508000Y-106215469D01*
X115508000Y-101715469D01*
X134337095Y-101715469D01*
X134337392Y-101720622D01*
X134337392Y-101720625D01*
X134343067Y-101819041D01*
X134350427Y-101946697D01*
X134351564Y-101951743D01*
X134351565Y-101951749D01*
X134383741Y-102094523D01*
X134401346Y-102172642D01*
X134403288Y-102177424D01*
X134403289Y-102177428D01*
X134486540Y-102382450D01*
X134488484Y-102387237D01*
X134609501Y-102584719D01*
X134761147Y-102759784D01*
X134939349Y-102907730D01*
X135139322Y-103024584D01*
X135355694Y-103107209D01*
X135360760Y-103108240D01*
X135360761Y-103108240D01*
X135413846Y-103119040D01*
X135582656Y-103153385D01*
X135713324Y-103158176D01*
X135808949Y-103161683D01*
X135808953Y-103161683D01*
X135814113Y-103161872D01*
X135819233Y-103161216D01*
X135819235Y-103161216D01*
X135892270Y-103151860D01*
X136043847Y-103132442D01*
X136048795Y-103130957D01*
X136048802Y-103130956D01*
X136260747Y-103067369D01*
X136265690Y-103065886D01*
X136346236Y-103026427D01*
X136469049Y-102966262D01*
X136469052Y-102966260D01*
X136473684Y-102963991D01*
X136662243Y-102829494D01*
X136826303Y-102666005D01*
X136961458Y-102477917D01*
X137008641Y-102382450D01*
X137061784Y-102274922D01*
X137061785Y-102274920D01*
X137064078Y-102270280D01*
X137131408Y-102048671D01*
X137161640Y-101819041D01*
X137163327Y-101750000D01*
X137160488Y-101715469D01*
X140837095Y-101715469D01*
X140837392Y-101720622D01*
X140837392Y-101720625D01*
X140843067Y-101819041D01*
X140850427Y-101946697D01*
X140851564Y-101951743D01*
X140851565Y-101951749D01*
X140883741Y-102094523D01*
X140901346Y-102172642D01*
X140903288Y-102177424D01*
X140903289Y-102177428D01*
X140986540Y-102382450D01*
X140988484Y-102387237D01*
X141109501Y-102584719D01*
X141261147Y-102759784D01*
X141439349Y-102907730D01*
X141639322Y-103024584D01*
X141855694Y-103107209D01*
X141860760Y-103108240D01*
X141860761Y-103108240D01*
X141913846Y-103119040D01*
X142082656Y-103153385D01*
X142213324Y-103158176D01*
X142308949Y-103161683D01*
X142308953Y-103161683D01*
X142314113Y-103161872D01*
X142319233Y-103161216D01*
X142319235Y-103161216D01*
X142392270Y-103151860D01*
X142543847Y-103132442D01*
X142548795Y-103130957D01*
X142548802Y-103130956D01*
X142760747Y-103067369D01*
X142765690Y-103065886D01*
X142846236Y-103026427D01*
X142969049Y-102966262D01*
X142969052Y-102966260D01*
X142973684Y-102963991D01*
X143162243Y-102829494D01*
X143326303Y-102666005D01*
X143461458Y-102477917D01*
X143508641Y-102382450D01*
X143561784Y-102274922D01*
X143561785Y-102274920D01*
X143564078Y-102270280D01*
X143631408Y-102048671D01*
X143661640Y-101819041D01*
X143663327Y-101750000D01*
X143660488Y-101715469D01*
X155337095Y-101715469D01*
X155337392Y-101720622D01*
X155337392Y-101720625D01*
X155343067Y-101819041D01*
X155350427Y-101946697D01*
X155351564Y-101951743D01*
X155351565Y-101951749D01*
X155383741Y-102094523D01*
X155401346Y-102172642D01*
X155403288Y-102177424D01*
X155403289Y-102177428D01*
X155486540Y-102382450D01*
X155488484Y-102387237D01*
X155609501Y-102584719D01*
X155761147Y-102759784D01*
X155939349Y-102907730D01*
X156139322Y-103024584D01*
X156355694Y-103107209D01*
X156360760Y-103108240D01*
X156360761Y-103108240D01*
X156413846Y-103119040D01*
X156582656Y-103153385D01*
X156713324Y-103158176D01*
X156808949Y-103161683D01*
X156808953Y-103161683D01*
X156814113Y-103161872D01*
X156819233Y-103161216D01*
X156819235Y-103161216D01*
X156892270Y-103151860D01*
X157043847Y-103132442D01*
X157048795Y-103130957D01*
X157048802Y-103130956D01*
X157260747Y-103067369D01*
X157265690Y-103065886D01*
X157346236Y-103026427D01*
X157469049Y-102966262D01*
X157469052Y-102966260D01*
X157473684Y-102963991D01*
X157662243Y-102829494D01*
X157826303Y-102666005D01*
X157961458Y-102477917D01*
X158008641Y-102382450D01*
X158061784Y-102274922D01*
X158061785Y-102274920D01*
X158064078Y-102270280D01*
X158131408Y-102048671D01*
X158161640Y-101819041D01*
X158163327Y-101750000D01*
X158160488Y-101715469D01*
X161837095Y-101715469D01*
X161837392Y-101720622D01*
X161837392Y-101720625D01*
X161843067Y-101819041D01*
X161850427Y-101946697D01*
X161851564Y-101951743D01*
X161851565Y-101951749D01*
X161883741Y-102094523D01*
X161901346Y-102172642D01*
X161903288Y-102177424D01*
X161903289Y-102177428D01*
X161986540Y-102382450D01*
X161988484Y-102387237D01*
X162109501Y-102584719D01*
X162261147Y-102759784D01*
X162439349Y-102907730D01*
X162639322Y-103024584D01*
X162855694Y-103107209D01*
X162860760Y-103108240D01*
X162860761Y-103108240D01*
X162913846Y-103119040D01*
X163082656Y-103153385D01*
X163213324Y-103158176D01*
X163308949Y-103161683D01*
X163308953Y-103161683D01*
X163314113Y-103161872D01*
X163319233Y-103161216D01*
X163319235Y-103161216D01*
X163392270Y-103151860D01*
X163543847Y-103132442D01*
X163548795Y-103130957D01*
X163548802Y-103130956D01*
X163760747Y-103067369D01*
X163765690Y-103065886D01*
X163846236Y-103026427D01*
X163969049Y-102966262D01*
X163969052Y-102966260D01*
X163973684Y-102963991D01*
X164162243Y-102829494D01*
X164326303Y-102666005D01*
X164461458Y-102477917D01*
X164508641Y-102382450D01*
X164561784Y-102274922D01*
X164561785Y-102274920D01*
X164564078Y-102270280D01*
X164631408Y-102048671D01*
X164661640Y-101819041D01*
X164663327Y-101750000D01*
X164657032Y-101673434D01*
X164644773Y-101524318D01*
X164644772Y-101524312D01*
X164644349Y-101519167D01*
X164587925Y-101294533D01*
X164585866Y-101289797D01*
X164497630Y-101086868D01*
X164497628Y-101086865D01*
X164495570Y-101082131D01*
X164369764Y-100887665D01*
X164213887Y-100716358D01*
X164209836Y-100713159D01*
X164209832Y-100713155D01*
X164036177Y-100576011D01*
X164036172Y-100576008D01*
X164032123Y-100572810D01*
X164027607Y-100570317D01*
X164027604Y-100570315D01*
X163833879Y-100463373D01*
X163833875Y-100463371D01*
X163829355Y-100460876D01*
X163824486Y-100459152D01*
X163824482Y-100459150D01*
X163615903Y-100385288D01*
X163615899Y-100385287D01*
X163611028Y-100383562D01*
X163605935Y-100382655D01*
X163605932Y-100382654D01*
X163388095Y-100343851D01*
X163388089Y-100343850D01*
X163383006Y-100342945D01*
X163310096Y-100342054D01*
X163156581Y-100340179D01*
X163156579Y-100340179D01*
X163151411Y-100340116D01*
X162922464Y-100375150D01*
X162702314Y-100447106D01*
X162697726Y-100449494D01*
X162697722Y-100449496D01*
X162549939Y-100526427D01*
X162496872Y-100554052D01*
X162492739Y-100557155D01*
X162492736Y-100557157D01*
X162364573Y-100653385D01*
X162311655Y-100693117D01*
X162151639Y-100860564D01*
X162148725Y-100864836D01*
X162148724Y-100864837D01*
X162133152Y-100887665D01*
X162021119Y-101051899D01*
X161923602Y-101261981D01*
X161861707Y-101485169D01*
X161837095Y-101715469D01*
X158160488Y-101715469D01*
X158157032Y-101673434D01*
X158144773Y-101524318D01*
X158144772Y-101524312D01*
X158144349Y-101519167D01*
X158087925Y-101294533D01*
X158085866Y-101289797D01*
X157997630Y-101086868D01*
X157997628Y-101086865D01*
X157995570Y-101082131D01*
X157869764Y-100887665D01*
X157713887Y-100716358D01*
X157709836Y-100713159D01*
X157709832Y-100713155D01*
X157536177Y-100576011D01*
X157536172Y-100576008D01*
X157532123Y-100572810D01*
X157527607Y-100570317D01*
X157527604Y-100570315D01*
X157333879Y-100463373D01*
X157333875Y-100463371D01*
X157329355Y-100460876D01*
X157324486Y-100459152D01*
X157324482Y-100459150D01*
X157115903Y-100385288D01*
X157115899Y-100385287D01*
X157111028Y-100383562D01*
X157105935Y-100382655D01*
X157105932Y-100382654D01*
X156888095Y-100343851D01*
X156888089Y-100343850D01*
X156883006Y-100342945D01*
X156810096Y-100342054D01*
X156656581Y-100340179D01*
X156656579Y-100340179D01*
X156651411Y-100340116D01*
X156422464Y-100375150D01*
X156202314Y-100447106D01*
X156197726Y-100449494D01*
X156197722Y-100449496D01*
X156049939Y-100526427D01*
X155996872Y-100554052D01*
X155992739Y-100557155D01*
X155992736Y-100557157D01*
X155864573Y-100653385D01*
X155811655Y-100693117D01*
X155651639Y-100860564D01*
X155648725Y-100864836D01*
X155648724Y-100864837D01*
X155633152Y-100887665D01*
X155521119Y-101051899D01*
X155423602Y-101261981D01*
X155361707Y-101485169D01*
X155337095Y-101715469D01*
X143660488Y-101715469D01*
X143657032Y-101673434D01*
X143644773Y-101524318D01*
X143644772Y-101524312D01*
X143644349Y-101519167D01*
X143587925Y-101294533D01*
X143585866Y-101289797D01*
X143497630Y-101086868D01*
X143497628Y-101086865D01*
X143495570Y-101082131D01*
X143369764Y-100887665D01*
X143213887Y-100716358D01*
X143209836Y-100713159D01*
X143209832Y-100713155D01*
X143036177Y-100576011D01*
X143036172Y-100576008D01*
X143032123Y-100572810D01*
X143027607Y-100570317D01*
X143027604Y-100570315D01*
X142833879Y-100463373D01*
X142833875Y-100463371D01*
X142829355Y-100460876D01*
X142824486Y-100459152D01*
X142824482Y-100459150D01*
X142615903Y-100385288D01*
X142615899Y-100385287D01*
X142611028Y-100383562D01*
X142605935Y-100382655D01*
X142605932Y-100382654D01*
X142388095Y-100343851D01*
X142388089Y-100343850D01*
X142383006Y-100342945D01*
X142310096Y-100342054D01*
X142156581Y-100340179D01*
X142156579Y-100340179D01*
X142151411Y-100340116D01*
X141922464Y-100375150D01*
X141702314Y-100447106D01*
X141697726Y-100449494D01*
X141697722Y-100449496D01*
X141549939Y-100526427D01*
X141496872Y-100554052D01*
X141492739Y-100557155D01*
X141492736Y-100557157D01*
X141364573Y-100653385D01*
X141311655Y-100693117D01*
X141151639Y-100860564D01*
X141148725Y-100864836D01*
X141148724Y-100864837D01*
X141133152Y-100887665D01*
X141021119Y-101051899D01*
X140923602Y-101261981D01*
X140861707Y-101485169D01*
X140837095Y-101715469D01*
X137160488Y-101715469D01*
X137157032Y-101673434D01*
X137144773Y-101524318D01*
X137144772Y-101524312D01*
X137144349Y-101519167D01*
X137087925Y-101294533D01*
X137085866Y-101289797D01*
X136997630Y-101086868D01*
X136997628Y-101086865D01*
X136995570Y-101082131D01*
X136869764Y-100887665D01*
X136713887Y-100716358D01*
X136709836Y-100713159D01*
X136709832Y-100713155D01*
X136536177Y-100576011D01*
X136536172Y-100576008D01*
X136532123Y-100572810D01*
X136527607Y-100570317D01*
X136527604Y-100570315D01*
X136333879Y-100463373D01*
X136333875Y-100463371D01*
X136329355Y-100460876D01*
X136324486Y-100459152D01*
X136324482Y-100459150D01*
X136115903Y-100385288D01*
X136115899Y-100385287D01*
X136111028Y-100383562D01*
X136105935Y-100382655D01*
X136105932Y-100382654D01*
X135888095Y-100343851D01*
X135888089Y-100343850D01*
X135883006Y-100342945D01*
X135810096Y-100342054D01*
X135656581Y-100340179D01*
X135656579Y-100340179D01*
X135651411Y-100340116D01*
X135422464Y-100375150D01*
X135202314Y-100447106D01*
X135197726Y-100449494D01*
X135197722Y-100449496D01*
X135049939Y-100526427D01*
X134996872Y-100554052D01*
X134992739Y-100557155D01*
X134992736Y-100557157D01*
X134864573Y-100653385D01*
X134811655Y-100693117D01*
X134651639Y-100860564D01*
X134648725Y-100864836D01*
X134648724Y-100864837D01*
X134633152Y-100887665D01*
X134521119Y-101051899D01*
X134423602Y-101261981D01*
X134361707Y-101485169D01*
X134337095Y-101715469D01*
X115508000Y-101715469D01*
X115508000Y-99215469D01*
X119337095Y-99215469D01*
X119337392Y-99220622D01*
X119337392Y-99220625D01*
X119343067Y-99319041D01*
X119350427Y-99446697D01*
X119351564Y-99451743D01*
X119351565Y-99451749D01*
X119376776Y-99563616D01*
X119401346Y-99672642D01*
X119403288Y-99677424D01*
X119403289Y-99677428D01*
X119486540Y-99882450D01*
X119488484Y-99887237D01*
X119609501Y-100084719D01*
X119761147Y-100259784D01*
X119939349Y-100407730D01*
X120139322Y-100524584D01*
X120355694Y-100607209D01*
X120360760Y-100608240D01*
X120360761Y-100608240D01*
X120413846Y-100619040D01*
X120582656Y-100653385D01*
X120713324Y-100658176D01*
X120808949Y-100661683D01*
X120808953Y-100661683D01*
X120814113Y-100661872D01*
X120819233Y-100661216D01*
X120819235Y-100661216D01*
X120892270Y-100651860D01*
X121043847Y-100632442D01*
X121048795Y-100630957D01*
X121048802Y-100630956D01*
X121260747Y-100567369D01*
X121265690Y-100565886D01*
X121270324Y-100563616D01*
X121469049Y-100466262D01*
X121469052Y-100466260D01*
X121473684Y-100463991D01*
X121662243Y-100329494D01*
X121826303Y-100166005D01*
X121961458Y-99977917D01*
X122008641Y-99882450D01*
X122061784Y-99774922D01*
X122061785Y-99774920D01*
X122064078Y-99770280D01*
X122131408Y-99548671D01*
X122161640Y-99319041D01*
X122163088Y-99259784D01*
X122163245Y-99253365D01*
X122163245Y-99253361D01*
X122163327Y-99250000D01*
X122160488Y-99215469D01*
X125837095Y-99215469D01*
X125837392Y-99220622D01*
X125837392Y-99220625D01*
X125843067Y-99319041D01*
X125850427Y-99446697D01*
X125851564Y-99451743D01*
X125851565Y-99451749D01*
X125876776Y-99563616D01*
X125901346Y-99672642D01*
X125903288Y-99677424D01*
X125903289Y-99677428D01*
X125986540Y-99882450D01*
X125988484Y-99887237D01*
X126109501Y-100084719D01*
X126261147Y-100259784D01*
X126439349Y-100407730D01*
X126639322Y-100524584D01*
X126855694Y-100607209D01*
X126860760Y-100608240D01*
X126860761Y-100608240D01*
X126913846Y-100619040D01*
X127082656Y-100653385D01*
X127213324Y-100658176D01*
X127308949Y-100661683D01*
X127308953Y-100661683D01*
X127314113Y-100661872D01*
X127319233Y-100661216D01*
X127319235Y-100661216D01*
X127392270Y-100651860D01*
X127543847Y-100632442D01*
X127548795Y-100630957D01*
X127548802Y-100630956D01*
X127760747Y-100567369D01*
X127765690Y-100565886D01*
X127770324Y-100563616D01*
X127969049Y-100466262D01*
X127969052Y-100466260D01*
X127973684Y-100463991D01*
X128162243Y-100329494D01*
X128326303Y-100166005D01*
X128461458Y-99977917D01*
X128508641Y-99882450D01*
X128561784Y-99774922D01*
X128561785Y-99774920D01*
X128564078Y-99770280D01*
X128631408Y-99548671D01*
X128661640Y-99319041D01*
X128663088Y-99259784D01*
X128663245Y-99253365D01*
X128663245Y-99253361D01*
X128663327Y-99250000D01*
X128656076Y-99161808D01*
X128644773Y-99024318D01*
X128644772Y-99024312D01*
X128644349Y-99019167D01*
X128587925Y-98794533D01*
X128579398Y-98774922D01*
X128497630Y-98586868D01*
X128497628Y-98586865D01*
X128495570Y-98582131D01*
X128369764Y-98387665D01*
X128213887Y-98216358D01*
X128212761Y-98215469D01*
X145337095Y-98215469D01*
X145337392Y-98220622D01*
X145337392Y-98220625D01*
X145343067Y-98319041D01*
X145350427Y-98446697D01*
X145351564Y-98451743D01*
X145351565Y-98451749D01*
X145375192Y-98556587D01*
X145401346Y-98672642D01*
X145403288Y-98677424D01*
X145403289Y-98677428D01*
X145486540Y-98882450D01*
X145488484Y-98887237D01*
X145609501Y-99084719D01*
X145761147Y-99259784D01*
X145939349Y-99407730D01*
X146139322Y-99524584D01*
X146355694Y-99607209D01*
X146360760Y-99608240D01*
X146360761Y-99608240D01*
X146413846Y-99619040D01*
X146582656Y-99653385D01*
X146713324Y-99658176D01*
X146808949Y-99661683D01*
X146808953Y-99661683D01*
X146814113Y-99661872D01*
X146819233Y-99661216D01*
X146819235Y-99661216D01*
X146892270Y-99651860D01*
X147043847Y-99632442D01*
X147048795Y-99630957D01*
X147048802Y-99630956D01*
X147260747Y-99567369D01*
X147265690Y-99565886D01*
X147270324Y-99563616D01*
X147469049Y-99466262D01*
X147469052Y-99466260D01*
X147473684Y-99463991D01*
X147662243Y-99329494D01*
X147826303Y-99166005D01*
X147961458Y-98977917D01*
X148008641Y-98882450D01*
X148061784Y-98774922D01*
X148061785Y-98774920D01*
X148064078Y-98770280D01*
X148131408Y-98548671D01*
X148161640Y-98319041D01*
X148163327Y-98250000D01*
X148160488Y-98215469D01*
X151837095Y-98215469D01*
X151837392Y-98220622D01*
X151837392Y-98220625D01*
X151843067Y-98319041D01*
X151850427Y-98446697D01*
X151851564Y-98451743D01*
X151851565Y-98451749D01*
X151875192Y-98556587D01*
X151901346Y-98672642D01*
X151903288Y-98677424D01*
X151903289Y-98677428D01*
X151986540Y-98882450D01*
X151988484Y-98887237D01*
X152109501Y-99084719D01*
X152261147Y-99259784D01*
X152439349Y-99407730D01*
X152639322Y-99524584D01*
X152855694Y-99607209D01*
X152860760Y-99608240D01*
X152860761Y-99608240D01*
X152913846Y-99619040D01*
X153082656Y-99653385D01*
X153213324Y-99658176D01*
X153308949Y-99661683D01*
X153308953Y-99661683D01*
X153314113Y-99661872D01*
X153319233Y-99661216D01*
X153319235Y-99661216D01*
X153392270Y-99651860D01*
X153543847Y-99632442D01*
X153548795Y-99630957D01*
X153548802Y-99630956D01*
X153760747Y-99567369D01*
X153765690Y-99565886D01*
X153770324Y-99563616D01*
X153969049Y-99466262D01*
X153969052Y-99466260D01*
X153973684Y-99463991D01*
X154162243Y-99329494D01*
X154326303Y-99166005D01*
X154461458Y-98977917D01*
X154508641Y-98882450D01*
X154561784Y-98774922D01*
X154561785Y-98774920D01*
X154564078Y-98770280D01*
X154631408Y-98548671D01*
X154661640Y-98319041D01*
X154663327Y-98250000D01*
X154657032Y-98173434D01*
X154644773Y-98024318D01*
X154644772Y-98024312D01*
X154644349Y-98019167D01*
X154610721Y-97885288D01*
X154589184Y-97799544D01*
X154589183Y-97799540D01*
X154587925Y-97794533D01*
X154585866Y-97789797D01*
X154497630Y-97586868D01*
X154497628Y-97586865D01*
X154495570Y-97582131D01*
X154369764Y-97387665D01*
X154213887Y-97216358D01*
X154209836Y-97213159D01*
X154209832Y-97213155D01*
X154036177Y-97076011D01*
X154036172Y-97076008D01*
X154032123Y-97072810D01*
X154027607Y-97070317D01*
X154027604Y-97070315D01*
X153833879Y-96963373D01*
X153833875Y-96963371D01*
X153829355Y-96960876D01*
X153824486Y-96959152D01*
X153824482Y-96959150D01*
X153615903Y-96885288D01*
X153615899Y-96885287D01*
X153611028Y-96883562D01*
X153605935Y-96882655D01*
X153605932Y-96882654D01*
X153388095Y-96843851D01*
X153388089Y-96843850D01*
X153383006Y-96842945D01*
X153310096Y-96842054D01*
X153156581Y-96840179D01*
X153156579Y-96840179D01*
X153151411Y-96840116D01*
X152922464Y-96875150D01*
X152702314Y-96947106D01*
X152697726Y-96949494D01*
X152697722Y-96949496D01*
X152671065Y-96963373D01*
X152496872Y-97054052D01*
X152492739Y-97057155D01*
X152492736Y-97057157D01*
X152467625Y-97076011D01*
X152311655Y-97193117D01*
X152151639Y-97360564D01*
X152148725Y-97364836D01*
X152148724Y-97364837D01*
X152133152Y-97387665D01*
X152021119Y-97551899D01*
X151923602Y-97761981D01*
X151861707Y-97985169D01*
X151837095Y-98215469D01*
X148160488Y-98215469D01*
X148157032Y-98173434D01*
X148144773Y-98024318D01*
X148144772Y-98024312D01*
X148144349Y-98019167D01*
X148110721Y-97885288D01*
X148089184Y-97799544D01*
X148089183Y-97799540D01*
X148087925Y-97794533D01*
X148085866Y-97789797D01*
X147997630Y-97586868D01*
X147997628Y-97586865D01*
X147995570Y-97582131D01*
X147869764Y-97387665D01*
X147713887Y-97216358D01*
X147709836Y-97213159D01*
X147709832Y-97213155D01*
X147536177Y-97076011D01*
X147536172Y-97076008D01*
X147532123Y-97072810D01*
X147527607Y-97070317D01*
X147527604Y-97070315D01*
X147333879Y-96963373D01*
X147333875Y-96963371D01*
X147329355Y-96960876D01*
X147324486Y-96959152D01*
X147324482Y-96959150D01*
X147115903Y-96885288D01*
X147115899Y-96885287D01*
X147111028Y-96883562D01*
X147105935Y-96882655D01*
X147105932Y-96882654D01*
X146888095Y-96843851D01*
X146888089Y-96843850D01*
X146883006Y-96842945D01*
X146810096Y-96842054D01*
X146656581Y-96840179D01*
X146656579Y-96840179D01*
X146651411Y-96840116D01*
X146422464Y-96875150D01*
X146202314Y-96947106D01*
X146197726Y-96949494D01*
X146197722Y-96949496D01*
X146171065Y-96963373D01*
X145996872Y-97054052D01*
X145992739Y-97057155D01*
X145992736Y-97057157D01*
X145967625Y-97076011D01*
X145811655Y-97193117D01*
X145651639Y-97360564D01*
X145648725Y-97364836D01*
X145648724Y-97364837D01*
X145633152Y-97387665D01*
X145521119Y-97551899D01*
X145423602Y-97761981D01*
X145361707Y-97985169D01*
X145337095Y-98215469D01*
X128212761Y-98215469D01*
X128209836Y-98213159D01*
X128209832Y-98213155D01*
X128036177Y-98076011D01*
X128036172Y-98076008D01*
X128032123Y-98072810D01*
X128027607Y-98070317D01*
X128027604Y-98070315D01*
X127833879Y-97963373D01*
X127833875Y-97963371D01*
X127829355Y-97960876D01*
X127824486Y-97959152D01*
X127824482Y-97959150D01*
X127615903Y-97885288D01*
X127615899Y-97885287D01*
X127611028Y-97883562D01*
X127605935Y-97882655D01*
X127605932Y-97882654D01*
X127388095Y-97843851D01*
X127388089Y-97843850D01*
X127383006Y-97842945D01*
X127310096Y-97842054D01*
X127156581Y-97840179D01*
X127156579Y-97840179D01*
X127151411Y-97840116D01*
X126922464Y-97875150D01*
X126702314Y-97947106D01*
X126697726Y-97949494D01*
X126697722Y-97949496D01*
X126501461Y-98051663D01*
X126496872Y-98054052D01*
X126492739Y-98057155D01*
X126492736Y-98057157D01*
X126467625Y-98076011D01*
X126311655Y-98193117D01*
X126308083Y-98196855D01*
X126188149Y-98322359D01*
X126151639Y-98360564D01*
X126148725Y-98364836D01*
X126148724Y-98364837D01*
X126133152Y-98387665D01*
X126021119Y-98551899D01*
X125923602Y-98761981D01*
X125861707Y-98985169D01*
X125837095Y-99215469D01*
X122160488Y-99215469D01*
X122156076Y-99161808D01*
X122144773Y-99024318D01*
X122144772Y-99024312D01*
X122144349Y-99019167D01*
X122087925Y-98794533D01*
X122079398Y-98774922D01*
X121997630Y-98586868D01*
X121997628Y-98586865D01*
X121995570Y-98582131D01*
X121869764Y-98387665D01*
X121713887Y-98216358D01*
X121709836Y-98213159D01*
X121709832Y-98213155D01*
X121536177Y-98076011D01*
X121536172Y-98076008D01*
X121532123Y-98072810D01*
X121527607Y-98070317D01*
X121527604Y-98070315D01*
X121333879Y-97963373D01*
X121333875Y-97963371D01*
X121329355Y-97960876D01*
X121324486Y-97959152D01*
X121324482Y-97959150D01*
X121115903Y-97885288D01*
X121115899Y-97885287D01*
X121111028Y-97883562D01*
X121105935Y-97882655D01*
X121105932Y-97882654D01*
X120888095Y-97843851D01*
X120888089Y-97843850D01*
X120883006Y-97842945D01*
X120810096Y-97842054D01*
X120656581Y-97840179D01*
X120656579Y-97840179D01*
X120651411Y-97840116D01*
X120422464Y-97875150D01*
X120202314Y-97947106D01*
X120197726Y-97949494D01*
X120197722Y-97949496D01*
X120001461Y-98051663D01*
X119996872Y-98054052D01*
X119992739Y-98057155D01*
X119992736Y-98057157D01*
X119967625Y-98076011D01*
X119811655Y-98193117D01*
X119808083Y-98196855D01*
X119688149Y-98322359D01*
X119651639Y-98360564D01*
X119648725Y-98364836D01*
X119648724Y-98364837D01*
X119633152Y-98387665D01*
X119521119Y-98551899D01*
X119423602Y-98761981D01*
X119361707Y-98985169D01*
X119337095Y-99215469D01*
X115508000Y-99215469D01*
X115508000Y-94715469D01*
X119337095Y-94715469D01*
X119337392Y-94720622D01*
X119337392Y-94720625D01*
X119347881Y-94902548D01*
X119350427Y-94946697D01*
X119351564Y-94951743D01*
X119351565Y-94951749D01*
X119376776Y-95063616D01*
X119401346Y-95172642D01*
X119403288Y-95177424D01*
X119403289Y-95177428D01*
X119445614Y-95281661D01*
X119488484Y-95387237D01*
X119609501Y-95584719D01*
X119761147Y-95759784D01*
X119939349Y-95907730D01*
X120139322Y-96024584D01*
X120355694Y-96107209D01*
X120360760Y-96108240D01*
X120360761Y-96108240D01*
X120413846Y-96119040D01*
X120582656Y-96153385D01*
X120713324Y-96158176D01*
X120808949Y-96161683D01*
X120808953Y-96161683D01*
X120814113Y-96161872D01*
X120819233Y-96161216D01*
X120819235Y-96161216D01*
X120892270Y-96151860D01*
X121043847Y-96132442D01*
X121048795Y-96130957D01*
X121048802Y-96130956D01*
X121260747Y-96067369D01*
X121265690Y-96065886D01*
X121346236Y-96026427D01*
X121469049Y-95966262D01*
X121469052Y-95966260D01*
X121473684Y-95963991D01*
X121662243Y-95829494D01*
X121826303Y-95666005D01*
X121961458Y-95477917D01*
X121978370Y-95443699D01*
X122061784Y-95274922D01*
X122061785Y-95274920D01*
X122064078Y-95270280D01*
X122131408Y-95048671D01*
X122161640Y-94819041D01*
X122163088Y-94759784D01*
X122163245Y-94753365D01*
X122163245Y-94753361D01*
X122163327Y-94750000D01*
X122160488Y-94715469D01*
X125837095Y-94715469D01*
X125837392Y-94720622D01*
X125837392Y-94720625D01*
X125847881Y-94902548D01*
X125850427Y-94946697D01*
X125851564Y-94951743D01*
X125851565Y-94951749D01*
X125876776Y-95063616D01*
X125901346Y-95172642D01*
X125903288Y-95177424D01*
X125903289Y-95177428D01*
X125945614Y-95281661D01*
X125988484Y-95387237D01*
X126109501Y-95584719D01*
X126261147Y-95759784D01*
X126439349Y-95907730D01*
X126639322Y-96024584D01*
X126855694Y-96107209D01*
X126860760Y-96108240D01*
X126860761Y-96108240D01*
X126913846Y-96119040D01*
X127082656Y-96153385D01*
X127213324Y-96158176D01*
X127308949Y-96161683D01*
X127308953Y-96161683D01*
X127314113Y-96161872D01*
X127319233Y-96161216D01*
X127319235Y-96161216D01*
X127392270Y-96151860D01*
X127543847Y-96132442D01*
X127548795Y-96130957D01*
X127548802Y-96130956D01*
X127760747Y-96067369D01*
X127765690Y-96065886D01*
X127846236Y-96026427D01*
X127969049Y-95966262D01*
X127969052Y-95966260D01*
X127973684Y-95963991D01*
X128162243Y-95829494D01*
X128326303Y-95666005D01*
X128461458Y-95477917D01*
X128478370Y-95443699D01*
X128561784Y-95274922D01*
X128561785Y-95274920D01*
X128564078Y-95270280D01*
X128631408Y-95048671D01*
X128661640Y-94819041D01*
X128663088Y-94759784D01*
X128663245Y-94753365D01*
X128663245Y-94753361D01*
X128663327Y-94750000D01*
X128656076Y-94661808D01*
X128644773Y-94524318D01*
X128644772Y-94524312D01*
X128644349Y-94519167D01*
X128587925Y-94294533D01*
X128579398Y-94274922D01*
X128497630Y-94086868D01*
X128497628Y-94086865D01*
X128495570Y-94082131D01*
X128369764Y-93887665D01*
X128213887Y-93716358D01*
X128212761Y-93715469D01*
X145337095Y-93715469D01*
X145337392Y-93720622D01*
X145337392Y-93720625D01*
X145343067Y-93819041D01*
X145350427Y-93946697D01*
X145351564Y-93951743D01*
X145351565Y-93951749D01*
X145375192Y-94056587D01*
X145401346Y-94172642D01*
X145403288Y-94177424D01*
X145403289Y-94177428D01*
X145485273Y-94379329D01*
X145488484Y-94387237D01*
X145609501Y-94584719D01*
X145761147Y-94759784D01*
X145939349Y-94907730D01*
X146139322Y-95024584D01*
X146355694Y-95107209D01*
X146360760Y-95108240D01*
X146360761Y-95108240D01*
X146413846Y-95119040D01*
X146582656Y-95153385D01*
X146713324Y-95158176D01*
X146808949Y-95161683D01*
X146808953Y-95161683D01*
X146814113Y-95161872D01*
X146819233Y-95161216D01*
X146819235Y-95161216D01*
X146892270Y-95151860D01*
X147043847Y-95132442D01*
X147048795Y-95130957D01*
X147048802Y-95130956D01*
X147260747Y-95067369D01*
X147265690Y-95065886D01*
X147270324Y-95063616D01*
X147469049Y-94966262D01*
X147469052Y-94966260D01*
X147473684Y-94963991D01*
X147662243Y-94829494D01*
X147826303Y-94666005D01*
X147961458Y-94477917D01*
X148008641Y-94382450D01*
X148061784Y-94274922D01*
X148061785Y-94274920D01*
X148064078Y-94270280D01*
X148131408Y-94048671D01*
X148161640Y-93819041D01*
X148162552Y-93781727D01*
X148163245Y-93753365D01*
X148163245Y-93753361D01*
X148163327Y-93750000D01*
X148160488Y-93715469D01*
X151837095Y-93715469D01*
X151837392Y-93720622D01*
X151837392Y-93720625D01*
X151843067Y-93819041D01*
X151850427Y-93946697D01*
X151851564Y-93951743D01*
X151851565Y-93951749D01*
X151875192Y-94056587D01*
X151901346Y-94172642D01*
X151903288Y-94177424D01*
X151903289Y-94177428D01*
X151985273Y-94379329D01*
X151988484Y-94387237D01*
X152109501Y-94584719D01*
X152261147Y-94759784D01*
X152439349Y-94907730D01*
X152639322Y-95024584D01*
X152855694Y-95107209D01*
X152860760Y-95108240D01*
X152860761Y-95108240D01*
X152913846Y-95119040D01*
X153082656Y-95153385D01*
X153213324Y-95158176D01*
X153308949Y-95161683D01*
X153308953Y-95161683D01*
X153314113Y-95161872D01*
X153319233Y-95161216D01*
X153319235Y-95161216D01*
X153392270Y-95151860D01*
X153543847Y-95132442D01*
X153548795Y-95130957D01*
X153548802Y-95130956D01*
X153760747Y-95067369D01*
X153765690Y-95065886D01*
X153770324Y-95063616D01*
X153969049Y-94966262D01*
X153969052Y-94966260D01*
X153973684Y-94963991D01*
X154059238Y-94902966D01*
X178393257Y-94902966D01*
X178423565Y-95037446D01*
X178426645Y-95047275D01*
X178506770Y-95244603D01*
X178511413Y-95253794D01*
X178622694Y-95435388D01*
X178628777Y-95443699D01*
X178768213Y-95604667D01*
X178775580Y-95611883D01*
X178939434Y-95747916D01*
X178947881Y-95753831D01*
X179131756Y-95861279D01*
X179141042Y-95865729D01*
X179340001Y-95941703D01*
X179349899Y-95944579D01*
X179453250Y-95965606D01*
X179467299Y-95964410D01*
X179471000Y-95954065D01*
X179471000Y-95953517D01*
X179979000Y-95953517D01*
X179983064Y-95967359D01*
X179996478Y-95969393D01*
X180003184Y-95968534D01*
X180013262Y-95966392D01*
X180217255Y-95905191D01*
X180226842Y-95901433D01*
X180418095Y-95807739D01*
X180426945Y-95802464D01*
X180600328Y-95678792D01*
X180608200Y-95672139D01*
X180759052Y-95521812D01*
X180765730Y-95513965D01*
X180893022Y-95336819D01*
X180894147Y-95337627D01*
X180941669Y-95293876D01*
X181011607Y-95281661D01*
X181077046Y-95309197D01*
X181104870Y-95341028D01*
X181162690Y-95435383D01*
X181168777Y-95443699D01*
X181308213Y-95604667D01*
X181315580Y-95611883D01*
X181479434Y-95747916D01*
X181487881Y-95753831D01*
X181671756Y-95861279D01*
X181681042Y-95865729D01*
X181880001Y-95941703D01*
X181889899Y-95944579D01*
X181993250Y-95965606D01*
X182007299Y-95964410D01*
X182011000Y-95954065D01*
X182011000Y-95953517D01*
X182519000Y-95953517D01*
X182523064Y-95967359D01*
X182536478Y-95969393D01*
X182543184Y-95968534D01*
X182553262Y-95966392D01*
X182757255Y-95905191D01*
X182766842Y-95901433D01*
X182958095Y-95807739D01*
X182966945Y-95802464D01*
X183140328Y-95678792D01*
X183148200Y-95672139D01*
X183299052Y-95521812D01*
X183305730Y-95513965D01*
X183430003Y-95341020D01*
X183435313Y-95332183D01*
X183529670Y-95141267D01*
X183533469Y-95131672D01*
X183595377Y-94927910D01*
X183597555Y-94917837D01*
X183598986Y-94906962D01*
X183596775Y-94892778D01*
X183583617Y-94889000D01*
X182537115Y-94889000D01*
X182521876Y-94893475D01*
X182520671Y-94894865D01*
X182519000Y-94902548D01*
X182519000Y-95953517D01*
X182011000Y-95953517D01*
X182011000Y-94907115D01*
X182006525Y-94891876D01*
X182005135Y-94890671D01*
X181997452Y-94889000D01*
X179997115Y-94889000D01*
X179981876Y-94893475D01*
X179980671Y-94894865D01*
X179979000Y-94902548D01*
X179979000Y-95953517D01*
X179471000Y-95953517D01*
X179471000Y-94907115D01*
X179466525Y-94891876D01*
X179465135Y-94890671D01*
X179457452Y-94889000D01*
X178408225Y-94889000D01*
X178394694Y-94892973D01*
X178393257Y-94902966D01*
X154059238Y-94902966D01*
X154162243Y-94829494D01*
X154326303Y-94666005D01*
X154461458Y-94477917D01*
X154508641Y-94382450D01*
X154515198Y-94369183D01*
X178389389Y-94369183D01*
X178390912Y-94377607D01*
X178403292Y-94381000D01*
X179452885Y-94381000D01*
X179468124Y-94376525D01*
X179469329Y-94375135D01*
X179471000Y-94367452D01*
X179471000Y-94362885D01*
X179979000Y-94362885D01*
X179983475Y-94378124D01*
X179984865Y-94379329D01*
X179992548Y-94381000D01*
X181992885Y-94381000D01*
X182008124Y-94376525D01*
X182009329Y-94375135D01*
X182011000Y-94367452D01*
X182011000Y-94362885D01*
X182519000Y-94362885D01*
X182523475Y-94378124D01*
X182524865Y-94379329D01*
X182532548Y-94381000D01*
X183583344Y-94381000D01*
X183596875Y-94377027D01*
X183598180Y-94367947D01*
X183556214Y-94200875D01*
X183552894Y-94191124D01*
X183467972Y-93995814D01*
X183463105Y-93986739D01*
X183347426Y-93807926D01*
X183341136Y-93799757D01*
X183197806Y-93642240D01*
X183190273Y-93635215D01*
X183023139Y-93503222D01*
X183014552Y-93497517D01*
X182977116Y-93476851D01*
X182927146Y-93426419D01*
X182912374Y-93356976D01*
X182937490Y-93290571D01*
X182964842Y-93263964D01*
X183140327Y-93138792D01*
X183148200Y-93132139D01*
X183299052Y-92981812D01*
X183305730Y-92973965D01*
X183430003Y-92801020D01*
X183435313Y-92792183D01*
X183529670Y-92601267D01*
X183533469Y-92591672D01*
X183595377Y-92387910D01*
X183597555Y-92377837D01*
X183598986Y-92366962D01*
X183596775Y-92352778D01*
X183583617Y-92349000D01*
X182537115Y-92349000D01*
X182521876Y-92353475D01*
X182520671Y-92354865D01*
X182519000Y-92362548D01*
X182519000Y-94362885D01*
X182011000Y-94362885D01*
X182011000Y-92367115D01*
X182006525Y-92351876D01*
X182005135Y-92350671D01*
X181997452Y-92349000D01*
X179997115Y-92349000D01*
X179981876Y-92353475D01*
X179980671Y-92354865D01*
X179979000Y-92362548D01*
X179979000Y-94362885D01*
X179471000Y-94362885D01*
X179471000Y-92367115D01*
X179466525Y-92351876D01*
X179465135Y-92350671D01*
X179457452Y-92349000D01*
X178408225Y-92349000D01*
X178394694Y-92352973D01*
X178393257Y-92362966D01*
X178423565Y-92497446D01*
X178426645Y-92507275D01*
X178506770Y-92704603D01*
X178511413Y-92713794D01*
X178622694Y-92895388D01*
X178628777Y-92903699D01*
X178768213Y-93064667D01*
X178775580Y-93071883D01*
X178939434Y-93207916D01*
X178947881Y-93213831D01*
X179017479Y-93254501D01*
X179066203Y-93306140D01*
X179079274Y-93375923D01*
X179052543Y-93441694D01*
X179012087Y-93475053D01*
X179003462Y-93479542D01*
X178994738Y-93485036D01*
X178824433Y-93612905D01*
X178816726Y-93619748D01*
X178669590Y-93773717D01*
X178663104Y-93781727D01*
X178543098Y-93957649D01*
X178538000Y-93966623D01*
X178448338Y-94159783D01*
X178444775Y-94169470D01*
X178389389Y-94369183D01*
X154515198Y-94369183D01*
X154561784Y-94274922D01*
X154561785Y-94274920D01*
X154564078Y-94270280D01*
X154631408Y-94048671D01*
X154661640Y-93819041D01*
X154662552Y-93781727D01*
X154663245Y-93753365D01*
X154663245Y-93753361D01*
X154663327Y-93750000D01*
X154657032Y-93673434D01*
X154644773Y-93524318D01*
X154644772Y-93524312D01*
X154644349Y-93519167D01*
X154610721Y-93385288D01*
X154589184Y-93299544D01*
X154589183Y-93299540D01*
X154587925Y-93294533D01*
X154585866Y-93289797D01*
X154497630Y-93086868D01*
X154497628Y-93086865D01*
X154495570Y-93082131D01*
X154369764Y-92887665D01*
X154213887Y-92716358D01*
X154209836Y-92713159D01*
X154209832Y-92713155D01*
X154036177Y-92576011D01*
X154036172Y-92576008D01*
X154032123Y-92572810D01*
X154027607Y-92570317D01*
X154027604Y-92570315D01*
X153833879Y-92463373D01*
X153833875Y-92463371D01*
X153829355Y-92460876D01*
X153824486Y-92459152D01*
X153824482Y-92459150D01*
X153615903Y-92385288D01*
X153615899Y-92385287D01*
X153611028Y-92383562D01*
X153605935Y-92382655D01*
X153605932Y-92382654D01*
X153388095Y-92343851D01*
X153388089Y-92343850D01*
X153383006Y-92342945D01*
X153310096Y-92342054D01*
X153156581Y-92340179D01*
X153156579Y-92340179D01*
X153151411Y-92340116D01*
X152922464Y-92375150D01*
X152702314Y-92447106D01*
X152697726Y-92449494D01*
X152697722Y-92449496D01*
X152671065Y-92463373D01*
X152496872Y-92554052D01*
X152492739Y-92557155D01*
X152492736Y-92557157D01*
X152315790Y-92690012D01*
X152311655Y-92693117D01*
X152308083Y-92696855D01*
X152208541Y-92801020D01*
X152151639Y-92860564D01*
X152148725Y-92864836D01*
X152148724Y-92864837D01*
X152133152Y-92887665D01*
X152021119Y-93051899D01*
X151923602Y-93261981D01*
X151861707Y-93485169D01*
X151837095Y-93715469D01*
X148160488Y-93715469D01*
X148157032Y-93673434D01*
X148144773Y-93524318D01*
X148144772Y-93524312D01*
X148144349Y-93519167D01*
X148110721Y-93385288D01*
X148089184Y-93299544D01*
X148089183Y-93299540D01*
X148087925Y-93294533D01*
X148085866Y-93289797D01*
X147997630Y-93086868D01*
X147997628Y-93086865D01*
X147995570Y-93082131D01*
X147869764Y-92887665D01*
X147713887Y-92716358D01*
X147709836Y-92713159D01*
X147709832Y-92713155D01*
X147536177Y-92576011D01*
X147536172Y-92576008D01*
X147532123Y-92572810D01*
X147527607Y-92570317D01*
X147527604Y-92570315D01*
X147333879Y-92463373D01*
X147333875Y-92463371D01*
X147329355Y-92460876D01*
X147324486Y-92459152D01*
X147324482Y-92459150D01*
X147115903Y-92385288D01*
X147115899Y-92385287D01*
X147111028Y-92383562D01*
X147105935Y-92382655D01*
X147105932Y-92382654D01*
X146888095Y-92343851D01*
X146888089Y-92343850D01*
X146883006Y-92342945D01*
X146810096Y-92342054D01*
X146656581Y-92340179D01*
X146656579Y-92340179D01*
X146651411Y-92340116D01*
X146422464Y-92375150D01*
X146202314Y-92447106D01*
X146197726Y-92449494D01*
X146197722Y-92449496D01*
X146171065Y-92463373D01*
X145996872Y-92554052D01*
X145992739Y-92557155D01*
X145992736Y-92557157D01*
X145815790Y-92690012D01*
X145811655Y-92693117D01*
X145808083Y-92696855D01*
X145708541Y-92801020D01*
X145651639Y-92860564D01*
X145648725Y-92864836D01*
X145648724Y-92864837D01*
X145633152Y-92887665D01*
X145521119Y-93051899D01*
X145423602Y-93261981D01*
X145361707Y-93485169D01*
X145337095Y-93715469D01*
X128212761Y-93715469D01*
X128209836Y-93713159D01*
X128209832Y-93713155D01*
X128036177Y-93576011D01*
X128036172Y-93576008D01*
X128032123Y-93572810D01*
X128027607Y-93570317D01*
X128027604Y-93570315D01*
X127833879Y-93463373D01*
X127833875Y-93463371D01*
X127829355Y-93460876D01*
X127824486Y-93459152D01*
X127824482Y-93459150D01*
X127615903Y-93385288D01*
X127615899Y-93385287D01*
X127611028Y-93383562D01*
X127605935Y-93382655D01*
X127605932Y-93382654D01*
X127388095Y-93343851D01*
X127388089Y-93343850D01*
X127383006Y-93342945D01*
X127310096Y-93342054D01*
X127156581Y-93340179D01*
X127156579Y-93340179D01*
X127151411Y-93340116D01*
X126922464Y-93375150D01*
X126702314Y-93447106D01*
X126697726Y-93449494D01*
X126697722Y-93449496D01*
X126501461Y-93551663D01*
X126496872Y-93554052D01*
X126492739Y-93557155D01*
X126492736Y-93557157D01*
X126315790Y-93690012D01*
X126311655Y-93693117D01*
X126308083Y-93696855D01*
X126188149Y-93822359D01*
X126151639Y-93860564D01*
X126148725Y-93864836D01*
X126148724Y-93864837D01*
X126133152Y-93887665D01*
X126021119Y-94051899D01*
X125923602Y-94261981D01*
X125861707Y-94485169D01*
X125837095Y-94715469D01*
X122160488Y-94715469D01*
X122156076Y-94661808D01*
X122144773Y-94524318D01*
X122144772Y-94524312D01*
X122144349Y-94519167D01*
X122087925Y-94294533D01*
X122079398Y-94274922D01*
X121997630Y-94086868D01*
X121997628Y-94086865D01*
X121995570Y-94082131D01*
X121869764Y-93887665D01*
X121713887Y-93716358D01*
X121709836Y-93713159D01*
X121709832Y-93713155D01*
X121536177Y-93576011D01*
X121536172Y-93576008D01*
X121532123Y-93572810D01*
X121527607Y-93570317D01*
X121527604Y-93570315D01*
X121333879Y-93463373D01*
X121333875Y-93463371D01*
X121329355Y-93460876D01*
X121324486Y-93459152D01*
X121324482Y-93459150D01*
X121115903Y-93385288D01*
X121115899Y-93385287D01*
X121111028Y-93383562D01*
X121105935Y-93382655D01*
X121105932Y-93382654D01*
X120888095Y-93343851D01*
X120888089Y-93343850D01*
X120883006Y-93342945D01*
X120810096Y-93342054D01*
X120656581Y-93340179D01*
X120656579Y-93340179D01*
X120651411Y-93340116D01*
X120422464Y-93375150D01*
X120202314Y-93447106D01*
X120197726Y-93449494D01*
X120197722Y-93449496D01*
X120001461Y-93551663D01*
X119996872Y-93554052D01*
X119992739Y-93557155D01*
X119992736Y-93557157D01*
X119815790Y-93690012D01*
X119811655Y-93693117D01*
X119808083Y-93696855D01*
X119688149Y-93822359D01*
X119651639Y-93860564D01*
X119648725Y-93864836D01*
X119648724Y-93864837D01*
X119633152Y-93887665D01*
X119521119Y-94051899D01*
X119423602Y-94261981D01*
X119361707Y-94485169D01*
X119337095Y-94715469D01*
X115508000Y-94715469D01*
X115508000Y-89521695D01*
X178362251Y-89521695D01*
X178362548Y-89526848D01*
X178362548Y-89526851D01*
X178368011Y-89621590D01*
X178375110Y-89744715D01*
X178376247Y-89749761D01*
X178376248Y-89749767D01*
X178396119Y-89837939D01*
X178424222Y-89962639D01*
X178508266Y-90169616D01*
X178559019Y-90252438D01*
X178622291Y-90355688D01*
X178624987Y-90360088D01*
X178771250Y-90528938D01*
X178943126Y-90671632D01*
X179016955Y-90714774D01*
X179065679Y-90766412D01*
X179078750Y-90836195D01*
X179052019Y-90901967D01*
X179011562Y-90935327D01*
X179003457Y-90939546D01*
X178994738Y-90945036D01*
X178824433Y-91072905D01*
X178816726Y-91079748D01*
X178669590Y-91233717D01*
X178663104Y-91241727D01*
X178543098Y-91417649D01*
X178538000Y-91426623D01*
X178448338Y-91619783D01*
X178444775Y-91629470D01*
X178389389Y-91829183D01*
X178390912Y-91837607D01*
X178403292Y-91841000D01*
X183583344Y-91841000D01*
X183596875Y-91837027D01*
X183598180Y-91827947D01*
X183556214Y-91660875D01*
X183552894Y-91651124D01*
X183467972Y-91455814D01*
X183463105Y-91446739D01*
X183347426Y-91267926D01*
X183341136Y-91259757D01*
X183197806Y-91102240D01*
X183190273Y-91095215D01*
X183023139Y-90963222D01*
X183014556Y-90957520D01*
X182977602Y-90937120D01*
X182927631Y-90886687D01*
X182912859Y-90817245D01*
X182937975Y-90750839D01*
X182965327Y-90724232D01*
X182988797Y-90707491D01*
X183144860Y-90596173D01*
X183303096Y-90438489D01*
X183362594Y-90355689D01*
X183430435Y-90261277D01*
X183433453Y-90257077D01*
X183454320Y-90214857D01*
X183530136Y-90061453D01*
X183530137Y-90061451D01*
X183532430Y-90056811D01*
X183597370Y-89843069D01*
X183626529Y-89621590D01*
X183628156Y-89555000D01*
X183609852Y-89332361D01*
X183555431Y-89115702D01*
X183466354Y-88910840D01*
X183345014Y-88723277D01*
X183194670Y-88558051D01*
X183190619Y-88554852D01*
X183190615Y-88554848D01*
X183023414Y-88422800D01*
X183023410Y-88422798D01*
X183019359Y-88419598D01*
X182978053Y-88396796D01*
X182928084Y-88346364D01*
X182913312Y-88276921D01*
X182938428Y-88210516D01*
X182965780Y-88183909D01*
X183027348Y-88139993D01*
X183144860Y-88056173D01*
X183303096Y-87898489D01*
X183318257Y-87877391D01*
X183430435Y-87721277D01*
X183433453Y-87717077D01*
X183454320Y-87674857D01*
X183530136Y-87521453D01*
X183530137Y-87521451D01*
X183532430Y-87516811D01*
X183597370Y-87303069D01*
X183626529Y-87081590D01*
X183628156Y-87015000D01*
X183609852Y-86792361D01*
X183555431Y-86575702D01*
X183466354Y-86370840D01*
X183345014Y-86183277D01*
X183194670Y-86018051D01*
X183190619Y-86014852D01*
X183190615Y-86014848D01*
X183023414Y-85882800D01*
X183023410Y-85882798D01*
X183019359Y-85879598D01*
X182978053Y-85856796D01*
X182928084Y-85806364D01*
X182913312Y-85736921D01*
X182938428Y-85670516D01*
X182965780Y-85643909D01*
X183009603Y-85612650D01*
X183144860Y-85516173D01*
X183303096Y-85358489D01*
X183318027Y-85337711D01*
X183430435Y-85181277D01*
X183433453Y-85177077D01*
X183454320Y-85134857D01*
X183530136Y-84981453D01*
X183530137Y-84981451D01*
X183532430Y-84976811D01*
X183597370Y-84763069D01*
X183626529Y-84541590D01*
X183628156Y-84475000D01*
X183609852Y-84252361D01*
X183555431Y-84035702D01*
X183466354Y-83830840D01*
X183345014Y-83643277D01*
X183194670Y-83478051D01*
X183190619Y-83474852D01*
X183190615Y-83474848D01*
X183023414Y-83342800D01*
X183023410Y-83342798D01*
X183019359Y-83339598D01*
X182978053Y-83316796D01*
X182928084Y-83266364D01*
X182913312Y-83196921D01*
X182938428Y-83130516D01*
X182965780Y-83103909D01*
X183009603Y-83072650D01*
X183144860Y-82976173D01*
X183303096Y-82818489D01*
X183354296Y-82747237D01*
X183430435Y-82641277D01*
X183433453Y-82637077D01*
X183454320Y-82594857D01*
X183530136Y-82441453D01*
X183530137Y-82441451D01*
X183532430Y-82436811D01*
X183575633Y-82294613D01*
X183595865Y-82228023D01*
X183595865Y-82228021D01*
X183597370Y-82223069D01*
X183626529Y-82001590D01*
X183627299Y-81970085D01*
X183628074Y-81938365D01*
X183628074Y-81938361D01*
X183628156Y-81935000D01*
X183609852Y-81712361D01*
X183555431Y-81495702D01*
X183466354Y-81290840D01*
X183345014Y-81103277D01*
X183194670Y-80938051D01*
X183190619Y-80934852D01*
X183190615Y-80934848D01*
X183023414Y-80802800D01*
X183023410Y-80802798D01*
X183019359Y-80799598D01*
X182978053Y-80776796D01*
X182928084Y-80726364D01*
X182913312Y-80656921D01*
X182938428Y-80590516D01*
X182965780Y-80563909D01*
X183009603Y-80532650D01*
X183144860Y-80436173D01*
X183303096Y-80278489D01*
X183362594Y-80195689D01*
X183430435Y-80101277D01*
X183433453Y-80097077D01*
X183454320Y-80054857D01*
X183530136Y-79901453D01*
X183530137Y-79901451D01*
X183532430Y-79896811D01*
X183597370Y-79683069D01*
X183626529Y-79461590D01*
X183628156Y-79395000D01*
X183609852Y-79172361D01*
X183555431Y-78955702D01*
X183466354Y-78750840D01*
X183345014Y-78563277D01*
X183194670Y-78398051D01*
X183190619Y-78394852D01*
X183190615Y-78394848D01*
X183023414Y-78262800D01*
X183023410Y-78262798D01*
X183019359Y-78259598D01*
X182978053Y-78236796D01*
X182928084Y-78186364D01*
X182913312Y-78116921D01*
X182938428Y-78050516D01*
X182965780Y-78023909D01*
X183009603Y-77992650D01*
X183144860Y-77896173D01*
X183303096Y-77738489D01*
X183362594Y-77655689D01*
X183430435Y-77561277D01*
X183433453Y-77557077D01*
X183454320Y-77514857D01*
X183530136Y-77361453D01*
X183530137Y-77361451D01*
X183532430Y-77356811D01*
X183597370Y-77143069D01*
X183626529Y-76921590D01*
X183628156Y-76855000D01*
X183609852Y-76632361D01*
X183555431Y-76415702D01*
X183466354Y-76210840D01*
X183345014Y-76023277D01*
X183194670Y-75858051D01*
X183190619Y-75854852D01*
X183190615Y-75854848D01*
X183023414Y-75722800D01*
X183023410Y-75722798D01*
X183019359Y-75719598D01*
X182978053Y-75696796D01*
X182928084Y-75646364D01*
X182913312Y-75576921D01*
X182938428Y-75510516D01*
X182965780Y-75483909D01*
X183009603Y-75452650D01*
X183144860Y-75356173D01*
X183303096Y-75198489D01*
X183362594Y-75115689D01*
X183430435Y-75021277D01*
X183433453Y-75017077D01*
X183454320Y-74974857D01*
X183530136Y-74821453D01*
X183530137Y-74821451D01*
X183532430Y-74816811D01*
X183597370Y-74603069D01*
X183626529Y-74381590D01*
X183628156Y-74315000D01*
X183609852Y-74092361D01*
X183555431Y-73875702D01*
X183466354Y-73670840D01*
X183345014Y-73483277D01*
X183194670Y-73318051D01*
X183190619Y-73314852D01*
X183190615Y-73314848D01*
X183023414Y-73182800D01*
X183023410Y-73182798D01*
X183019359Y-73179598D01*
X182978053Y-73156796D01*
X182928084Y-73106364D01*
X182913312Y-73036921D01*
X182938428Y-72970516D01*
X182965780Y-72943909D01*
X183009603Y-72912650D01*
X183144860Y-72816173D01*
X183303096Y-72658489D01*
X183362594Y-72575689D01*
X183430435Y-72481277D01*
X183433453Y-72477077D01*
X183454320Y-72434857D01*
X183530136Y-72281453D01*
X183530137Y-72281451D01*
X183532430Y-72276811D01*
X183597370Y-72063069D01*
X183626529Y-71841590D01*
X183628156Y-71775000D01*
X183609852Y-71552361D01*
X183555431Y-71335702D01*
X183466354Y-71130840D01*
X183345014Y-70943277D01*
X183194670Y-70778051D01*
X183190619Y-70774852D01*
X183190615Y-70774848D01*
X183023414Y-70642800D01*
X183023410Y-70642798D01*
X183019359Y-70639598D01*
X182978053Y-70616796D01*
X182928084Y-70566364D01*
X182913312Y-70496921D01*
X182938428Y-70430516D01*
X182965780Y-70403909D01*
X183009603Y-70372650D01*
X183144860Y-70276173D01*
X183303096Y-70118489D01*
X183362594Y-70035689D01*
X183430435Y-69941277D01*
X183433453Y-69937077D01*
X183454320Y-69894857D01*
X183530136Y-69741453D01*
X183530137Y-69741451D01*
X183532430Y-69736811D01*
X183597370Y-69523069D01*
X183626529Y-69301590D01*
X183628156Y-69235000D01*
X183609852Y-69012361D01*
X183555431Y-68795702D01*
X183466354Y-68590840D01*
X183345014Y-68403277D01*
X183194670Y-68238051D01*
X183190619Y-68234852D01*
X183190615Y-68234848D01*
X183023414Y-68102800D01*
X183023410Y-68102798D01*
X183019359Y-68099598D01*
X182978053Y-68076796D01*
X182928084Y-68026364D01*
X182913312Y-67956921D01*
X182938428Y-67890516D01*
X182965780Y-67863909D01*
X183009603Y-67832650D01*
X183144860Y-67736173D01*
X183303096Y-67578489D01*
X183362594Y-67495689D01*
X183430435Y-67401277D01*
X183433453Y-67397077D01*
X183454320Y-67354857D01*
X183530136Y-67201453D01*
X183530137Y-67201451D01*
X183532430Y-67196811D01*
X183597370Y-66983069D01*
X183626529Y-66761590D01*
X183628156Y-66695000D01*
X183609852Y-66472361D01*
X183555431Y-66255702D01*
X183466354Y-66050840D01*
X183345014Y-65863277D01*
X183194670Y-65698051D01*
X183190619Y-65694852D01*
X183190615Y-65694848D01*
X183023414Y-65562800D01*
X183023410Y-65562798D01*
X183019359Y-65559598D01*
X182978053Y-65536796D01*
X182928084Y-65486364D01*
X182913312Y-65416921D01*
X182938428Y-65350516D01*
X182965780Y-65323909D01*
X183009603Y-65292650D01*
X183144860Y-65196173D01*
X183303096Y-65038489D01*
X183362594Y-64955689D01*
X183430435Y-64861277D01*
X183433453Y-64857077D01*
X183454320Y-64814857D01*
X183530136Y-64661453D01*
X183530137Y-64661451D01*
X183532430Y-64656811D01*
X183597370Y-64443069D01*
X183626529Y-64221590D01*
X183628156Y-64155000D01*
X183609852Y-63932361D01*
X183555431Y-63715702D01*
X183466354Y-63510840D01*
X183345014Y-63323277D01*
X183194670Y-63158051D01*
X183190619Y-63154852D01*
X183190615Y-63154848D01*
X183023414Y-63022800D01*
X183023410Y-63022798D01*
X183019359Y-63019598D01*
X182978053Y-62996796D01*
X182928084Y-62946364D01*
X182913312Y-62876921D01*
X182938428Y-62810516D01*
X182965780Y-62783909D01*
X183009603Y-62752650D01*
X183144860Y-62656173D01*
X183303096Y-62498489D01*
X183362594Y-62415689D01*
X183430435Y-62321277D01*
X183433453Y-62317077D01*
X183454320Y-62274857D01*
X183530136Y-62121453D01*
X183530137Y-62121451D01*
X183532430Y-62116811D01*
X183597370Y-61903069D01*
X183626529Y-61681590D01*
X183628156Y-61615000D01*
X183609852Y-61392361D01*
X183555431Y-61175702D01*
X183466354Y-60970840D01*
X183345014Y-60783277D01*
X183194670Y-60618051D01*
X183190619Y-60614852D01*
X183190615Y-60614848D01*
X183023414Y-60482800D01*
X183023410Y-60482798D01*
X183019359Y-60479598D01*
X182978053Y-60456796D01*
X182928084Y-60406364D01*
X182913312Y-60336921D01*
X182938428Y-60270516D01*
X182965780Y-60243909D01*
X183009603Y-60212650D01*
X183144860Y-60116173D01*
X183303096Y-59958489D01*
X183362594Y-59875689D01*
X183430435Y-59781277D01*
X183433453Y-59777077D01*
X183454320Y-59734857D01*
X183530136Y-59581453D01*
X183530137Y-59581451D01*
X183532430Y-59576811D01*
X183597370Y-59363069D01*
X183626529Y-59141590D01*
X183628156Y-59075000D01*
X183609852Y-58852361D01*
X183555431Y-58635702D01*
X183466354Y-58430840D01*
X183345014Y-58243277D01*
X183194670Y-58078051D01*
X183190619Y-58074852D01*
X183190615Y-58074848D01*
X183023414Y-57942800D01*
X183023410Y-57942798D01*
X183019359Y-57939598D01*
X182978053Y-57916796D01*
X182928084Y-57866364D01*
X182913312Y-57796921D01*
X182938428Y-57730516D01*
X182965780Y-57703909D01*
X183009603Y-57672650D01*
X183144860Y-57576173D01*
X183303096Y-57418489D01*
X183362594Y-57335689D01*
X183430435Y-57241277D01*
X183433453Y-57237077D01*
X183454320Y-57194857D01*
X183530136Y-57041453D01*
X183530137Y-57041451D01*
X183532430Y-57036811D01*
X183597370Y-56823069D01*
X183626529Y-56601590D01*
X183628156Y-56535000D01*
X183609852Y-56312361D01*
X183555431Y-56095702D01*
X183466354Y-55890840D01*
X183345014Y-55703277D01*
X183194670Y-55538051D01*
X183190619Y-55534852D01*
X183190615Y-55534848D01*
X183023414Y-55402800D01*
X183023410Y-55402798D01*
X183019359Y-55399598D01*
X182978053Y-55376796D01*
X182928084Y-55326364D01*
X182913312Y-55256921D01*
X182938428Y-55190516D01*
X182965780Y-55163909D01*
X183009603Y-55132650D01*
X183144860Y-55036173D01*
X183303096Y-54878489D01*
X183362594Y-54795689D01*
X183430435Y-54701277D01*
X183433453Y-54697077D01*
X183454320Y-54654857D01*
X183530136Y-54501453D01*
X183530137Y-54501451D01*
X183532430Y-54496811D01*
X183597370Y-54283069D01*
X183626529Y-54061590D01*
X183628156Y-53995000D01*
X183609852Y-53772361D01*
X183555431Y-53555702D01*
X183466354Y-53350840D01*
X183345014Y-53163277D01*
X183194670Y-52998051D01*
X183190619Y-52994852D01*
X183190615Y-52994848D01*
X183023414Y-52862800D01*
X183023410Y-52862798D01*
X183019359Y-52859598D01*
X182978053Y-52836796D01*
X182928084Y-52786364D01*
X182913312Y-52716921D01*
X182938428Y-52650516D01*
X182965780Y-52623909D01*
X183009603Y-52592650D01*
X183144860Y-52496173D01*
X183303096Y-52338489D01*
X183362594Y-52255689D01*
X183430435Y-52161277D01*
X183433453Y-52157077D01*
X183454320Y-52114857D01*
X183530136Y-51961453D01*
X183530137Y-51961451D01*
X183532430Y-51956811D01*
X183597370Y-51743069D01*
X183626529Y-51521590D01*
X183628156Y-51455000D01*
X183609852Y-51232361D01*
X183555431Y-51015702D01*
X183466354Y-50810840D01*
X183345014Y-50623277D01*
X183194670Y-50458051D01*
X183190619Y-50454852D01*
X183190615Y-50454848D01*
X183023414Y-50322800D01*
X183023410Y-50322798D01*
X183019359Y-50319598D01*
X182978053Y-50296796D01*
X182928084Y-50246364D01*
X182913312Y-50176921D01*
X182938428Y-50110516D01*
X182965780Y-50083909D01*
X183009603Y-50052650D01*
X183144860Y-49956173D01*
X183303096Y-49798489D01*
X183362594Y-49715689D01*
X183430435Y-49621277D01*
X183433453Y-49617077D01*
X183454320Y-49574857D01*
X183530136Y-49421453D01*
X183530137Y-49421451D01*
X183532430Y-49416811D01*
X183597370Y-49203069D01*
X183626529Y-48981590D01*
X183628156Y-48915000D01*
X183609852Y-48692361D01*
X183555431Y-48475702D01*
X183466354Y-48270840D01*
X183345014Y-48083277D01*
X183194670Y-47918051D01*
X183190619Y-47914852D01*
X183190615Y-47914848D01*
X183023414Y-47782800D01*
X183023410Y-47782798D01*
X183019359Y-47779598D01*
X182977569Y-47756529D01*
X182927598Y-47706097D01*
X182912826Y-47636654D01*
X182937942Y-47570248D01*
X182965294Y-47543641D01*
X183140328Y-47418792D01*
X183148200Y-47412139D01*
X183299052Y-47261812D01*
X183305730Y-47253965D01*
X183430003Y-47081020D01*
X183435313Y-47072183D01*
X183529670Y-46881267D01*
X183533469Y-46871672D01*
X183595377Y-46667910D01*
X183597555Y-46657837D01*
X183598986Y-46646962D01*
X183596775Y-46632778D01*
X183583617Y-46629000D01*
X178385116Y-46629000D01*
X178369877Y-46633475D01*
X178368672Y-46634865D01*
X178367001Y-46642548D01*
X178367001Y-47269669D01*
X178367371Y-47276490D01*
X178372895Y-47327352D01*
X178376521Y-47342604D01*
X178421676Y-47463054D01*
X178430214Y-47478649D01*
X178506715Y-47580724D01*
X178519276Y-47593285D01*
X178621351Y-47669786D01*
X178636946Y-47678324D01*
X178745827Y-47719142D01*
X178802591Y-47761784D01*
X178827291Y-47828345D01*
X178812083Y-47897694D01*
X178792691Y-47924175D01*
X178669200Y-48053401D01*
X178665629Y-48057138D01*
X178539743Y-48241680D01*
X178445688Y-48444305D01*
X178385989Y-48659570D01*
X178362251Y-48881695D01*
X178362548Y-48886848D01*
X178362548Y-48886851D01*
X178368011Y-48981590D01*
X178375110Y-49104715D01*
X178376247Y-49109761D01*
X178376248Y-49109767D01*
X178396119Y-49197939D01*
X178424222Y-49322639D01*
X178508266Y-49529616D01*
X178559019Y-49612438D01*
X178622291Y-49715688D01*
X178624987Y-49720088D01*
X178771250Y-49888938D01*
X178943126Y-50031632D01*
X179013595Y-50072811D01*
X179016445Y-50074476D01*
X179065169Y-50126114D01*
X179078240Y-50195897D01*
X179051509Y-50261669D01*
X179011055Y-50295027D01*
X178998607Y-50301507D01*
X178994474Y-50304610D01*
X178994471Y-50304612D01*
X178970247Y-50322800D01*
X178819965Y-50435635D01*
X178665629Y-50597138D01*
X178539743Y-50781680D01*
X178445688Y-50984305D01*
X178385989Y-51199570D01*
X178362251Y-51421695D01*
X178362548Y-51426848D01*
X178362548Y-51426851D01*
X178368011Y-51521590D01*
X178375110Y-51644715D01*
X178376247Y-51649761D01*
X178376248Y-51649767D01*
X178396119Y-51737939D01*
X178424222Y-51862639D01*
X178508266Y-52069616D01*
X178559019Y-52152438D01*
X178622291Y-52255688D01*
X178624987Y-52260088D01*
X178771250Y-52428938D01*
X178943126Y-52571632D01*
X179013595Y-52612811D01*
X179016445Y-52614476D01*
X179065169Y-52666114D01*
X179078240Y-52735897D01*
X179051509Y-52801669D01*
X179011055Y-52835027D01*
X178998607Y-52841507D01*
X178994474Y-52844610D01*
X178994471Y-52844612D01*
X178970247Y-52862800D01*
X178819965Y-52975635D01*
X178665629Y-53137138D01*
X178539743Y-53321680D01*
X178445688Y-53524305D01*
X178385989Y-53739570D01*
X178362251Y-53961695D01*
X178362548Y-53966848D01*
X178362548Y-53966851D01*
X178368011Y-54061590D01*
X178375110Y-54184715D01*
X178376247Y-54189761D01*
X178376248Y-54189767D01*
X178396119Y-54277939D01*
X178424222Y-54402639D01*
X178508266Y-54609616D01*
X178559019Y-54692438D01*
X178622291Y-54795688D01*
X178624987Y-54800088D01*
X178771250Y-54968938D01*
X178943126Y-55111632D01*
X179013595Y-55152811D01*
X179016445Y-55154476D01*
X179065169Y-55206114D01*
X179078240Y-55275897D01*
X179051509Y-55341669D01*
X179011055Y-55375027D01*
X178998607Y-55381507D01*
X178994474Y-55384610D01*
X178994471Y-55384612D01*
X178970247Y-55402800D01*
X178819965Y-55515635D01*
X178665629Y-55677138D01*
X178539743Y-55861680D01*
X178445688Y-56064305D01*
X178385989Y-56279570D01*
X178362251Y-56501695D01*
X178362548Y-56506848D01*
X178362548Y-56506851D01*
X178368011Y-56601590D01*
X178375110Y-56724715D01*
X178376247Y-56729761D01*
X178376248Y-56729767D01*
X178396119Y-56817939D01*
X178424222Y-56942639D01*
X178508266Y-57149616D01*
X178559019Y-57232438D01*
X178622291Y-57335688D01*
X178624987Y-57340088D01*
X178771250Y-57508938D01*
X178943126Y-57651632D01*
X179013595Y-57692811D01*
X179016445Y-57694476D01*
X179065169Y-57746114D01*
X179078240Y-57815897D01*
X179051509Y-57881669D01*
X179011055Y-57915027D01*
X178998607Y-57921507D01*
X178994474Y-57924610D01*
X178994471Y-57924612D01*
X178970247Y-57942800D01*
X178819965Y-58055635D01*
X178665629Y-58217138D01*
X178539743Y-58401680D01*
X178445688Y-58604305D01*
X178385989Y-58819570D01*
X178362251Y-59041695D01*
X178362548Y-59046848D01*
X178362548Y-59046851D01*
X178368011Y-59141590D01*
X178375110Y-59264715D01*
X178376247Y-59269761D01*
X178376248Y-59269767D01*
X178396119Y-59357939D01*
X178424222Y-59482639D01*
X178508266Y-59689616D01*
X178559019Y-59772438D01*
X178622291Y-59875688D01*
X178624987Y-59880088D01*
X178771250Y-60048938D01*
X178943126Y-60191632D01*
X179013595Y-60232811D01*
X179016445Y-60234476D01*
X179065169Y-60286114D01*
X179078240Y-60355897D01*
X179051509Y-60421669D01*
X179011055Y-60455027D01*
X178998607Y-60461507D01*
X178994474Y-60464610D01*
X178994471Y-60464612D01*
X178970247Y-60482800D01*
X178819965Y-60595635D01*
X178665629Y-60757138D01*
X178539743Y-60941680D01*
X178445688Y-61144305D01*
X178385989Y-61359570D01*
X178362251Y-61581695D01*
X178362548Y-61586848D01*
X178362548Y-61586851D01*
X178368011Y-61681590D01*
X178375110Y-61804715D01*
X178376247Y-61809761D01*
X178376248Y-61809767D01*
X178396119Y-61897939D01*
X178424222Y-62022639D01*
X178508266Y-62229616D01*
X178559019Y-62312438D01*
X178622291Y-62415688D01*
X178624987Y-62420088D01*
X178771250Y-62588938D01*
X178943126Y-62731632D01*
X179013595Y-62772811D01*
X179016445Y-62774476D01*
X179065169Y-62826114D01*
X179078240Y-62895897D01*
X179051509Y-62961669D01*
X179011055Y-62995027D01*
X178998607Y-63001507D01*
X178994474Y-63004610D01*
X178994471Y-63004612D01*
X178970247Y-63022800D01*
X178819965Y-63135635D01*
X178665629Y-63297138D01*
X178539743Y-63481680D01*
X178445688Y-63684305D01*
X178385989Y-63899570D01*
X178362251Y-64121695D01*
X178362548Y-64126848D01*
X178362548Y-64126851D01*
X178368011Y-64221590D01*
X178375110Y-64344715D01*
X178376247Y-64349761D01*
X178376248Y-64349767D01*
X178396119Y-64437939D01*
X178424222Y-64562639D01*
X178508266Y-64769616D01*
X178559019Y-64852438D01*
X178622291Y-64955688D01*
X178624987Y-64960088D01*
X178771250Y-65128938D01*
X178943126Y-65271632D01*
X179013595Y-65312811D01*
X179016445Y-65314476D01*
X179065169Y-65366114D01*
X179078240Y-65435897D01*
X179051509Y-65501669D01*
X179011055Y-65535027D01*
X178998607Y-65541507D01*
X178994474Y-65544610D01*
X178994471Y-65544612D01*
X178970247Y-65562800D01*
X178819965Y-65675635D01*
X178665629Y-65837138D01*
X178539743Y-66021680D01*
X178445688Y-66224305D01*
X178385989Y-66439570D01*
X178362251Y-66661695D01*
X178362548Y-66666848D01*
X178362548Y-66666851D01*
X178368011Y-66761590D01*
X178375110Y-66884715D01*
X178376247Y-66889761D01*
X178376248Y-66889767D01*
X178396119Y-66977939D01*
X178424222Y-67102639D01*
X178508266Y-67309616D01*
X178559019Y-67392438D01*
X178622291Y-67495688D01*
X178624987Y-67500088D01*
X178771250Y-67668938D01*
X178943126Y-67811632D01*
X179013595Y-67852811D01*
X179016445Y-67854476D01*
X179065169Y-67906114D01*
X179078240Y-67975897D01*
X179051509Y-68041669D01*
X179011055Y-68075027D01*
X178998607Y-68081507D01*
X178994474Y-68084610D01*
X178994471Y-68084612D01*
X178970247Y-68102800D01*
X178819965Y-68215635D01*
X178665629Y-68377138D01*
X178539743Y-68561680D01*
X178445688Y-68764305D01*
X178385989Y-68979570D01*
X178362251Y-69201695D01*
X178362548Y-69206848D01*
X178362548Y-69206851D01*
X178368011Y-69301590D01*
X178375110Y-69424715D01*
X178376247Y-69429761D01*
X178376248Y-69429767D01*
X178396119Y-69517939D01*
X178424222Y-69642639D01*
X178508266Y-69849616D01*
X178559019Y-69932438D01*
X178622291Y-70035688D01*
X178624987Y-70040088D01*
X178771250Y-70208938D01*
X178943126Y-70351632D01*
X179013595Y-70392811D01*
X179016445Y-70394476D01*
X179065169Y-70446114D01*
X179078240Y-70515897D01*
X179051509Y-70581669D01*
X179011055Y-70615027D01*
X178998607Y-70621507D01*
X178994474Y-70624610D01*
X178994471Y-70624612D01*
X178970247Y-70642800D01*
X178819965Y-70755635D01*
X178665629Y-70917138D01*
X178539743Y-71101680D01*
X178445688Y-71304305D01*
X178385989Y-71519570D01*
X178362251Y-71741695D01*
X178362548Y-71746848D01*
X178362548Y-71746851D01*
X178368011Y-71841590D01*
X178375110Y-71964715D01*
X178376247Y-71969761D01*
X178376248Y-71969767D01*
X178396119Y-72057939D01*
X178424222Y-72182639D01*
X178508266Y-72389616D01*
X178559019Y-72472438D01*
X178622291Y-72575688D01*
X178624987Y-72580088D01*
X178771250Y-72748938D01*
X178943126Y-72891632D01*
X179013595Y-72932811D01*
X179016445Y-72934476D01*
X179065169Y-72986114D01*
X179078240Y-73055897D01*
X179051509Y-73121669D01*
X179011055Y-73155027D01*
X178998607Y-73161507D01*
X178994474Y-73164610D01*
X178994471Y-73164612D01*
X178970247Y-73182800D01*
X178819965Y-73295635D01*
X178665629Y-73457138D01*
X178539743Y-73641680D01*
X178445688Y-73844305D01*
X178385989Y-74059570D01*
X178362251Y-74281695D01*
X178362548Y-74286848D01*
X178362548Y-74286851D01*
X178368011Y-74381590D01*
X178375110Y-74504715D01*
X178376247Y-74509761D01*
X178376248Y-74509767D01*
X178396119Y-74597939D01*
X178424222Y-74722639D01*
X178508266Y-74929616D01*
X178559019Y-75012438D01*
X178622291Y-75115688D01*
X178624987Y-75120088D01*
X178771250Y-75288938D01*
X178943126Y-75431632D01*
X179013595Y-75472811D01*
X179016445Y-75474476D01*
X179065169Y-75526114D01*
X179078240Y-75595897D01*
X179051509Y-75661669D01*
X179011055Y-75695027D01*
X178998607Y-75701507D01*
X178994474Y-75704610D01*
X178994471Y-75704612D01*
X178970247Y-75722800D01*
X178819965Y-75835635D01*
X178665629Y-75997138D01*
X178539743Y-76181680D01*
X178445688Y-76384305D01*
X178385989Y-76599570D01*
X178362251Y-76821695D01*
X178362548Y-76826848D01*
X178362548Y-76826851D01*
X178368011Y-76921590D01*
X178375110Y-77044715D01*
X178376247Y-77049761D01*
X178376248Y-77049767D01*
X178396119Y-77137939D01*
X178424222Y-77262639D01*
X178508266Y-77469616D01*
X178559019Y-77552438D01*
X178622291Y-77655688D01*
X178624987Y-77660088D01*
X178771250Y-77828938D01*
X178943126Y-77971632D01*
X179013595Y-78012811D01*
X179016445Y-78014476D01*
X179065169Y-78066114D01*
X179078240Y-78135897D01*
X179051509Y-78201669D01*
X179011055Y-78235027D01*
X178998607Y-78241507D01*
X178994474Y-78244610D01*
X178994471Y-78244612D01*
X178970247Y-78262800D01*
X178819965Y-78375635D01*
X178665629Y-78537138D01*
X178539743Y-78721680D01*
X178445688Y-78924305D01*
X178385989Y-79139570D01*
X178362251Y-79361695D01*
X178362548Y-79366848D01*
X178362548Y-79366851D01*
X178368011Y-79461590D01*
X178375110Y-79584715D01*
X178376247Y-79589761D01*
X178376248Y-79589767D01*
X178396119Y-79677939D01*
X178424222Y-79802639D01*
X178508266Y-80009616D01*
X178559019Y-80092438D01*
X178622291Y-80195688D01*
X178624987Y-80200088D01*
X178771250Y-80368938D01*
X178943126Y-80511632D01*
X179013595Y-80552811D01*
X179016445Y-80554476D01*
X179065169Y-80606114D01*
X179078240Y-80675897D01*
X179051509Y-80741669D01*
X179011055Y-80775027D01*
X178998607Y-80781507D01*
X178994474Y-80784610D01*
X178994471Y-80784612D01*
X178970247Y-80802800D01*
X178819965Y-80915635D01*
X178665629Y-81077138D01*
X178539743Y-81261680D01*
X178445688Y-81464305D01*
X178385989Y-81679570D01*
X178362251Y-81901695D01*
X178362548Y-81906848D01*
X178362548Y-81906851D01*
X178368011Y-82001590D01*
X178375110Y-82124715D01*
X178376247Y-82129761D01*
X178376248Y-82129767D01*
X178396119Y-82217939D01*
X178424222Y-82342639D01*
X178508266Y-82549616D01*
X178559019Y-82632438D01*
X178622291Y-82735688D01*
X178624987Y-82740088D01*
X178771250Y-82908938D01*
X178943126Y-83051632D01*
X179013595Y-83092811D01*
X179016445Y-83094476D01*
X179065169Y-83146114D01*
X179078240Y-83215897D01*
X179051509Y-83281669D01*
X179011055Y-83315027D01*
X178998607Y-83321507D01*
X178994474Y-83324610D01*
X178994471Y-83324612D01*
X178970247Y-83342800D01*
X178819965Y-83455635D01*
X178665629Y-83617138D01*
X178662720Y-83621403D01*
X178662714Y-83621411D01*
X178658088Y-83628192D01*
X178539743Y-83801680D01*
X178445688Y-84004305D01*
X178385989Y-84219570D01*
X178362251Y-84441695D01*
X178362548Y-84446848D01*
X178362548Y-84446851D01*
X178368011Y-84541590D01*
X178375110Y-84664715D01*
X178376247Y-84669761D01*
X178376248Y-84669767D01*
X178396119Y-84757939D01*
X178424222Y-84882639D01*
X178508266Y-85089616D01*
X178559019Y-85172438D01*
X178622291Y-85275688D01*
X178624987Y-85280088D01*
X178771250Y-85448938D01*
X178943126Y-85591632D01*
X179013595Y-85632811D01*
X179016445Y-85634476D01*
X179065169Y-85686114D01*
X179078240Y-85755897D01*
X179051509Y-85821669D01*
X179011055Y-85855027D01*
X178998607Y-85861507D01*
X178994474Y-85864610D01*
X178994471Y-85864612D01*
X178970247Y-85882800D01*
X178819965Y-85995635D01*
X178665629Y-86157138D01*
X178539743Y-86341680D01*
X178445688Y-86544305D01*
X178385989Y-86759570D01*
X178362251Y-86981695D01*
X178362548Y-86986848D01*
X178362548Y-86986851D01*
X178368011Y-87081590D01*
X178375110Y-87204715D01*
X178376247Y-87209761D01*
X178376248Y-87209767D01*
X178387267Y-87258661D01*
X178424222Y-87422639D01*
X178508266Y-87629616D01*
X178545576Y-87690500D01*
X178622291Y-87815688D01*
X178624987Y-87820088D01*
X178771250Y-87988938D01*
X178943126Y-88131632D01*
X179013595Y-88172811D01*
X179016445Y-88174476D01*
X179065169Y-88226114D01*
X179078240Y-88295897D01*
X179051509Y-88361669D01*
X179011055Y-88395027D01*
X178998607Y-88401507D01*
X178994474Y-88404610D01*
X178994471Y-88404612D01*
X178970247Y-88422800D01*
X178819965Y-88535635D01*
X178665629Y-88697138D01*
X178539743Y-88881680D01*
X178445688Y-89084305D01*
X178385989Y-89299570D01*
X178362251Y-89521695D01*
X115508000Y-89521695D01*
X115508000Y-84988609D01*
X118236734Y-84988609D01*
X118236906Y-84992004D01*
X118236906Y-84992005D01*
X118246330Y-85178028D01*
X118254591Y-85341106D01*
X118255128Y-85344461D01*
X118255129Y-85344467D01*
X118282048Y-85512529D01*
X118310412Y-85689613D01*
X118403546Y-86030053D01*
X118532903Y-86358443D01*
X118534486Y-86361458D01*
X118695384Y-86667926D01*
X118695389Y-86667934D01*
X118696968Y-86670942D01*
X118698862Y-86673760D01*
X118698867Y-86673769D01*
X118756523Y-86759570D01*
X118893824Y-86963895D01*
X119121167Y-87233873D01*
X119123627Y-87236224D01*
X119123630Y-87236227D01*
X119373875Y-87475366D01*
X119373882Y-87475372D01*
X119376338Y-87477719D01*
X119656351Y-87692581D01*
X119659269Y-87694355D01*
X119955017Y-87874173D01*
X119955022Y-87874176D01*
X119957932Y-87875945D01*
X119961020Y-87877391D01*
X119961019Y-87877391D01*
X120274468Y-88024222D01*
X120274478Y-88024226D01*
X120277552Y-88025666D01*
X120280770Y-88026768D01*
X120280773Y-88026769D01*
X120608241Y-88138887D01*
X120608245Y-88138888D01*
X120611472Y-88139993D01*
X120614802Y-88140743D01*
X120614811Y-88140746D01*
X120815161Y-88185896D01*
X120955786Y-88217587D01*
X120959171Y-88217973D01*
X120959179Y-88217974D01*
X121303083Y-88257157D01*
X121303091Y-88257157D01*
X121306466Y-88257542D01*
X121309870Y-88257560D01*
X121309873Y-88257560D01*
X121501627Y-88258564D01*
X121659411Y-88259390D01*
X121662797Y-88259040D01*
X121662799Y-88259040D01*
X122007098Y-88223461D01*
X122007107Y-88223460D01*
X122010490Y-88223110D01*
X122013823Y-88222396D01*
X122013826Y-88222395D01*
X122193346Y-88183909D01*
X122355598Y-88149125D01*
X122690697Y-88038301D01*
X123011867Y-87891936D01*
X123140282Y-87815689D01*
X123312407Y-87713489D01*
X123312412Y-87713486D01*
X123315352Y-87711740D01*
X123340870Y-87692581D01*
X123594867Y-87501874D01*
X123597600Y-87499822D01*
X123855310Y-87258661D01*
X124085468Y-86991078D01*
X124285380Y-86700203D01*
X124286992Y-86697209D01*
X124286997Y-86697201D01*
X124451087Y-86392452D01*
X124452709Y-86389440D01*
X124585498Y-86062422D01*
X124593816Y-86033223D01*
X124668329Y-85771638D01*
X124682191Y-85722976D01*
X124691158Y-85670516D01*
X124741087Y-85378420D01*
X124741087Y-85378418D01*
X124741659Y-85375073D01*
X124742451Y-85362137D01*
X124763096Y-85024580D01*
X124763206Y-85022782D01*
X124763286Y-85000000D01*
X124762669Y-84988609D01*
X159236734Y-84988609D01*
X159236906Y-84992004D01*
X159236906Y-84992005D01*
X159246330Y-85178028D01*
X159254591Y-85341106D01*
X159255128Y-85344461D01*
X159255129Y-85344467D01*
X159282048Y-85512529D01*
X159310412Y-85689613D01*
X159403546Y-86030053D01*
X159532903Y-86358443D01*
X159534486Y-86361458D01*
X159695384Y-86667926D01*
X159695389Y-86667934D01*
X159696968Y-86670942D01*
X159698862Y-86673760D01*
X159698867Y-86673769D01*
X159756523Y-86759570D01*
X159893824Y-86963895D01*
X160121167Y-87233873D01*
X160123627Y-87236224D01*
X160123630Y-87236227D01*
X160373875Y-87475366D01*
X160373882Y-87475372D01*
X160376338Y-87477719D01*
X160656351Y-87692581D01*
X160659269Y-87694355D01*
X160955017Y-87874173D01*
X160955022Y-87874176D01*
X160957932Y-87875945D01*
X160961020Y-87877391D01*
X160961019Y-87877391D01*
X161274468Y-88024222D01*
X161274478Y-88024226D01*
X161277552Y-88025666D01*
X161280770Y-88026768D01*
X161280773Y-88026769D01*
X161608241Y-88138887D01*
X161608245Y-88138888D01*
X161611472Y-88139993D01*
X161614802Y-88140743D01*
X161614811Y-88140746D01*
X161815161Y-88185896D01*
X161955786Y-88217587D01*
X161959171Y-88217973D01*
X161959179Y-88217974D01*
X162303083Y-88257157D01*
X162303091Y-88257157D01*
X162306466Y-88257542D01*
X162309870Y-88257560D01*
X162309873Y-88257560D01*
X162501627Y-88258564D01*
X162659411Y-88259390D01*
X162662797Y-88259040D01*
X162662799Y-88259040D01*
X163007098Y-88223461D01*
X163007107Y-88223460D01*
X163010490Y-88223110D01*
X163013823Y-88222396D01*
X163013826Y-88222395D01*
X163193346Y-88183909D01*
X163355598Y-88149125D01*
X163690697Y-88038301D01*
X164011867Y-87891936D01*
X164140282Y-87815689D01*
X164312407Y-87713489D01*
X164312412Y-87713486D01*
X164315352Y-87711740D01*
X164340870Y-87692581D01*
X164594867Y-87501874D01*
X164597600Y-87499822D01*
X164855310Y-87258661D01*
X165085468Y-86991078D01*
X165285380Y-86700203D01*
X165286992Y-86697209D01*
X165286997Y-86697201D01*
X165451087Y-86392452D01*
X165452709Y-86389440D01*
X165585498Y-86062422D01*
X165593816Y-86033223D01*
X165668329Y-85771638D01*
X165682191Y-85722976D01*
X165691158Y-85670516D01*
X165741087Y-85378420D01*
X165741087Y-85378418D01*
X165741659Y-85375073D01*
X165742451Y-85362137D01*
X165763096Y-85024580D01*
X165763206Y-85022782D01*
X165763286Y-85000000D01*
X165744199Y-84647567D01*
X165687161Y-84299257D01*
X165592839Y-83959145D01*
X165589849Y-83951630D01*
X165463597Y-83634372D01*
X165462338Y-83631208D01*
X165408330Y-83529205D01*
X165298777Y-83322295D01*
X165298775Y-83322292D01*
X165297182Y-83319283D01*
X165295277Y-83316469D01*
X165101211Y-83029834D01*
X165101204Y-83029825D01*
X165099305Y-83027020D01*
X165097109Y-83024430D01*
X165097104Y-83024424D01*
X164925551Y-82822137D01*
X164871021Y-82757837D01*
X164615001Y-82514883D01*
X164612294Y-82512821D01*
X164612286Y-82512814D01*
X164453809Y-82392088D01*
X164334239Y-82301000D01*
X164032020Y-82118689D01*
X164028930Y-82117255D01*
X164028925Y-82117252D01*
X163786899Y-82004908D01*
X163711879Y-81970085D01*
X163708654Y-81968993D01*
X163708648Y-81968991D01*
X163380798Y-81858020D01*
X163380793Y-81858018D01*
X163377562Y-81856925D01*
X163363832Y-81853881D01*
X163294730Y-81838562D01*
X163032979Y-81780533D01*
X162908353Y-81766774D01*
X162685543Y-81742175D01*
X162685538Y-81742175D01*
X162682162Y-81741802D01*
X162678763Y-81741796D01*
X162678762Y-81741796D01*
X162512289Y-81741506D01*
X162329213Y-81741186D01*
X162198206Y-81755187D01*
X161981646Y-81778330D01*
X161981640Y-81778331D01*
X161978262Y-81778692D01*
X161633414Y-81853881D01*
X161298704Y-81965873D01*
X160978047Y-82113359D01*
X160975113Y-82115115D01*
X160975111Y-82115116D01*
X160950631Y-82129767D01*
X160675194Y-82294613D01*
X160393687Y-82507515D01*
X160136820Y-82749574D01*
X159907598Y-83017959D01*
X159708702Y-83309530D01*
X159542458Y-83620876D01*
X159541183Y-83624048D01*
X159541181Y-83624052D01*
X159459279Y-83827792D01*
X159410813Y-83948355D01*
X159409894Y-83951623D01*
X159409892Y-83951630D01*
X159325360Y-84252361D01*
X159315304Y-84288136D01*
X159314743Y-84291489D01*
X159314742Y-84291493D01*
X159290466Y-84436562D01*
X159257051Y-84636245D01*
X159236734Y-84988609D01*
X124762669Y-84988609D01*
X124744199Y-84647567D01*
X124687161Y-84299257D01*
X124592839Y-83959145D01*
X124589849Y-83951630D01*
X124463597Y-83634372D01*
X124462338Y-83631208D01*
X124408330Y-83529205D01*
X124298777Y-83322295D01*
X124298775Y-83322292D01*
X124297182Y-83319283D01*
X124295277Y-83316469D01*
X124101211Y-83029834D01*
X124101204Y-83029825D01*
X124099305Y-83027020D01*
X124097109Y-83024430D01*
X124097104Y-83024424D01*
X123925551Y-82822137D01*
X123871021Y-82757837D01*
X123615001Y-82514883D01*
X123612294Y-82512821D01*
X123612286Y-82512814D01*
X123453809Y-82392088D01*
X123334239Y-82301000D01*
X123032020Y-82118689D01*
X123028930Y-82117255D01*
X123028925Y-82117252D01*
X122786899Y-82004908D01*
X122711879Y-81970085D01*
X122708654Y-81968993D01*
X122708648Y-81968991D01*
X122380798Y-81858020D01*
X122380793Y-81858018D01*
X122377562Y-81856925D01*
X122363832Y-81853881D01*
X122294730Y-81838562D01*
X122032979Y-81780533D01*
X121908353Y-81766774D01*
X121685543Y-81742175D01*
X121685538Y-81742175D01*
X121682162Y-81741802D01*
X121678763Y-81741796D01*
X121678762Y-81741796D01*
X121512289Y-81741506D01*
X121329213Y-81741186D01*
X121198206Y-81755187D01*
X120981646Y-81778330D01*
X120981640Y-81778331D01*
X120978262Y-81778692D01*
X120633414Y-81853881D01*
X120298704Y-81965873D01*
X119978047Y-82113359D01*
X119975113Y-82115115D01*
X119975111Y-82115116D01*
X119950631Y-82129767D01*
X119675194Y-82294613D01*
X119393687Y-82507515D01*
X119136820Y-82749574D01*
X118907598Y-83017959D01*
X118708702Y-83309530D01*
X118542458Y-83620876D01*
X118541183Y-83624048D01*
X118541181Y-83624052D01*
X118459279Y-83827792D01*
X118410813Y-83948355D01*
X118409894Y-83951623D01*
X118409892Y-83951630D01*
X118325360Y-84252361D01*
X118315304Y-84288136D01*
X118314743Y-84291489D01*
X118314742Y-84291493D01*
X118290466Y-84436562D01*
X118257051Y-84636245D01*
X118236734Y-84988609D01*
X115508000Y-84988609D01*
X115508000Y-46102885D01*
X178367000Y-46102885D01*
X178371475Y-46118124D01*
X178372865Y-46119329D01*
X178380548Y-46121000D01*
X179452885Y-46121000D01*
X179468124Y-46116525D01*
X179469329Y-46115135D01*
X179471000Y-46107452D01*
X179471000Y-46102885D01*
X179979000Y-46102885D01*
X179983475Y-46118124D01*
X179984865Y-46119329D01*
X179992548Y-46121000D01*
X181992885Y-46121000D01*
X182008124Y-46116525D01*
X182009329Y-46115135D01*
X182011000Y-46107452D01*
X182011000Y-46102885D01*
X182519000Y-46102885D01*
X182523475Y-46118124D01*
X182524865Y-46119329D01*
X182532548Y-46121000D01*
X183583344Y-46121000D01*
X183596875Y-46117027D01*
X183598180Y-46107947D01*
X183556214Y-45940875D01*
X183552894Y-45931124D01*
X183467972Y-45735814D01*
X183463105Y-45726739D01*
X183347426Y-45547926D01*
X183341136Y-45539757D01*
X183197806Y-45382240D01*
X183190273Y-45375215D01*
X183023139Y-45243222D01*
X183014552Y-45237517D01*
X182828117Y-45134599D01*
X182818705Y-45130369D01*
X182617959Y-45059280D01*
X182607988Y-45056646D01*
X182536837Y-45043972D01*
X182523540Y-45045432D01*
X182519000Y-45059989D01*
X182519000Y-46102885D01*
X182011000Y-46102885D01*
X182011000Y-45058102D01*
X182007082Y-45044758D01*
X181992806Y-45042771D01*
X181954324Y-45048660D01*
X181944288Y-45051051D01*
X181741868Y-45117212D01*
X181732359Y-45121209D01*
X181543463Y-45219542D01*
X181534738Y-45225036D01*
X181364433Y-45352905D01*
X181356726Y-45359748D01*
X181279094Y-45440985D01*
X181217570Y-45476415D01*
X181146657Y-45472958D01*
X181088871Y-45431712D01*
X181070018Y-45398164D01*
X181028324Y-45286946D01*
X181019786Y-45271351D01*
X180943285Y-45169276D01*
X180930724Y-45156715D01*
X180828649Y-45080214D01*
X180813054Y-45071676D01*
X180692606Y-45026522D01*
X180677351Y-45022895D01*
X180626486Y-45017369D01*
X180619672Y-45017000D01*
X179997115Y-45017000D01*
X179981876Y-45021475D01*
X179980671Y-45022865D01*
X179979000Y-45030548D01*
X179979000Y-46102885D01*
X179471000Y-46102885D01*
X179471000Y-45035116D01*
X179466525Y-45019877D01*
X179465135Y-45018672D01*
X179457452Y-45017001D01*
X178830331Y-45017001D01*
X178823510Y-45017371D01*
X178772648Y-45022895D01*
X178757396Y-45026521D01*
X178636946Y-45071676D01*
X178621351Y-45080214D01*
X178519276Y-45156715D01*
X178506715Y-45169276D01*
X178430214Y-45271351D01*
X178421676Y-45286946D01*
X178376522Y-45407394D01*
X178372895Y-45422649D01*
X178367369Y-45473514D01*
X178367000Y-45480328D01*
X178367000Y-46102885D01*
X115508000Y-46102885D01*
X115508000Y-39968609D01*
X118236734Y-39968609D01*
X118254591Y-40321106D01*
X118255128Y-40324461D01*
X118255129Y-40324467D01*
X118279432Y-40476196D01*
X118310412Y-40669613D01*
X118403546Y-41010053D01*
X118532903Y-41338443D01*
X118534486Y-41341458D01*
X118695384Y-41647926D01*
X118695389Y-41647934D01*
X118696968Y-41650942D01*
X118698862Y-41653760D01*
X118698867Y-41653769D01*
X118862970Y-41897979D01*
X118893824Y-41943895D01*
X119121167Y-42213873D01*
X119123627Y-42216224D01*
X119123630Y-42216227D01*
X119373875Y-42455366D01*
X119373882Y-42455372D01*
X119376338Y-42457719D01*
X119656351Y-42672581D01*
X119659269Y-42674355D01*
X119955017Y-42854173D01*
X119955022Y-42854176D01*
X119957932Y-42855945D01*
X119961020Y-42857391D01*
X119961019Y-42857391D01*
X120274468Y-43004222D01*
X120274478Y-43004226D01*
X120277552Y-43005666D01*
X120280770Y-43006768D01*
X120280773Y-43006769D01*
X120608241Y-43118887D01*
X120608245Y-43118888D01*
X120611472Y-43119993D01*
X120614802Y-43120743D01*
X120614811Y-43120746D01*
X120858164Y-43175587D01*
X120955786Y-43197587D01*
X120959171Y-43197973D01*
X120959179Y-43197974D01*
X121303083Y-43237157D01*
X121303091Y-43237157D01*
X121306466Y-43237542D01*
X121309870Y-43237560D01*
X121309873Y-43237560D01*
X121501627Y-43238564D01*
X121659411Y-43239390D01*
X121662797Y-43239040D01*
X121662799Y-43239040D01*
X122007098Y-43203461D01*
X122007107Y-43203460D01*
X122010490Y-43203110D01*
X122013823Y-43202396D01*
X122013826Y-43202395D01*
X122183692Y-43165979D01*
X122355598Y-43129125D01*
X122690697Y-43018301D01*
X123011867Y-42871936D01*
X123157730Y-42785329D01*
X123312407Y-42693489D01*
X123312412Y-42693486D01*
X123315352Y-42691740D01*
X123340870Y-42672581D01*
X123594867Y-42481874D01*
X123597600Y-42479822D01*
X123855310Y-42238661D01*
X123858056Y-42235469D01*
X129157095Y-42235469D01*
X129157392Y-42240622D01*
X129157392Y-42240625D01*
X129163067Y-42339041D01*
X129170427Y-42466697D01*
X129171564Y-42471743D01*
X129171565Y-42471749D01*
X129203741Y-42614523D01*
X129221346Y-42692642D01*
X129223288Y-42697424D01*
X129223289Y-42697428D01*
X129298467Y-42882568D01*
X129308484Y-42907237D01*
X129429501Y-43104719D01*
X129581147Y-43279784D01*
X129759349Y-43427730D01*
X129959322Y-43544584D01*
X130175694Y-43627209D01*
X130180760Y-43628240D01*
X130180761Y-43628240D01*
X130233846Y-43639040D01*
X130402656Y-43673385D01*
X130533324Y-43678176D01*
X130628949Y-43681683D01*
X130628953Y-43681683D01*
X130634113Y-43681872D01*
X130639233Y-43681216D01*
X130639235Y-43681216D01*
X130712291Y-43671857D01*
X130863847Y-43652442D01*
X130868795Y-43650957D01*
X130868802Y-43650956D01*
X131080747Y-43587369D01*
X131085690Y-43585886D01*
X131167161Y-43545974D01*
X131289049Y-43486262D01*
X131289052Y-43486260D01*
X131293684Y-43483991D01*
X131482243Y-43349494D01*
X131646303Y-43186005D01*
X131649319Y-43181808D01*
X131649326Y-43181800D01*
X131736960Y-43059844D01*
X131792954Y-43016196D01*
X131863658Y-43009750D01*
X131926622Y-43042553D01*
X131946715Y-43067536D01*
X131966800Y-43100313D01*
X131966804Y-43100318D01*
X131969501Y-43104719D01*
X132121147Y-43279784D01*
X132299349Y-43427730D01*
X132499322Y-43544584D01*
X132715694Y-43627209D01*
X132720760Y-43628240D01*
X132720761Y-43628240D01*
X132773846Y-43639040D01*
X132942656Y-43673385D01*
X133073324Y-43678176D01*
X133168949Y-43681683D01*
X133168953Y-43681683D01*
X133174113Y-43681872D01*
X133179233Y-43681216D01*
X133179235Y-43681216D01*
X133252291Y-43671857D01*
X133403847Y-43652442D01*
X133408795Y-43650957D01*
X133408802Y-43650956D01*
X133620747Y-43587369D01*
X133625690Y-43585886D01*
X133707161Y-43545974D01*
X133829049Y-43486262D01*
X133829052Y-43486260D01*
X133833684Y-43483991D01*
X134022243Y-43349494D01*
X134186303Y-43186005D01*
X134189319Y-43181808D01*
X134189326Y-43181800D01*
X134276960Y-43059844D01*
X134332954Y-43016196D01*
X134403658Y-43009750D01*
X134466622Y-43042553D01*
X134486715Y-43067536D01*
X134506800Y-43100313D01*
X134506804Y-43100318D01*
X134509501Y-43104719D01*
X134661147Y-43279784D01*
X134839349Y-43427730D01*
X135039322Y-43544584D01*
X135255694Y-43627209D01*
X135260760Y-43628240D01*
X135260761Y-43628240D01*
X135313846Y-43639040D01*
X135482656Y-43673385D01*
X135613324Y-43678176D01*
X135708949Y-43681683D01*
X135708953Y-43681683D01*
X135714113Y-43681872D01*
X135719233Y-43681216D01*
X135719235Y-43681216D01*
X135792291Y-43671857D01*
X135943847Y-43652442D01*
X135948795Y-43650957D01*
X135948802Y-43650956D01*
X136160747Y-43587369D01*
X136165690Y-43585886D01*
X136247161Y-43545974D01*
X136369049Y-43486262D01*
X136369052Y-43486260D01*
X136373684Y-43483991D01*
X136562243Y-43349494D01*
X136726303Y-43186005D01*
X136729319Y-43181808D01*
X136729326Y-43181800D01*
X136816960Y-43059844D01*
X136872954Y-43016196D01*
X136943658Y-43009750D01*
X137006622Y-43042553D01*
X137026715Y-43067536D01*
X137046800Y-43100313D01*
X137046804Y-43100318D01*
X137049501Y-43104719D01*
X137201147Y-43279784D01*
X137379349Y-43427730D01*
X137579322Y-43544584D01*
X137795694Y-43627209D01*
X137800760Y-43628240D01*
X137800761Y-43628240D01*
X137853846Y-43639040D01*
X138022656Y-43673385D01*
X138153324Y-43678176D01*
X138248949Y-43681683D01*
X138248953Y-43681683D01*
X138254113Y-43681872D01*
X138259233Y-43681216D01*
X138259235Y-43681216D01*
X138332291Y-43671857D01*
X138483847Y-43652442D01*
X138488795Y-43650957D01*
X138488802Y-43650956D01*
X138700747Y-43587369D01*
X138705690Y-43585886D01*
X138787161Y-43545974D01*
X138909049Y-43486262D01*
X138909052Y-43486260D01*
X138913684Y-43483991D01*
X139102243Y-43349494D01*
X139266303Y-43186005D01*
X139269319Y-43181808D01*
X139269326Y-43181800D01*
X139356960Y-43059844D01*
X139412954Y-43016196D01*
X139483658Y-43009750D01*
X139546622Y-43042553D01*
X139566715Y-43067536D01*
X139586800Y-43100313D01*
X139586804Y-43100318D01*
X139589501Y-43104719D01*
X139741147Y-43279784D01*
X139919349Y-43427730D01*
X140119322Y-43544584D01*
X140335694Y-43627209D01*
X140340760Y-43628240D01*
X140340761Y-43628240D01*
X140393846Y-43639040D01*
X140562656Y-43673385D01*
X140693324Y-43678176D01*
X140788949Y-43681683D01*
X140788953Y-43681683D01*
X140794113Y-43681872D01*
X140799233Y-43681216D01*
X140799235Y-43681216D01*
X140872291Y-43671857D01*
X141023847Y-43652442D01*
X141028795Y-43650957D01*
X141028802Y-43650956D01*
X141240747Y-43587369D01*
X141245690Y-43585886D01*
X141327161Y-43545974D01*
X141449049Y-43486262D01*
X141449052Y-43486260D01*
X141453684Y-43483991D01*
X141642243Y-43349494D01*
X141806303Y-43186005D01*
X141809319Y-43181808D01*
X141809326Y-43181800D01*
X141896960Y-43059844D01*
X141952954Y-43016196D01*
X142023658Y-43009750D01*
X142086622Y-43042553D01*
X142106715Y-43067536D01*
X142126800Y-43100313D01*
X142126804Y-43100318D01*
X142129501Y-43104719D01*
X142281147Y-43279784D01*
X142459349Y-43427730D01*
X142659322Y-43544584D01*
X142875694Y-43627209D01*
X142880760Y-43628240D01*
X142880761Y-43628240D01*
X142933846Y-43639040D01*
X143102656Y-43673385D01*
X143233324Y-43678176D01*
X143328949Y-43681683D01*
X143328953Y-43681683D01*
X143334113Y-43681872D01*
X143339233Y-43681216D01*
X143339235Y-43681216D01*
X143412291Y-43671857D01*
X143563847Y-43652442D01*
X143568795Y-43650957D01*
X143568802Y-43650956D01*
X143780747Y-43587369D01*
X143785690Y-43585886D01*
X143867161Y-43545974D01*
X143989049Y-43486262D01*
X143989052Y-43486260D01*
X143993684Y-43483991D01*
X144182243Y-43349494D01*
X144346303Y-43186005D01*
X144349319Y-43181808D01*
X144349326Y-43181800D01*
X144436960Y-43059844D01*
X144492954Y-43016196D01*
X144563658Y-43009750D01*
X144626622Y-43042553D01*
X144646715Y-43067536D01*
X144666800Y-43100313D01*
X144666804Y-43100318D01*
X144669501Y-43104719D01*
X144821147Y-43279784D01*
X144999349Y-43427730D01*
X145199322Y-43544584D01*
X145415694Y-43627209D01*
X145420760Y-43628240D01*
X145420761Y-43628240D01*
X145473846Y-43639040D01*
X145642656Y-43673385D01*
X145773324Y-43678176D01*
X145868949Y-43681683D01*
X145868953Y-43681683D01*
X145874113Y-43681872D01*
X145879233Y-43681216D01*
X145879235Y-43681216D01*
X145952291Y-43671857D01*
X146103847Y-43652442D01*
X146108795Y-43650957D01*
X146108802Y-43650956D01*
X146320747Y-43587369D01*
X146325690Y-43585886D01*
X146407161Y-43545974D01*
X146529049Y-43486262D01*
X146529052Y-43486260D01*
X146533684Y-43483991D01*
X146722243Y-43349494D01*
X146886303Y-43186005D01*
X146889319Y-43181808D01*
X146889326Y-43181800D01*
X146976960Y-43059844D01*
X147032954Y-43016196D01*
X147103658Y-43009750D01*
X147166622Y-43042553D01*
X147186715Y-43067536D01*
X147206800Y-43100313D01*
X147206804Y-43100318D01*
X147209501Y-43104719D01*
X147361147Y-43279784D01*
X147539349Y-43427730D01*
X147739322Y-43544584D01*
X147955694Y-43627209D01*
X147960760Y-43628240D01*
X147960761Y-43628240D01*
X148013846Y-43639040D01*
X148182656Y-43673385D01*
X148313324Y-43678176D01*
X148408949Y-43681683D01*
X148408953Y-43681683D01*
X148414113Y-43681872D01*
X148419233Y-43681216D01*
X148419235Y-43681216D01*
X148492291Y-43671857D01*
X148643847Y-43652442D01*
X148648795Y-43650957D01*
X148648802Y-43650956D01*
X148860747Y-43587369D01*
X148865690Y-43585886D01*
X148947161Y-43545974D01*
X149069049Y-43486262D01*
X149069052Y-43486260D01*
X149073684Y-43483991D01*
X149147406Y-43431406D01*
X150093423Y-43431406D01*
X150098704Y-43438461D01*
X150275080Y-43541527D01*
X150284363Y-43545974D01*
X150491003Y-43624883D01*
X150500901Y-43627759D01*
X150717653Y-43671857D01*
X150727883Y-43673076D01*
X150948914Y-43681182D01*
X150959223Y-43680714D01*
X151178623Y-43652608D01*
X151188688Y-43650468D01*
X151400557Y-43586905D01*
X151410152Y-43583144D01*
X151608778Y-43485838D01*
X151617636Y-43480559D01*
X151675097Y-43439572D01*
X151683497Y-43428874D01*
X151676510Y-43415721D01*
X150902811Y-42642021D01*
X150888868Y-42634408D01*
X150887034Y-42634539D01*
X150880420Y-42638790D01*
X150100180Y-43419031D01*
X150093423Y-43431406D01*
X149147406Y-43431406D01*
X149262243Y-43349494D01*
X149426303Y-43186005D01*
X149517275Y-43059404D01*
X149573270Y-43015756D01*
X149643973Y-43009310D01*
X149706938Y-43042113D01*
X149712142Y-43048584D01*
X149730553Y-43065242D01*
X149739331Y-43061458D01*
X150517979Y-42282811D01*
X150525592Y-42268868D01*
X150525461Y-42267034D01*
X150521210Y-42260420D01*
X149743862Y-41483073D01*
X149732330Y-41476776D01*
X149704674Y-41498444D01*
X149703534Y-41496989D01*
X149669695Y-41524724D01*
X149599171Y-41532898D01*
X149535422Y-41501646D01*
X149514722Y-41477159D01*
X149472575Y-41412009D01*
X149472570Y-41412003D01*
X149469764Y-41407665D01*
X149313887Y-41236358D01*
X149309836Y-41233159D01*
X149309832Y-41233155D01*
X149136669Y-41096400D01*
X149095606Y-41038483D01*
X149092374Y-40967560D01*
X149127999Y-40906148D01*
X149133487Y-40901623D01*
X149143497Y-40888874D01*
X149136510Y-40875721D01*
X148362811Y-40102021D01*
X148348868Y-40094408D01*
X148347034Y-40094539D01*
X148340420Y-40098790D01*
X147560180Y-40879031D01*
X147553423Y-40891406D01*
X147572730Y-40917197D01*
X147572040Y-40917713D01*
X147596627Y-40943737D01*
X147609743Y-41013511D01*
X147583055Y-41079300D01*
X147560023Y-41101719D01*
X147463613Y-41174106D01*
X147411655Y-41213117D01*
X147408083Y-41216855D01*
X147289010Y-41341458D01*
X147251639Y-41380564D01*
X147184306Y-41479271D01*
X147129397Y-41524271D01*
X147058872Y-41532442D01*
X146995125Y-41501188D01*
X146974428Y-41476705D01*
X146932571Y-41412004D01*
X146929764Y-41407665D01*
X146773887Y-41236358D01*
X146769836Y-41233159D01*
X146769832Y-41233155D01*
X146597077Y-41096722D01*
X146556014Y-41038805D01*
X146552782Y-40967882D01*
X146588407Y-40906470D01*
X146602001Y-40895261D01*
X146607406Y-40891406D01*
X146722243Y-40809494D01*
X146886303Y-40646005D01*
X146977275Y-40519404D01*
X147033270Y-40475756D01*
X147103973Y-40469310D01*
X147166938Y-40502113D01*
X147172142Y-40508584D01*
X147190553Y-40525242D01*
X147199331Y-40521458D01*
X147977979Y-39742811D01*
X147984356Y-39731132D01*
X148714408Y-39731132D01*
X148714539Y-39732966D01*
X148718790Y-39739580D01*
X149496307Y-40517096D01*
X149508313Y-40523652D01*
X149534948Y-40503304D01*
X149535827Y-40504454D01*
X149572672Y-40475734D01*
X149643376Y-40469289D01*
X149706340Y-40502092D01*
X149726432Y-40527074D01*
X149746800Y-40560313D01*
X149746806Y-40560321D01*
X149749501Y-40564719D01*
X149901147Y-40739784D01*
X150079349Y-40887730D01*
X150083814Y-40890339D01*
X150087979Y-40892773D01*
X150136700Y-40944414D01*
X150149767Y-41014198D01*
X150123033Y-41079968D01*
X150106323Y-41096221D01*
X150095508Y-41110711D01*
X150102251Y-41123040D01*
X150877189Y-41897979D01*
X150891132Y-41905592D01*
X150892966Y-41905461D01*
X150899580Y-41901210D01*
X151678994Y-41121795D01*
X151686011Y-41108944D01*
X151678237Y-41098275D01*
X151676655Y-41097025D01*
X151635592Y-41039109D01*
X151632359Y-40968186D01*
X151667983Y-40906774D01*
X151681578Y-40895563D01*
X151704755Y-40879031D01*
X151802243Y-40809494D01*
X151966303Y-40646005D01*
X151969319Y-40641808D01*
X151969326Y-40641800D01*
X152056960Y-40519844D01*
X152112954Y-40476196D01*
X152183658Y-40469750D01*
X152246622Y-40502553D01*
X152266715Y-40527536D01*
X152286800Y-40560313D01*
X152286806Y-40560321D01*
X152289501Y-40564719D01*
X152441147Y-40739784D01*
X152619349Y-40887730D01*
X152623819Y-40890342D01*
X152627511Y-40892500D01*
X152676232Y-40944140D01*
X152689301Y-41013924D01*
X152662566Y-41079694D01*
X152639589Y-41102045D01*
X152634762Y-41105669D01*
X152543613Y-41174106D01*
X152491655Y-41213117D01*
X152488083Y-41216855D01*
X152369010Y-41341458D01*
X152331639Y-41380564D01*
X152315763Y-41403838D01*
X152264002Y-41479716D01*
X152209090Y-41524718D01*
X152138565Y-41532889D01*
X152074819Y-41501634D01*
X152064979Y-41489994D01*
X152048538Y-41475835D01*
X152038973Y-41480238D01*
X151262021Y-42257189D01*
X151254408Y-42271132D01*
X151254539Y-42272966D01*
X151258790Y-42279580D01*
X152036307Y-43057096D01*
X152048313Y-43063652D01*
X152074948Y-43043304D01*
X152075827Y-43044454D01*
X152112672Y-43015734D01*
X152183376Y-43009289D01*
X152246340Y-43042092D01*
X152266432Y-43067074D01*
X152286800Y-43100313D01*
X152286804Y-43100318D01*
X152289501Y-43104719D01*
X152441147Y-43279784D01*
X152619349Y-43427730D01*
X152819322Y-43544584D01*
X153035694Y-43627209D01*
X153040760Y-43628240D01*
X153040761Y-43628240D01*
X153093846Y-43639040D01*
X153262656Y-43673385D01*
X153393324Y-43678176D01*
X153488949Y-43681683D01*
X153488953Y-43681683D01*
X153494113Y-43681872D01*
X153499233Y-43681216D01*
X153499235Y-43681216D01*
X153572291Y-43671857D01*
X153723847Y-43652442D01*
X153728795Y-43650957D01*
X153728802Y-43650956D01*
X153940747Y-43587369D01*
X153945690Y-43585886D01*
X154027161Y-43545974D01*
X154149049Y-43486262D01*
X154149052Y-43486260D01*
X154153684Y-43483991D01*
X154342243Y-43349494D01*
X154506303Y-43186005D01*
X154641458Y-42997917D01*
X154688641Y-42902450D01*
X154741784Y-42794922D01*
X154741785Y-42794920D01*
X154744078Y-42790280D01*
X154811408Y-42568671D01*
X154841640Y-42339041D01*
X154843327Y-42270000D01*
X154837032Y-42193434D01*
X154824773Y-42044318D01*
X154824772Y-42044312D01*
X154824349Y-42039167D01*
X154790797Y-41905592D01*
X154769184Y-41819544D01*
X154769183Y-41819540D01*
X154767925Y-41814533D01*
X154765866Y-41809797D01*
X154677630Y-41606868D01*
X154677628Y-41606865D01*
X154675570Y-41602131D01*
X154549764Y-41407665D01*
X154393887Y-41236358D01*
X154389836Y-41233159D01*
X154389832Y-41233155D01*
X154217077Y-41096722D01*
X154176014Y-41038805D01*
X154172782Y-40967882D01*
X154208407Y-40906470D01*
X154222001Y-40895261D01*
X154227406Y-40891406D01*
X154342243Y-40809494D01*
X154506303Y-40646005D01*
X154641458Y-40457917D01*
X154692287Y-40355073D01*
X154741784Y-40254922D01*
X154741785Y-40254920D01*
X154744078Y-40250280D01*
X154811408Y-40028671D01*
X154819315Y-39968609D01*
X159236734Y-39968609D01*
X159254591Y-40321106D01*
X159255128Y-40324461D01*
X159255129Y-40324467D01*
X159279432Y-40476196D01*
X159310412Y-40669613D01*
X159403546Y-41010053D01*
X159532903Y-41338443D01*
X159534486Y-41341458D01*
X159695384Y-41647926D01*
X159695389Y-41647934D01*
X159696968Y-41650942D01*
X159698862Y-41653760D01*
X159698867Y-41653769D01*
X159862970Y-41897979D01*
X159893824Y-41943895D01*
X160121167Y-42213873D01*
X160123627Y-42216224D01*
X160123630Y-42216227D01*
X160373875Y-42455366D01*
X160373882Y-42455372D01*
X160376338Y-42457719D01*
X160656351Y-42672581D01*
X160659269Y-42674355D01*
X160955017Y-42854173D01*
X160955022Y-42854176D01*
X160957932Y-42855945D01*
X160961020Y-42857391D01*
X160961019Y-42857391D01*
X161274468Y-43004222D01*
X161274478Y-43004226D01*
X161277552Y-43005666D01*
X161280770Y-43006768D01*
X161280773Y-43006769D01*
X161608241Y-43118887D01*
X161608245Y-43118888D01*
X161611472Y-43119993D01*
X161614802Y-43120743D01*
X161614811Y-43120746D01*
X161858164Y-43175587D01*
X161955786Y-43197587D01*
X161959171Y-43197973D01*
X161959179Y-43197974D01*
X162303083Y-43237157D01*
X162303091Y-43237157D01*
X162306466Y-43237542D01*
X162309870Y-43237560D01*
X162309873Y-43237560D01*
X162501627Y-43238564D01*
X162659411Y-43239390D01*
X162662797Y-43239040D01*
X162662799Y-43239040D01*
X163007098Y-43203461D01*
X163007107Y-43203460D01*
X163010490Y-43203110D01*
X163013823Y-43202396D01*
X163013826Y-43202395D01*
X163183692Y-43165979D01*
X163355598Y-43129125D01*
X163690697Y-43018301D01*
X164011867Y-42871936D01*
X164157730Y-42785329D01*
X164312407Y-42693489D01*
X164312412Y-42693486D01*
X164315352Y-42691740D01*
X164340870Y-42672581D01*
X164594867Y-42481874D01*
X164597600Y-42479822D01*
X164855310Y-42238661D01*
X165085468Y-41971078D01*
X165285380Y-41680203D01*
X165286992Y-41677209D01*
X165286997Y-41677201D01*
X165429788Y-41412009D01*
X165452709Y-41369440D01*
X165585498Y-41042422D01*
X165586529Y-41038805D01*
X165681257Y-40706254D01*
X165682191Y-40702976D01*
X165692648Y-40641800D01*
X165741087Y-40358420D01*
X165741087Y-40358418D01*
X165741659Y-40355073D01*
X165743945Y-40317711D01*
X165763096Y-40004580D01*
X165763206Y-40002782D01*
X165763286Y-39980000D01*
X165744199Y-39627567D01*
X165687161Y-39279257D01*
X165592839Y-38939145D01*
X165589849Y-38931630D01*
X165463597Y-38614372D01*
X165462338Y-38611208D01*
X165318802Y-38340116D01*
X165298777Y-38302295D01*
X165298775Y-38302292D01*
X165297182Y-38299283D01*
X165290579Y-38289530D01*
X165101211Y-38009834D01*
X165101204Y-38009825D01*
X165099305Y-38007020D01*
X165097109Y-38004430D01*
X165097104Y-38004424D01*
X165008715Y-37900201D01*
X164871021Y-37737837D01*
X164615001Y-37494883D01*
X164612294Y-37492821D01*
X164612286Y-37492814D01*
X164453809Y-37372088D01*
X164334239Y-37281000D01*
X164032020Y-37098689D01*
X164028930Y-37097255D01*
X164028925Y-37097252D01*
X163871950Y-37024387D01*
X163711879Y-36950085D01*
X163708654Y-36948993D01*
X163708648Y-36948991D01*
X163380798Y-36838020D01*
X163380793Y-36838018D01*
X163377562Y-36836925D01*
X163363832Y-36833881D01*
X163294730Y-36818562D01*
X163032979Y-36760533D01*
X162908353Y-36746774D01*
X162685543Y-36722175D01*
X162685538Y-36722175D01*
X162682162Y-36721802D01*
X162678763Y-36721796D01*
X162678762Y-36721796D01*
X162512289Y-36721506D01*
X162329213Y-36721186D01*
X162198206Y-36735187D01*
X161981646Y-36758330D01*
X161981640Y-36758331D01*
X161978262Y-36758692D01*
X161633414Y-36833881D01*
X161298704Y-36945873D01*
X160978047Y-37093359D01*
X160675194Y-37274613D01*
X160393687Y-37487515D01*
X160136820Y-37729574D01*
X159907598Y-37997959D01*
X159708702Y-38289530D01*
X159662170Y-38376676D01*
X159551982Y-38583040D01*
X159542458Y-38600876D01*
X159541183Y-38604048D01*
X159541181Y-38604052D01*
X159436749Y-38863838D01*
X159410813Y-38928355D01*
X159409894Y-38931623D01*
X159409892Y-38931630D01*
X159316225Y-39264858D01*
X159315304Y-39268136D01*
X159314743Y-39271489D01*
X159314742Y-39271493D01*
X159276643Y-39499167D01*
X159257051Y-39616245D01*
X159236734Y-39968609D01*
X154819315Y-39968609D01*
X154841640Y-39799041D01*
X154843327Y-39730000D01*
X154835185Y-39630969D01*
X154824773Y-39504318D01*
X154824772Y-39504312D01*
X154824349Y-39499167D01*
X154790797Y-39365592D01*
X154769184Y-39279544D01*
X154769183Y-39279540D01*
X154767925Y-39274533D01*
X154753771Y-39241981D01*
X154677630Y-39066868D01*
X154677628Y-39066865D01*
X154675570Y-39062131D01*
X154549764Y-38867665D01*
X154393887Y-38696358D01*
X154389836Y-38693159D01*
X154389832Y-38693155D01*
X154216177Y-38556011D01*
X154216172Y-38556008D01*
X154212123Y-38552810D01*
X154207607Y-38550317D01*
X154207604Y-38550315D01*
X154013879Y-38443373D01*
X154013875Y-38443371D01*
X154009355Y-38440876D01*
X154004486Y-38439152D01*
X154004482Y-38439150D01*
X153795903Y-38365288D01*
X153795899Y-38365287D01*
X153791028Y-38363562D01*
X153785935Y-38362655D01*
X153785932Y-38362654D01*
X153568095Y-38323851D01*
X153568089Y-38323850D01*
X153563006Y-38322945D01*
X153485644Y-38322000D01*
X153336581Y-38320179D01*
X153336579Y-38320179D01*
X153331411Y-38320116D01*
X153102464Y-38355150D01*
X152882314Y-38427106D01*
X152877726Y-38429494D01*
X152877722Y-38429496D01*
X152681461Y-38531663D01*
X152676872Y-38534052D01*
X152672739Y-38537155D01*
X152672736Y-38537157D01*
X152495790Y-38670012D01*
X152491655Y-38673117D01*
X152331639Y-38840564D01*
X152264306Y-38939271D01*
X152209397Y-38984271D01*
X152138872Y-38992442D01*
X152075125Y-38961188D01*
X152054428Y-38936705D01*
X152012571Y-38872004D01*
X152009764Y-38867665D01*
X151853887Y-38696358D01*
X151849836Y-38693159D01*
X151849832Y-38693155D01*
X151676177Y-38556011D01*
X151676172Y-38556008D01*
X151672123Y-38552810D01*
X151667607Y-38550317D01*
X151667604Y-38550315D01*
X151473879Y-38443373D01*
X151473875Y-38443371D01*
X151469355Y-38440876D01*
X151464486Y-38439152D01*
X151464482Y-38439150D01*
X151255903Y-38365288D01*
X151255899Y-38365287D01*
X151251028Y-38363562D01*
X151245935Y-38362655D01*
X151245932Y-38362654D01*
X151028095Y-38323851D01*
X151028089Y-38323850D01*
X151023006Y-38322945D01*
X150945644Y-38322000D01*
X150796581Y-38320179D01*
X150796579Y-38320179D01*
X150791411Y-38320116D01*
X150562464Y-38355150D01*
X150342314Y-38427106D01*
X150337726Y-38429494D01*
X150337722Y-38429496D01*
X150141461Y-38531663D01*
X150136872Y-38534052D01*
X150132739Y-38537155D01*
X150132736Y-38537157D01*
X149955790Y-38670012D01*
X149951655Y-38673117D01*
X149791639Y-38840564D01*
X149788730Y-38844829D01*
X149788728Y-38844832D01*
X149724002Y-38939716D01*
X149669090Y-38984718D01*
X149598565Y-38992889D01*
X149534819Y-38961634D01*
X149524979Y-38949994D01*
X149508538Y-38935835D01*
X149498973Y-38940238D01*
X148722021Y-39717189D01*
X148714408Y-39731132D01*
X147984356Y-39731132D01*
X147985592Y-39728868D01*
X147985461Y-39727034D01*
X147981210Y-39720420D01*
X147203862Y-38943073D01*
X147192330Y-38936776D01*
X147164674Y-38958444D01*
X147163534Y-38956989D01*
X147129695Y-38984724D01*
X147059171Y-38992898D01*
X146995422Y-38961646D01*
X146974722Y-38937159D01*
X146932575Y-38872009D01*
X146932570Y-38872003D01*
X146929764Y-38867665D01*
X146773887Y-38696358D01*
X146769836Y-38693159D01*
X146769832Y-38693155D01*
X146614790Y-38570711D01*
X147555508Y-38570711D01*
X147562251Y-38583040D01*
X148337189Y-39357979D01*
X148351132Y-39365592D01*
X148352966Y-39365461D01*
X148359580Y-39361210D01*
X149138994Y-38581795D01*
X149146011Y-38568944D01*
X149138237Y-38558274D01*
X149135902Y-38556430D01*
X149127320Y-38550729D01*
X148933678Y-38443833D01*
X148924272Y-38439606D01*
X148715772Y-38365772D01*
X148705809Y-38363140D01*
X148488047Y-38324350D01*
X148477796Y-38323381D01*
X148256616Y-38320679D01*
X148246332Y-38321399D01*
X148027693Y-38354855D01*
X148017666Y-38357244D01*
X147807426Y-38425961D01*
X147797916Y-38429958D01*
X147601725Y-38532089D01*
X147593007Y-38537578D01*
X147563961Y-38559386D01*
X147555508Y-38570711D01*
X146614790Y-38570711D01*
X146596177Y-38556011D01*
X146596172Y-38556008D01*
X146592123Y-38552810D01*
X146587607Y-38550317D01*
X146587604Y-38550315D01*
X146393879Y-38443373D01*
X146393875Y-38443371D01*
X146389355Y-38440876D01*
X146384486Y-38439152D01*
X146384482Y-38439150D01*
X146175903Y-38365288D01*
X146175899Y-38365287D01*
X146171028Y-38363562D01*
X146165935Y-38362655D01*
X146165932Y-38362654D01*
X145948095Y-38323851D01*
X145948089Y-38323850D01*
X145943006Y-38322945D01*
X145865644Y-38322000D01*
X145716581Y-38320179D01*
X145716579Y-38320179D01*
X145711411Y-38320116D01*
X145482464Y-38355150D01*
X145262314Y-38427106D01*
X145257726Y-38429494D01*
X145257722Y-38429496D01*
X145061461Y-38531663D01*
X145056872Y-38534052D01*
X145052739Y-38537155D01*
X145052736Y-38537157D01*
X144875790Y-38670012D01*
X144871655Y-38673117D01*
X144711639Y-38840564D01*
X144644306Y-38939271D01*
X144589397Y-38984271D01*
X144518872Y-38992442D01*
X144455125Y-38961188D01*
X144434428Y-38936705D01*
X144392571Y-38872004D01*
X144389764Y-38867665D01*
X144233887Y-38696358D01*
X144229836Y-38693159D01*
X144229832Y-38693155D01*
X144056177Y-38556011D01*
X144056172Y-38556008D01*
X144052123Y-38552810D01*
X144047607Y-38550317D01*
X144047604Y-38550315D01*
X143853879Y-38443373D01*
X143853875Y-38443371D01*
X143849355Y-38440876D01*
X143844486Y-38439152D01*
X143844482Y-38439150D01*
X143635903Y-38365288D01*
X143635899Y-38365287D01*
X143631028Y-38363562D01*
X143625935Y-38362655D01*
X143625932Y-38362654D01*
X143408095Y-38323851D01*
X143408089Y-38323850D01*
X143403006Y-38322945D01*
X143325644Y-38322000D01*
X143176581Y-38320179D01*
X143176579Y-38320179D01*
X143171411Y-38320116D01*
X142942464Y-38355150D01*
X142722314Y-38427106D01*
X142717726Y-38429494D01*
X142717722Y-38429496D01*
X142521461Y-38531663D01*
X142516872Y-38534052D01*
X142512739Y-38537155D01*
X142512736Y-38537157D01*
X142335790Y-38670012D01*
X142331655Y-38673117D01*
X142171639Y-38840564D01*
X142104306Y-38939271D01*
X142049397Y-38984271D01*
X141978872Y-38992442D01*
X141915125Y-38961188D01*
X141894428Y-38936705D01*
X141852571Y-38872004D01*
X141849764Y-38867665D01*
X141693887Y-38696358D01*
X141689836Y-38693159D01*
X141689832Y-38693155D01*
X141516177Y-38556011D01*
X141516172Y-38556008D01*
X141512123Y-38552810D01*
X141507607Y-38550317D01*
X141507604Y-38550315D01*
X141313879Y-38443373D01*
X141313875Y-38443371D01*
X141309355Y-38440876D01*
X141304486Y-38439152D01*
X141304482Y-38439150D01*
X141095903Y-38365288D01*
X141095899Y-38365287D01*
X141091028Y-38363562D01*
X141085935Y-38362655D01*
X141085932Y-38362654D01*
X140868095Y-38323851D01*
X140868089Y-38323850D01*
X140863006Y-38322945D01*
X140785644Y-38322000D01*
X140636581Y-38320179D01*
X140636579Y-38320179D01*
X140631411Y-38320116D01*
X140402464Y-38355150D01*
X140182314Y-38427106D01*
X140177726Y-38429494D01*
X140177722Y-38429496D01*
X139981461Y-38531663D01*
X139976872Y-38534052D01*
X139972739Y-38537155D01*
X139972736Y-38537157D01*
X139795790Y-38670012D01*
X139791655Y-38673117D01*
X139631639Y-38840564D01*
X139564306Y-38939271D01*
X139509397Y-38984271D01*
X139438872Y-38992442D01*
X139375125Y-38961188D01*
X139354428Y-38936705D01*
X139312571Y-38872004D01*
X139309764Y-38867665D01*
X139153887Y-38696358D01*
X139149836Y-38693159D01*
X139149832Y-38693155D01*
X138976177Y-38556011D01*
X138976172Y-38556008D01*
X138972123Y-38552810D01*
X138967607Y-38550317D01*
X138967604Y-38550315D01*
X138773879Y-38443373D01*
X138773875Y-38443371D01*
X138769355Y-38440876D01*
X138764486Y-38439152D01*
X138764482Y-38439150D01*
X138555903Y-38365288D01*
X138555899Y-38365287D01*
X138551028Y-38363562D01*
X138545935Y-38362655D01*
X138545932Y-38362654D01*
X138328095Y-38323851D01*
X138328089Y-38323850D01*
X138323006Y-38322945D01*
X138245644Y-38322000D01*
X138096581Y-38320179D01*
X138096579Y-38320179D01*
X138091411Y-38320116D01*
X137862464Y-38355150D01*
X137642314Y-38427106D01*
X137637726Y-38429494D01*
X137637722Y-38429496D01*
X137441461Y-38531663D01*
X137436872Y-38534052D01*
X137432739Y-38537155D01*
X137432736Y-38537157D01*
X137255790Y-38670012D01*
X137251655Y-38673117D01*
X137091639Y-38840564D01*
X137024306Y-38939271D01*
X136969397Y-38984271D01*
X136898872Y-38992442D01*
X136835125Y-38961188D01*
X136814428Y-38936705D01*
X136772571Y-38872004D01*
X136769764Y-38867665D01*
X136613887Y-38696358D01*
X136609836Y-38693159D01*
X136609832Y-38693155D01*
X136436177Y-38556011D01*
X136436172Y-38556008D01*
X136432123Y-38552810D01*
X136427607Y-38550317D01*
X136427604Y-38550315D01*
X136233879Y-38443373D01*
X136233875Y-38443371D01*
X136229355Y-38440876D01*
X136224486Y-38439152D01*
X136224482Y-38439150D01*
X136015903Y-38365288D01*
X136015899Y-38365287D01*
X136011028Y-38363562D01*
X136005935Y-38362655D01*
X136005932Y-38362654D01*
X135788095Y-38323851D01*
X135788089Y-38323850D01*
X135783006Y-38322945D01*
X135705644Y-38322000D01*
X135556581Y-38320179D01*
X135556579Y-38320179D01*
X135551411Y-38320116D01*
X135322464Y-38355150D01*
X135102314Y-38427106D01*
X135097726Y-38429494D01*
X135097722Y-38429496D01*
X134901461Y-38531663D01*
X134896872Y-38534052D01*
X134892739Y-38537155D01*
X134892736Y-38537157D01*
X134715790Y-38670012D01*
X134711655Y-38673117D01*
X134551639Y-38840564D01*
X134484306Y-38939271D01*
X134429397Y-38984271D01*
X134358872Y-38992442D01*
X134295125Y-38961188D01*
X134274428Y-38936705D01*
X134232571Y-38872004D01*
X134229764Y-38867665D01*
X134073887Y-38696358D01*
X134069836Y-38693159D01*
X134069832Y-38693155D01*
X133896177Y-38556011D01*
X133896172Y-38556008D01*
X133892123Y-38552810D01*
X133887607Y-38550317D01*
X133887604Y-38550315D01*
X133693879Y-38443373D01*
X133693875Y-38443371D01*
X133689355Y-38440876D01*
X133684486Y-38439152D01*
X133684482Y-38439150D01*
X133475903Y-38365288D01*
X133475899Y-38365287D01*
X133471028Y-38363562D01*
X133465935Y-38362655D01*
X133465932Y-38362654D01*
X133248095Y-38323851D01*
X133248089Y-38323850D01*
X133243006Y-38322945D01*
X133165644Y-38322000D01*
X133016581Y-38320179D01*
X133016579Y-38320179D01*
X133011411Y-38320116D01*
X132782464Y-38355150D01*
X132562314Y-38427106D01*
X132557726Y-38429494D01*
X132557722Y-38429496D01*
X132361461Y-38531663D01*
X132356872Y-38534052D01*
X132352739Y-38537155D01*
X132352736Y-38537157D01*
X132175790Y-38670012D01*
X132171655Y-38673117D01*
X132168083Y-38676855D01*
X132153787Y-38691815D01*
X132092263Y-38727245D01*
X132021351Y-38723788D01*
X131963564Y-38682543D01*
X131944711Y-38648994D01*
X131923324Y-38591946D01*
X131914786Y-38576351D01*
X131838285Y-38474276D01*
X131825724Y-38461715D01*
X131723649Y-38385214D01*
X131708054Y-38376676D01*
X131587606Y-38331522D01*
X131572351Y-38327895D01*
X131521486Y-38322369D01*
X131514672Y-38322000D01*
X130842115Y-38322000D01*
X130826876Y-38326475D01*
X130825671Y-38327865D01*
X130824000Y-38335548D01*
X130824000Y-39858000D01*
X130803998Y-39926121D01*
X130750342Y-39972614D01*
X130698000Y-39984000D01*
X129180116Y-39984000D01*
X129164877Y-39988475D01*
X129163672Y-39989865D01*
X129162001Y-39997548D01*
X129162001Y-40674669D01*
X129162371Y-40681490D01*
X129167895Y-40732352D01*
X129171521Y-40747604D01*
X129216676Y-40868054D01*
X129225214Y-40883649D01*
X129301715Y-40985724D01*
X129314276Y-40998285D01*
X129416351Y-41074786D01*
X129431946Y-41083324D01*
X129491540Y-41105665D01*
X129548304Y-41148307D01*
X129573004Y-41214868D01*
X129557796Y-41284217D01*
X129538404Y-41310698D01*
X129471639Y-41380564D01*
X129468730Y-41384829D01*
X129468724Y-41384837D01*
X129453152Y-41407665D01*
X129341119Y-41571899D01*
X129243602Y-41781981D01*
X129181707Y-42005169D01*
X129157095Y-42235469D01*
X123858056Y-42235469D01*
X124085468Y-41971078D01*
X124285380Y-41680203D01*
X124286992Y-41677209D01*
X124286997Y-41677201D01*
X124429788Y-41412009D01*
X124452709Y-41369440D01*
X124585498Y-41042422D01*
X124586529Y-41038805D01*
X124681257Y-40706254D01*
X124682191Y-40702976D01*
X124692648Y-40641800D01*
X124741087Y-40358420D01*
X124741087Y-40358418D01*
X124741659Y-40355073D01*
X124743945Y-40317711D01*
X124763096Y-40004580D01*
X124763206Y-40002782D01*
X124763286Y-39980000D01*
X124744199Y-39627567D01*
X124716412Y-39457885D01*
X129162000Y-39457885D01*
X129166475Y-39473124D01*
X129167865Y-39474329D01*
X129175548Y-39476000D01*
X130297885Y-39476000D01*
X130313124Y-39471525D01*
X130314329Y-39470135D01*
X130316000Y-39462452D01*
X130316000Y-38340116D01*
X130311525Y-38324877D01*
X130310135Y-38323672D01*
X130302452Y-38322001D01*
X129625331Y-38322001D01*
X129618510Y-38322371D01*
X129567648Y-38327895D01*
X129552396Y-38331521D01*
X129431946Y-38376676D01*
X129416351Y-38385214D01*
X129314276Y-38461715D01*
X129301715Y-38474276D01*
X129225214Y-38576351D01*
X129216676Y-38591946D01*
X129171522Y-38712394D01*
X129167895Y-38727649D01*
X129162369Y-38778514D01*
X129162000Y-38785328D01*
X129162000Y-39457885D01*
X124716412Y-39457885D01*
X124687161Y-39279257D01*
X124592839Y-38939145D01*
X124589849Y-38931630D01*
X124463597Y-38614372D01*
X124462338Y-38611208D01*
X124318802Y-38340116D01*
X124298777Y-38302295D01*
X124298775Y-38302292D01*
X124297182Y-38299283D01*
X124290579Y-38289530D01*
X124101211Y-38009834D01*
X124101204Y-38009825D01*
X124099305Y-38007020D01*
X124097109Y-38004430D01*
X124097104Y-38004424D01*
X124008715Y-37900201D01*
X123871021Y-37737837D01*
X123615001Y-37494883D01*
X123612294Y-37492821D01*
X123612286Y-37492814D01*
X123453809Y-37372088D01*
X123334239Y-37281000D01*
X123032020Y-37098689D01*
X123028930Y-37097255D01*
X123028925Y-37097252D01*
X122871950Y-37024387D01*
X122711879Y-36950085D01*
X122708654Y-36948993D01*
X122708648Y-36948991D01*
X122380798Y-36838020D01*
X122380793Y-36838018D01*
X122377562Y-36836925D01*
X122363832Y-36833881D01*
X122294730Y-36818562D01*
X122032979Y-36760533D01*
X121908353Y-36746774D01*
X121685543Y-36722175D01*
X121685538Y-36722175D01*
X121682162Y-36721802D01*
X121678763Y-36721796D01*
X121678762Y-36721796D01*
X121512289Y-36721506D01*
X121329213Y-36721186D01*
X121198206Y-36735187D01*
X120981646Y-36758330D01*
X120981640Y-36758331D01*
X120978262Y-36758692D01*
X120633414Y-36833881D01*
X120298704Y-36945873D01*
X119978047Y-37093359D01*
X119675194Y-37274613D01*
X119393687Y-37487515D01*
X119136820Y-37729574D01*
X118907598Y-37997959D01*
X118708702Y-38289530D01*
X118662170Y-38376676D01*
X118551982Y-38583040D01*
X118542458Y-38600876D01*
X118541183Y-38604048D01*
X118541181Y-38604052D01*
X118436749Y-38863838D01*
X118410813Y-38928355D01*
X118409894Y-38931623D01*
X118409892Y-38931630D01*
X118316225Y-39264858D01*
X118315304Y-39268136D01*
X118314743Y-39271489D01*
X118314742Y-39271493D01*
X118276643Y-39499167D01*
X118257051Y-39616245D01*
X118236734Y-39968609D01*
X115508000Y-39968609D01*
X115508000Y-30634000D01*
X115528002Y-30565879D01*
X115581658Y-30519386D01*
X115634000Y-30508000D01*
X184366000Y-30508000D01*
X184434121Y-30528002D01*
G37*
%TD.AperFunction*%
%TD*%
M02*
